<svg width="136" height="50" viewBox="0 0 136 50" fill="none" xmlns="http://www.w3.org/2000/svg">
<path d="M73.6602 26.6211L73.9883 28.8711L74.4688 26.8438L77.8438 14.9375H79.7422L83.0352 26.8438L83.5039 28.9062L83.8672 26.6094L86.5156 14.9375H88.7773L84.6406 32H82.5898L79.0742 19.5664L78.8047 18.2656L78.5352 19.5664L74.8906 32H72.8398L68.7148 14.9375H70.9648L73.6602 26.6211ZM104.41 24.0195C104.41 25.6914 104.129 27.1523 103.566 28.4023C103.004 29.6445 102.207 30.5938 101.176 31.25C100.145 31.9062 98.9414 32.2344 97.5664 32.2344C96.2227 32.2344 95.0312 31.9062 93.9922 31.25C92.9531 30.5859 92.1445 29.6445 91.5664 28.4258C90.9961 27.1992 90.7031 25.7812 90.6875 24.1719V22.9414C90.6875 21.3008 90.9727 19.8516 91.543 18.5938C92.1133 17.3359 92.918 16.375 93.957 15.7109C95.0039 15.0391 96.1992 14.7031 97.543 14.7031C98.9102 14.7031 100.113 15.0352 101.152 15.6992C102.199 16.3555 103.004 17.3125 103.566 18.5703C104.129 19.8203 104.41 21.2773 104.41 22.9414V24.0195ZM102.172 22.918C102.172 20.8945 101.766 19.3438 100.953 18.2656C100.141 17.1797 99.0039 16.6367 97.543 16.6367C96.1211 16.6367 95 17.1797 94.1797 18.2656C93.3672 19.3438 92.9492 20.8438 92.9258 22.7656V24.0195C92.9258 25.9805 93.3359 27.5234 94.1562 28.6484C94.9844 29.7656 96.1211 30.3242 97.5664 30.3242C99.0195 30.3242 100.145 29.7969 100.941 28.7422C101.738 27.6797 102.148 26.1602 102.172 24.1836V22.918ZM114.043 25.0977H110.035V32H107.773V14.9375H113.422C115.344 14.9375 116.82 15.375 117.852 16.25C118.891 17.125 119.41 18.3984 119.41 20.0703C119.41 21.1328 119.121 22.0586 118.543 22.8477C117.973 23.6367 117.176 24.2266 116.152 24.6172L120.16 31.8594V32H117.746L114.043 25.0977ZM110.035 23.2578H113.492C114.609 23.2578 115.496 22.9688 116.152 22.3906C116.816 21.8125 117.148 21.0391 117.148 20.0703C117.148 19.0156 116.832 18.207 116.199 17.6445C115.574 17.082 114.668 16.7969 113.48 16.7891H110.035V23.2578ZM126.91 24.0664L124.824 26.2344V32H122.574V14.9375H124.824V23.375L132.406 14.9375H135.125L128.41 22.4727L135.652 32H132.957L126.91 24.0664Z" fill="black"/>
<rect x="16.1" y="0.5" width="19.8" height="12.3333" rx="1.5" stroke="#49270D"/>
<rect x="2.23333" y="20.5" width="47.5333" height="24" rx="1.5" fill="#292020" stroke="black"/>
<rect x="0.5" y="5.5" width="51" height="24" rx="1.5" fill="#292020" stroke="black"/>
<rect x="20.8" y="23.3333" width="12.1333" height="10" rx="2" fill="#49270D"/>
<path d="M5.2 19.1667V24C5.2 24.5523 5.64771 25 6.2 25H11.2667" stroke="#49270D"/>
</svg>
