<svg width="137" height="51" viewBox="0 0 137 51" fill="none" xmlns="http://www.w3.org/2000/svg">
<path d="M64.8984 23.8788C64.7402 25.2323 64.2393 26.2782 63.3955 27.0165C62.5576 27.7489 61.4414 28.1152 60.0469 28.1152C58.5352 28.1152 57.3223 27.5732 56.4082 26.4892C55.5 25.4052 55.0459 23.955 55.0459 22.1386V20.9081C55.0459 19.7187 55.2568 18.6728 55.6787 17.7704C56.1064 16.8681 56.71 16.1767 57.4893 15.6962C58.2686 15.2099 59.1709 14.9667 60.1963 14.9667C61.5557 14.9667 62.6455 15.3476 63.4658 16.1093C64.2861 16.8652 64.7637 17.914 64.8984 19.2558H63.2021C63.0557 18.2362 62.7363 17.498 62.2441 17.0409C61.7578 16.5839 61.0752 16.3554 60.1963 16.3554C59.1182 16.3554 58.2715 16.7538 57.6562 17.5507C57.0469 18.3476 56.7422 19.4814 56.7422 20.9521V22.1913C56.7422 23.58 57.0322 24.6845 57.6123 25.5048C58.1924 26.3251 59.0039 26.7353 60.0469 26.7353C60.9844 26.7353 61.7021 26.5243 62.2002 26.1025C62.7041 25.6747 63.0381 24.9335 63.2021 23.8788H64.8984ZM77.0537 21.954C77.0537 23.2079 76.8428 24.3036 76.4209 25.2411C75.999 26.1728 75.4014 26.8847 74.6279 27.3769C73.8545 27.8691 72.9521 28.1152 71.9209 28.1152C70.9131 28.1152 70.0195 27.8691 69.2402 27.3769C68.4609 26.8788 67.8545 26.1728 67.4209 25.2587C66.9932 24.3388 66.7734 23.2753 66.7617 22.0683V21.1454C66.7617 19.915 66.9756 18.828 67.4033 17.8847C67.8311 16.9413 68.4346 16.2206 69.2139 15.7226C69.999 15.2187 70.8955 14.9667 71.9033 14.9667C72.9287 14.9667 73.8311 15.2157 74.6104 15.7138C75.3955 16.206 75.999 16.9237 76.4209 17.8671C76.8428 18.8046 77.0537 19.8974 77.0537 21.1454V21.954ZM75.375 21.1278C75.375 19.6103 75.0703 18.4472 74.4609 17.6386C73.8516 16.8241 72.999 16.4169 71.9033 16.4169C70.8369 16.4169 69.9961 16.8241 69.3809 17.6386C68.7715 18.4472 68.458 19.5722 68.4404 21.0136V21.954C68.4404 23.4247 68.748 24.5819 69.3633 25.4257C69.9844 26.2636 70.8369 26.6825 71.9209 26.6825C73.0107 26.6825 73.8545 26.287 74.4521 25.496C75.0498 24.6991 75.3574 23.5595 75.375 22.0771V21.1278ZM81.2812 26.5595H87.3457V27.9394H79.585V15.1425H81.2812V26.5595ZM90.9668 26.5595H97.0312V27.9394H89.2705V15.1425H90.9668V26.5595ZM106.189 22.0243H100.644V26.5595H107.086V27.9394H98.9561V15.1425H106.998V16.5312H100.644V20.6444H106.189V22.0243ZM118.635 26.2607C118.201 26.8818 117.595 27.3476 116.815 27.6581C116.042 27.9628 115.14 28.1152 114.108 28.1152C113.065 28.1152 112.14 27.872 111.331 27.3857C110.522 26.8935 109.896 26.1962 109.45 25.2939C109.011 24.3915 108.785 23.3456 108.773 22.1562V21.04C108.773 19.1122 109.222 17.6181 110.118 16.5575C111.021 15.497 112.286 14.9667 113.915 14.9667C115.251 14.9667 116.326 15.3095 117.141 15.995C117.955 16.6747 118.453 17.6415 118.635 18.8954H116.947C116.631 17.2021 115.623 16.3554 113.924 16.3554C112.793 16.3554 111.935 16.7538 111.349 17.5507C110.769 18.3417 110.476 19.4902 110.47 20.996V22.0419C110.47 23.4775 110.798 24.62 111.454 25.4696C112.11 26.3134 112.998 26.7353 114.117 26.7353C114.75 26.7353 115.304 26.665 115.778 26.5243C116.253 26.3837 116.646 26.1464 116.956 25.8124V22.9384H113.994V21.5673H118.635V26.2607ZM128.689 22.0243H123.144V26.5595H129.586V27.9394H121.456V15.1425H129.498V16.5312H123.144V20.6444H128.689V22.0243Z" fill="black"/>
<path d="M2.08004 13.0353L22.9564 1.45578C24.4446 0.630314 25.6435 1.11184 26.0569 1.45578L45.693 13.0353C47.8427 14.303 46.8643 15.7981 46.1064 16.3873L44.8663 17.1186V27.9668L46.5198 30.7093L43.2127 35.8896L39.9055 30.7093L41.9725 27.9668V18.8251L26.0569 28.881C25.3679 29.1857 23.8659 29.7342 23.3698 29.4904L22.1296 28.881L2.08004 16.3873C0.123984 15.1684 1.26502 13.6448 2.08004 13.0353Z" fill="black"/>
<path d="M11.1747 34.0613V27.9668C15.722 33.1471 27.1317 40.1558 36.3917 26.7479V34.0613C26.4702 46.7378 15.4464 39.3432 11.1747 34.0613Z" fill="black"/>
<path d="M41.9725 18.8251L26.0569 28.881C25.3679 29.1857 23.8659 29.7342 23.3698 29.4904C22.8737 29.2466 22.3363 28.9825 22.1296 28.881L2.08004 16.3873C0.123984 15.1684 1.26502 13.6448 2.08004 13.0353L22.9564 1.45578C24.4446 0.630314 25.6435 1.11184 26.0569 1.45578L45.693 13.0353C47.8427 14.303 46.8643 15.7981 46.1064 16.3873L44.8663 17.1186M41.9725 18.8251V27.9668L39.9055 30.7093L43.2127 35.8896L46.5198 30.7093L44.8663 27.9668V17.1186M41.9725 18.8251L44.8663 17.1186M11.1747 27.9668V34.0613C15.4464 39.3432 26.4702 46.7378 36.3917 34.0613V26.7479C27.1317 40.1557 15.722 33.1471 11.1747 27.9668Z" stroke="black"/>
</svg>
