<svg width="192" height="82" viewBox="0 0 192 82" fill="none" xmlns="http://www.w3.org/2000/svg">
<rect x="2.5" y="0.5" width="189" height="78" rx="4.5" fill="white" stroke="black"/>
<path d="M48.4792 51.0429L17.7562 67.6458L25.7732 33.6563L48.4792 51.0429Z" fill="#F9FD51" stroke="black"/>
<path d="M48.8933 50.8756C48.6604 51.1742 48.173 51.3792 47.3029 51.3393C46.4488 51.3001 45.3409 51.0266 44.0446 50.5221C41.4581 49.5156 38.2308 47.633 34.9888 45.1048C31.7469 42.5766 29.1347 39.9052 27.5283 37.642C26.7231 36.5076 26.1879 35.4997 25.9418 34.6809C25.6911 33.8468 25.7712 33.3242 26.0041 33.0255C26.2369 32.7269 26.7243 32.5219 27.5944 32.5618C28.4485 32.601 29.5564 32.8745 30.8528 33.379C33.4392 34.3855 36.6666 36.2681 39.9085 38.7963C43.1504 41.3245 45.7627 43.9959 47.3691 46.2591C48.1742 47.3935 48.7094 48.4014 48.9555 49.2202C49.2062 50.0543 49.1262 50.5769 48.8933 50.8756Z" fill="#E6FF83" stroke="black"/>
<path d="M23.5 44C30.996 49.0445 35.9516 50.7965 46.5 52L42.5 54C33.7514 53.4256 30.1048 52.2704 22.5 48L23.5 44Z" fill="#DCFF07"/>
<path d="M21 55C27.5138 57.8285 30.7651 57.7914 37.5 57L32 60C27.0249 61.2867 24.0994 60.2481 20 58.5L21 55Z" fill="#DCFF07"/>
<path d="M23.5 44C30.996 49.0445 35.9516 50.7965 46.5 52L42.5 54C33.7514 53.4256 30.1048 52.2704 22.5 48L23.5 44Z" stroke="black"/>
<path d="M21 55C27.5138 57.8285 30.7651 57.7914 37.5 57L32 60C27.0249 61.2867 24.0994 60.2481 20 58.5L21 55Z" stroke="black"/>
<circle cx="30" cy="25" r="3" fill="#6F1B1B"/>
<circle cx="30" cy="25" r="3" fill="#6F1B1B"/>
<circle cx="30" cy="25" r="3" fill="#6F1B1B"/>
<circle cx="61" cy="19" r="3" fill="#6F1B1B"/>
<circle cx="61" cy="19" r="3" fill="#6F1B1B"/>
<circle cx="61" cy="19" r="3" fill="#F3F824"/>
<circle cx="52" cy="22" r="3" fill="#6F1B1B"/>
<circle cx="52" cy="22" r="3" fill="#6F1B1B"/>
<circle cx="52" cy="22" r="3" fill="#C683E6"/>
<circle cx="58" cy="31" r="3" fill="#6F1B1B"/>
<circle cx="58" cy="31" r="3" fill="#6F1B1B"/>
<circle cx="58" cy="31" r="3" fill="#64E659"/>
<circle cx="52" cy="42" r="3" fill="#6F1B1B"/>
<circle cx="52" cy="42" r="3" fill="#6F1B1B"/>
<circle cx="52" cy="42" r="3" fill="#BE8989"/>
<circle cx="40" cy="22" r="3" fill="#6F1B1B"/>
<circle cx="40" cy="22" r="3" fill="#6F1B1B"/>
<circle cx="40" cy="22" r="3" fill="#6A6A93"/>
<circle cx="43" cy="32" r="3" fill="#6F1B1B"/>
<circle cx="43" cy="32" r="3" fill="#6F1B1B"/>
<circle cx="43" cy="32" r="3" fill="#EF6060"/>
<path d="M87.2305 44.3203V51H84.9805V33.9375H91.2734C93.1406 33.9375 94.6016 34.4141 95.6562 35.3672C96.7188 36.3203 97.25 37.582 97.25 39.1523C97.25 40.8086 96.7305 42.0859 95.6914 42.9844C94.6602 43.875 93.1797 44.3203 91.25 44.3203H87.2305ZM87.2305 42.4805H91.2734C92.4766 42.4805 93.3984 42.1992 94.0391 41.6367C94.6797 41.0664 95 40.2461 95 39.1758C95 38.1602 94.6797 37.3477 94.0391 36.7383C93.3984 36.1289 92.5195 35.8125 91.4023 35.7891H87.2305V42.4805ZM107.926 46.5469H100.777L99.1719 51H96.8516L103.367 33.9375H105.336L111.863 51H109.555L107.926 46.5469ZM101.457 44.6953H107.258L104.352 36.7148L101.457 44.6953ZM120.418 44.0977H116.41V51H114.148V33.9375H119.797C121.719 33.9375 123.195 34.375 124.227 35.25C125.266 36.125 125.785 37.3984 125.785 39.0703C125.785 40.1328 125.496 41.0586 124.918 41.8477C124.348 42.6367 123.551 43.2266 122.527 43.6172L126.535 50.8594V51H124.121L120.418 44.0977ZM116.41 42.2578H119.867C120.984 42.2578 121.871 41.9688 122.527 41.3906C123.191 40.8125 123.523 40.0391 123.523 39.0703C123.523 38.0156 123.207 37.207 122.574 36.6445C121.949 36.082 121.043 35.7969 119.855 35.7891H116.41V42.2578ZM139.801 35.7891H134.316V51H132.078V35.7891H126.605V33.9375H139.801V35.7891ZM147.723 42.5039L152.176 33.9375H154.73L148.848 44.6367V51H146.598V44.6367L140.715 33.9375H143.293L147.723 42.5039Z" fill="black"/>
</svg>
