<svg width="137" height="51" viewBox="0 0 137 51" fill="none" xmlns="http://www.w3.org/2000/svg">
<path d="M58.623 25.7854V32.4651H56.373V15.4026H62.666C64.5332 15.4026 65.9941 15.8792 67.0488 16.8323C68.1113 17.7854 68.6426 19.0471 68.6426 20.6175C68.6426 22.2737 68.123 23.5511 67.084 24.4495C66.0527 25.3401 64.5723 25.7854 62.6426 25.7854H58.623ZM58.623 23.9456H62.666C63.8691 23.9456 64.791 23.6643 65.4316 23.1018C66.0723 22.5315 66.3926 21.7112 66.3926 20.6409C66.3926 19.6253 66.0723 18.8128 65.4316 18.2034C64.791 17.594 63.9121 17.2776 62.7949 17.2542H58.623V23.9456ZM73.9277 32.4651H71.6777V15.4026H73.9277V32.4651ZM90.6035 27.0511C90.3926 28.8557 89.7246 30.2503 88.5996 31.2346C87.4824 32.2112 85.9941 32.6995 84.1348 32.6995C82.1191 32.6995 80.502 31.9768 79.2832 30.5315C78.0723 29.0862 77.4668 27.1526 77.4668 24.7307V23.0901C77.4668 21.5042 77.748 20.1096 78.3105 18.9065C78.8809 17.7034 79.6855 16.7815 80.7246 16.1409C81.7637 15.4925 82.9668 15.1682 84.334 15.1682C86.1465 15.1682 87.5996 15.6761 88.6934 16.6917C89.7871 17.6995 90.4238 19.0979 90.6035 20.887H88.3418C88.1465 19.5276 87.7207 18.5432 87.0645 17.9339C86.416 17.3245 85.5059 17.0198 84.334 17.0198C82.8965 17.0198 81.7676 17.5511 80.9473 18.6136C80.1348 19.6761 79.7285 21.1878 79.7285 23.1487V24.8011C79.7285 26.6526 80.1152 28.1253 80.8887 29.219C81.6621 30.3128 82.7441 30.8596 84.1348 30.8596C85.3848 30.8596 86.3418 30.5784 87.0059 30.0159C87.6777 29.4456 88.123 28.4573 88.3418 27.0511H90.6035ZM106.799 32.4651H104.537L95.9473 19.3167V32.4651H93.6855V15.4026H95.9473L104.561 28.6096V15.4026H106.799V32.4651ZM113.209 32.4651H110.959V15.4026H113.209V32.4651ZM129.885 27.0511C129.674 28.8557 129.006 30.2503 127.881 31.2346C126.764 32.2112 125.275 32.6995 123.416 32.6995C121.4 32.6995 119.783 31.9768 118.564 30.5315C117.354 29.0862 116.748 27.1526 116.748 24.7307V23.0901C116.748 21.5042 117.029 20.1096 117.592 18.9065C118.162 17.7034 118.967 16.7815 120.006 16.1409C121.045 15.4925 122.248 15.1682 123.615 15.1682C125.428 15.1682 126.881 15.6761 127.975 16.6917C129.068 17.6995 129.705 19.0979 129.885 20.887H127.623C127.428 19.5276 127.002 18.5432 126.346 17.9339C125.697 17.3245 124.787 17.0198 123.615 17.0198C122.178 17.0198 121.049 17.5511 120.229 18.6136C119.416 19.6761 119.01 21.1878 119.01 23.1487V24.8011C119.01 26.6526 119.396 28.1253 120.17 29.219C120.943 30.3128 122.025 30.8596 123.416 30.8596C124.666 30.8596 125.623 30.5784 126.287 30.0159C126.959 29.4456 127.404 28.4573 127.623 27.0511H129.885Z" fill="black"/>
<path d="M1.70643 11.6412L8.8744 22.7872H18.7304C17.0582 19.6362 15.5843 17.071 14.2978 14.9942C12.6012 12.2555 11.2305 10.3662 10.1607 9.10305C8.68012 7.35492 7.77569 6.80594 7.38107 6.86438C-0.0258346 5.59056 0.511763 9.51818 1.70643 11.6412Z" fill="#E4AB75"/>
<path d="M10.1607 9.10305C8.68012 7.35492 7.77569 6.80594 7.38107 6.86438C-0.0258346 5.59056 0.511763 9.51818 1.70643 11.6412L8.8744 22.7872H18.7304C17.0582 19.6362 15.5843 17.071 14.2978 14.9942M10.1607 9.10305V13.5988M10.1607 9.10305C11.2305 10.3662 12.6012 12.2555 14.2978 14.9942M14.2978 14.9942V18.7443" stroke="black"/>
<rect x="20.4124" y="0.5" width="5.50113" height="22.5223" rx="1.5" fill="#8A4A25" stroke="black"/>
<path d="M6.61462 44.4718L4.84158 30.1379H41.7799L39.4158 46.3094C38.7066 49.5437 36.5593 50.1073 35.5742 49.9848H9.56968C7.20563 48.8087 6.61462 45.8194 6.61462 44.4718Z" fill="#8A4A25" stroke="black"/>
<rect x="1.5" y="22.5521" width="43.3259" height="7.82085" fill="#8A4A25" stroke="black"/>
<path d="M16.3663 22.4196H6.91013L11.6382 34.1808L16.3663 22.4196Z" fill="white" stroke="black"/>
<rect x="31.6416" y="4.91042" width="4.31911" height="2.67535" rx="0.5" fill="white" stroke="black"/>
<path d="M35.8697 8.08577H31.7326V12.8637C31.7326 13.7213 31.2598 15.7305 29.3686 16.9066C27.4774 18.0827 27.3986 20.827 27.5956 22.0521H40.0068C40.1053 20.827 39.8886 18.0827 38.2338 16.9066C36.5789 15.7305 35.9682 13.7213 35.8697 12.8637V8.08577Z" fill="url(#paint0_linear)"/>
<path d="M35.8697 8.08577H31.7326V12.8637C31.7326 13.7213 31.2598 15.7305 29.3686 16.9066C27.4774 18.0827 27.3986 20.827 27.5956 22.0521H40.0068C40.1053 20.827 39.8886 18.0827 38.2338 16.9066C36.5789 15.7305 35.9682 13.7213 35.8697 12.8637V8.08577Z" fill="url(#paint1_linear)"/>
<path d="M8.68317 37.8561H13.7068M13.7068 42.2665H19.3214M19.3214 37.8561H24.936M24.936 42.2665H30.2551M30.2551 37.8561H34.9832M34.9832 42.2665H40.0068M31.7326 8.08577H35.8697V12.8637C35.9682 13.7213 36.5789 15.7305 38.2338 16.9066C39.8886 18.0827 40.1053 20.827 40.0068 22.0521H27.5956C27.3986 20.827 27.4774 18.0827 29.3686 16.9066C31.2598 15.7305 31.7326 13.7213 31.7326 12.8637V8.08577Z" stroke="black"/>
<defs>
<linearGradient id="paint0_linear" x1="38.2338" y1="16.9066" x2="29.9559" y2="16.6689" gradientUnits="userSpaceOnUse">
<stop stop-color="white"/>
<stop offset="1" stop-color="white" stop-opacity="0"/>
</linearGradient>
<linearGradient id="paint1_linear" x1="38.5293" y1="18.0092" x2="33.171" y2="20.9544" gradientUnits="userSpaceOnUse">
<stop stop-color="#C7F9A0"/>
<stop offset="1" stop-color="white" stop-opacity="0"/>
</linearGradient>
</defs>
</svg>
