<svg width="136" height="50" viewBox="0 0 136 50" fill="none" xmlns="http://www.w3.org/2000/svg">
<path d="M39.8225 25.9273L14.8512 37.4721L21.3673 13.8377L39.8225 25.9273Z" fill="#F9FD51" stroke="black"/>
<path d="M40.2973 25.758C40.1437 25.9264 39.7945 26.071 39.0893 26.0434C38.4022 26.0164 37.5006 25.8273 36.4356 25.4727C34.3123 24.7658 31.6559 23.441 28.984 21.6584C26.3121 19.8758 24.1629 17.9946 22.8441 16.4051C22.1827 15.6078 21.7486 14.9058 21.5506 14.3422C21.3474 13.7639 21.4263 13.4389 21.5798 13.2705C21.7334 13.102 22.0826 12.9574 22.7878 12.9851C23.4749 13.012 24.3765 13.2011 25.4415 13.5557C27.5648 14.2626 30.2212 15.5875 32.8931 17.3701C35.565 19.1527 37.7142 21.0338 39.033 22.6234C39.6944 23.4207 40.1285 24.1226 40.3265 24.6862C40.5297 25.2645 40.4508 25.5895 40.2973 25.758Z" fill="#E6FF83" stroke="black"/>
<path d="M19.4148 20.9627C25.6077 24.5281 29.7017 25.7664 38.4164 26.617L35.1118 28.0305C27.8841 27.6246 24.8714 26.8081 18.5886 23.7899L19.4148 20.9627Z" fill="#DCFF07"/>
<path d="M17.3494 28.7373C22.7308 30.7364 25.4169 30.7103 30.981 30.1509L26.4371 32.2712C22.3269 33.1806 19.91 32.4466 16.5232 31.211L17.3494 28.7373Z" fill="#DCFF07"/>
<path d="M19.4148 20.9627C25.6077 24.5281 29.7017 25.7664 38.4164 26.617L35.1118 28.0305C27.8841 27.6246 24.8714 26.8081 18.5886 23.7899L19.4148 20.9627Z" stroke="black"/>
<path d="M17.3494 28.7373C22.7308 30.7364 25.4169 30.7103 30.981 30.1509L26.4371 32.2712C22.3269 33.1806 19.91 32.4466 16.5232 31.211L17.3494 28.7373Z" stroke="black"/>
<ellipse cx="22.1364" cy="6.52174" rx="2.73273" ry="2.17391" fill="#6F1B1B"/>
<ellipse cx="22.1364" cy="6.52174" rx="2.73273" ry="2.17391" fill="#6F1B1B"/>
<ellipse cx="22.1364" cy="6.52174" rx="2.73273" ry="2.17391" fill="#6F1B1B"/>
<ellipse cx="50.3746" cy="2.17391" rx="2.73273" ry="2.17391" fill="#6F1B1B"/>
<ellipse cx="50.3746" cy="2.17391" rx="2.73273" ry="2.17391" fill="#6F1B1B"/>
<ellipse cx="50.3746" cy="2.17391" rx="2.73273" ry="2.17391" fill="#F3F824"/>
<ellipse cx="42.1764" cy="4.34783" rx="2.73273" ry="2.17391" fill="#6F1B1B"/>
<ellipse cx="42.1764" cy="4.34783" rx="2.73273" ry="2.17391" fill="#6F1B1B"/>
<ellipse cx="42.1764" cy="4.34783" rx="2.73273" ry="2.17391" fill="#C683E6"/>
<ellipse cx="47.6418" cy="10.8696" rx="2.73273" ry="2.17391" fill="#6F1B1B"/>
<ellipse cx="47.6418" cy="10.8696" rx="2.73273" ry="2.17391" fill="#6F1B1B"/>
<ellipse cx="47.6418" cy="10.8696" rx="2.73273" ry="2.17391" fill="#64E659"/>
<ellipse cx="42.1764" cy="18.8406" rx="2.73273" ry="2.17391" fill="#6F1B1B"/>
<ellipse cx="42.1764" cy="18.8406" rx="2.73273" ry="2.17391" fill="#6F1B1B"/>
<ellipse cx="42.1764" cy="18.8406" rx="2.73273" ry="2.17391" fill="#BE8989"/>
<ellipse cx="31.2455" cy="4.34783" rx="2.73273" ry="2.17391" fill="#6F1B1B"/>
<ellipse cx="31.2455" cy="4.34783" rx="2.73273" ry="2.17391" fill="#6F1B1B"/>
<ellipse cx="31.2455" cy="4.34783" rx="2.73273" ry="2.17391" fill="#6A6A93"/>
<ellipse cx="33.9782" cy="11.5942" rx="2.73273" ry="2.17391" fill="#6F1B1B"/>
<ellipse cx="33.9782" cy="11.5942" rx="2.73273" ry="2.17391" fill="#6F1B1B"/>
<ellipse cx="33.9782" cy="11.5942" rx="2.73273" ry="2.17391" fill="#EF6060"/>
<path d="M65.4824 24.3203V31H63.2324V13.9375H69.5253C71.3925 13.9375 72.8535 14.4141 73.9081 15.3672C74.9706 16.3203 75.5019 17.582 75.5019 19.1523C75.5019 20.8086 74.9824 22.0859 73.9433 22.9844C72.912 23.875 71.4316 24.3203 69.5019 24.3203H65.4824ZM65.4824 22.4805H69.5253C70.7285 22.4805 71.6503 22.1992 72.291 21.6367C72.9316 21.0664 73.2519 20.2461 73.2519 19.1758C73.2519 18.1602 72.9316 17.3477 72.291 16.7383C71.6503 16.1289 70.7714 15.8125 69.6542 15.7891H65.4824V22.4805ZM86.1777 26.5469H79.0292L77.4238 31H75.1035L81.6191 13.9375H83.5878L90.1152 31H87.8066L86.1777 26.5469ZM79.7089 24.6953H85.5097L82.6035 16.7148L79.7089 24.6953ZM98.6699 24.0977H94.662V31H92.4003V13.9375H98.0488C99.9706 13.9375 101.447 14.375 102.478 15.25C103.518 16.125 104.037 17.3984 104.037 19.0703C104.037 20.1328 103.748 21.0586 103.17 21.8477C102.6 22.6367 101.803 23.2266 100.779 23.6172L104.787 30.8594V31H102.373L98.6699 24.0977ZM94.662 22.2578H98.1191C99.2363 22.2578 100.123 21.9688 100.779 21.3906C101.443 20.8125 101.775 20.0391 101.775 19.0703C101.775 18.0156 101.459 17.207 100.826 16.6445C100.201 16.082 99.2949 15.7969 98.1074 15.7891H94.662V22.2578ZM118.053 15.7891H112.568V31H110.33V15.7891H104.857V13.9375H118.053V15.7891ZM125.975 22.5039L130.428 13.9375H132.982L127.1 24.6367V31H124.85V24.6367L118.967 13.9375H121.545L125.975 22.5039Z" fill="black"/>
</svg>
