<svg width="137" height="50" viewBox="0 0 137 50" fill="none" xmlns="http://www.w3.org/2000/svg">
<path d="M61.9805 36V18.9375H67.5586C69.4102 18.9375 70.8008 19.3203 71.7305 20.0859C72.668 20.8516 73.1367 21.9844 73.1367 23.4844C73.1367 24.2812 72.9102 24.9883 72.457 25.6055C72.0039 26.2148 71.3867 26.6875 70.6055 27.0234C71.5273 27.2812 72.2539 27.7734 72.7852 28.5C73.3242 29.2188 73.5938 30.0781 73.5938 31.0781C73.5938 32.6094 73.0977 33.8125 72.1055 34.6875C71.1133 35.5625 69.7109 36 67.8984 36H61.9805ZM64.2305 28.0195V34.1602H67.9453C68.9922 34.1602 69.8164 33.8906 70.418 33.3516C71.0273 32.8047 71.332 32.0547 71.332 31.1016C71.332 29.0469 70.2148 28.0195 67.9805 28.0195H64.2305ZM64.2305 26.2148H67.6289C68.6133 26.2148 69.3984 25.9688 69.9844 25.4766C70.5781 24.9844 70.875 24.3164 70.875 23.4727C70.875 22.5352 70.6016 21.8555 70.0547 21.4336C69.5078 21.0039 68.6758 20.7891 67.5586 20.7891H64.2305V26.2148ZM86.5781 28.1133H79.1836V34.1602H87.7734V36H76.9336V18.9375H87.6562V20.7891H79.1836V26.2734H86.5781V28.1133ZM99.9961 31.5469H92.8477L91.2422 36H88.9219L95.4375 18.9375H97.4062L103.934 36H101.625L99.9961 31.5469ZM93.5273 29.6953H99.3281L96.4219 21.7148L93.5273 29.6953ZM118.641 30.5859C118.43 32.3906 117.762 33.7852 116.637 34.7695C115.52 35.7461 114.031 36.2344 112.172 36.2344C110.156 36.2344 108.539 35.5117 107.32 34.0664C106.109 32.6211 105.504 30.6875 105.504 28.2656V26.625C105.504 25.0391 105.785 23.6445 106.348 22.4414C106.918 21.2383 107.723 20.3164 108.762 19.6758C109.801 19.0273 111.004 18.7031 112.371 18.7031C114.184 18.7031 115.637 19.2109 116.73 20.2266C117.824 21.2344 118.461 22.6328 118.641 24.4219H116.379C116.184 23.0625 115.758 22.0781 115.102 21.4688C114.453 20.8594 113.543 20.5547 112.371 20.5547C110.934 20.5547 109.805 21.0859 108.984 22.1484C108.172 23.2109 107.766 24.7227 107.766 26.6836V28.3359C107.766 30.1875 108.152 31.6602 108.926 32.7539C109.699 33.8477 110.781 34.3945 112.172 34.3945C113.422 34.3945 114.379 34.1133 115.043 33.5508C115.715 32.9805 116.16 31.9922 116.379 30.5859H118.641ZM134.836 36H132.574V28.1133H123.973V36H121.723V18.9375H123.973V26.2734H132.574V18.9375H134.836V36Z" fill="black"/>
<path d="M3.13058 49.5C8.79725 44.5 24.3306 37.5 41.1306 49.5H3.13058Z" fill="#AC775A"/>
<path d="M3.13058 49.5C8.79725 44.5 24.3306 37.5 41.1306 49.5H3.13058Z" fill="url(#paint0_linear)"/>
<path d="M3.13058 49.5C8.79725 44.5 24.3306 37.5 41.1306 49.5H3.13058Z" stroke="black"/>
<path d="M1.13057 37C-0.0694298 25.4 7.29724 20.5 11.1306 19.5C15.1306 18.3333 24.3306 18.6 29.1306 29C24.2365 26.3898 21.4493 28.2596 20.2263 30.2134C19.8589 30.8002 19.0456 31.0579 18.433 30.7353C16.8118 29.8818 15.3614 29.8586 14.1306 30.2747C12.6459 30.7766 11.4807 31.9175 10.7209 33.011C10.3736 33.5108 9.68436 33.6832 9.14842 33.3949C4.5553 30.9243 1.90994 34.6619 1.13057 37Z" fill="#DAFDFF"/>
<path d="M1.13057 37C-0.0694298 25.4 7.29724 20.5 11.1306 19.5C15.1306 18.3333 24.3306 18.6 29.1306 29C24.2365 26.3898 21.4493 28.2596 20.2263 30.2134C19.8589 30.8002 19.0456 31.0579 18.433 30.7353C16.8118 29.8818 15.3614 29.8586 14.1306 30.2747C12.6459 30.7766 11.4807 31.9175 10.7209 33.011C10.3736 33.5108 9.68436 33.6832 9.14842 33.3949C4.5553 30.9243 1.90994 34.6619 1.13057 37Z" fill="url(#paint1_linear)"/>
<path d="M14.1306 30.2747C12.6459 30.7766 11.4807 31.9175 10.7209 33.011C10.3736 33.5108 9.68436 33.6832 9.14842 33.3949C4.5553 30.9243 1.90994 34.6619 1.13057 37C-0.0694298 25.4 7.29724 20.5 11.1306 19.5C15.1306 18.3333 24.3306 18.6 29.1306 29C24.2365 26.3898 21.4493 28.2596 20.2263 30.2134C19.8589 30.8002 19.0456 31.0579 18.433 30.7353C16.8118 29.8818 15.3614 29.8586 14.1306 30.2747ZM14.1306 30.2747L17.6306 43" stroke="black"/>
<circle cx="32.1306" cy="7" r="6.5" fill="#EFA22F" stroke="black"/>
<defs>
<linearGradient id="paint0_linear" x1="28.1306" y1="43" x2="27.1306" y2="47.5" gradientUnits="userSpaceOnUse">
<stop stop-color="#493F3F"/>
<stop offset="0.984375" stop-color="#AC775A"/>
</linearGradient>
<linearGradient id="paint1_linear" x1="15.0653" y1="19.0278" x2="13.6306" y2="23.5" gradientUnits="userSpaceOnUse">
<stop stop-color="#7C9C96"/>
<stop offset="1" stop-color="#DAFDFF"/>
</linearGradient>
</defs>
</svg>
