<svg width="136" height="50" viewBox="0 0 136 50" fill="none" xmlns="http://www.w3.org/2000/svg">
<path d="M60.2662 31.5745V14.512H65.0826C66.567 14.512 67.8795 14.8401 69.0201 15.4963C70.1607 16.1526 71.0396 17.0862 71.6568 18.2971C72.2818 19.5081 72.5982 20.8987 72.606 22.469V23.5588C72.606 25.1682 72.2935 26.5784 71.6685 27.7893C71.0513 29.0002 70.1646 29.9299 69.0084 30.5784C67.8599 31.2268 66.5201 31.5588 64.9888 31.5745H60.2662ZM62.5162 16.3635V29.7346H64.8834C66.6177 29.7346 67.9654 29.1956 68.9263 28.1174C69.8951 27.0393 70.3795 25.5042 70.3795 23.512V22.5159C70.3795 20.5784 69.9224 19.0745 69.0084 18.0042C68.1021 16.926 66.8131 16.3792 65.1412 16.3635H62.5162ZM85.1802 27.1213H78.0318L76.4263 31.5745H74.106L80.6217 14.512H82.5904L89.1177 31.5745H86.8092L85.1802 27.1213ZM78.7115 25.2698H84.5123L81.606 17.2893L78.7115 25.2698ZM93.8287 31.5745H91.5787V14.512H93.8287V31.5745ZM100.215 29.7346H108.301V31.5745H97.9537V14.512H100.215V29.7346ZM113.258 23.0784L117.711 14.512H120.266L114.383 25.2112V31.5745H112.133V25.2112L106.251 14.512H108.829L113.258 23.0784Z" fill="black"/>
<path d="M39.7714 22.3404C39.7714 33.7031 31.1913 42.6809 20.8857 42.6809C10.5801 42.6809 2 33.7031 2 22.3404C2 10.9777 10.5801 2 20.8857 2C31.1913 2 39.7714 10.9777 39.7714 22.3404Z" fill="white" stroke="black" stroke-width="4"/>
<rect x="10.4429" y="13.748" width="20.8857" height="19.9345" rx="3" fill="#FF0000"/>
<rect x="11.7482" y="22.6841" width="18.275" height="9.62356" rx="3" fill="white"/>
<rect x="14.2062" y="11.4984" width="2.26339" height="4.49918" rx="0.5" fill="black" stroke="white"/>
<rect x="24.6491" y="11.4984" width="2.26339" height="4.49918" rx="0.5" fill="black" stroke="white"/>
</svg>
