<svg width="315" height="100" viewBox="0 0 315 100" fill="none" xmlns="http://www.w3.org/2000/svg">
<path d="M39.327 46.176L38.367 44.512L41.951 42.464C44.895 40.8427 46.367 38.2613 46.367 34.72C46.367 28.1067 41.3323 24.8 31.263 24.8H25.375V72.8H23.455V22.88H31.263C36.895 22.88 41.1403 23.9253 43.999 26.016C46.8577 28.064 48.287 30.9653 48.287 34.72C48.287 38.9867 46.495 42.1227 42.911 44.128L39.327 46.176ZM57.33 22.88H59.25V60H57.33V22.88ZM73.2485 56.096C70.9445 53.0667 69.7925 48.1813 69.7925 41.44C69.7925 34.6987 70.9445 29.8133 73.2485 26.784C75.5525 23.7547 79.3712 22.24 84.7045 22.24C90.0378 22.24 93.8778 23.712 96.2245 26.656L94.8165 27.936C92.9392 25.4187 89.5685 24.16 84.7045 24.16C82.5712 24.16 80.7792 24.3947 79.3285 24.864C77.8778 25.2907 76.5338 26.1227 75.2965 27.36C74.1018 28.5547 73.2058 30.3253 72.6085 32.672C72.0112 34.976 71.7125 37.8987 71.7125 41.44C71.7125 44.9813 72.0112 47.9253 72.6085 50.272C73.2058 52.576 74.1018 54.3467 75.2965 55.584C76.5338 56.7787 77.8778 57.6107 79.3285 58.08C80.7792 58.5067 82.5712 58.72 84.7045 58.72C89.5685 58.72 92.9392 57.4613 94.8165 54.944L96.2245 56.224C93.8778 59.168 90.0378 60.64 84.7045 60.64C79.3712 60.64 75.5525 59.1253 73.2485 56.096ZM105.768 60V22.88H107.688V60H105.768ZM129.448 60L109.736 40.416L127.4 22.88H130.152L112.488 40.416L132.2 60H129.448Z" fill="black"/>
<path d="M17.375 69.6H132.648V72.8H17.375V69.6Z" fill="black"/>
<path d="M39.327 46.176L38.4608 46.6757L38.9585 47.5383L39.8231 47.0442L39.327 46.176ZM38.367 44.512L37.8709 43.6438L36.999 44.1419L37.5008 45.0117L38.367 44.512ZM41.951 42.464L41.4686 41.5881L41.4617 41.5918L41.4549 41.5958L41.951 42.464ZM25.375 24.8V23.8H24.375V24.8H25.375ZM25.375 72.8V73.8H26.375V72.8H25.375ZM23.455 72.8H22.455V73.8H23.455V72.8ZM23.455 22.88V21.88H22.455V22.88H23.455ZM43.999 26.016L43.4087 26.8232L43.4166 26.8289L43.999 26.016ZM42.911 44.128L42.4227 43.2553L42.4149 43.2598L42.911 44.128ZM40.1932 45.6763L39.2332 44.0123L37.5008 45.0117L38.4608 46.6757L40.1932 45.6763ZM38.8631 45.3802L42.4471 43.3322L41.4549 41.5958L37.8709 43.6438L38.8631 45.3802ZM42.4334 43.3399C44.0451 42.4523 45.2929 41.2782 46.1317 39.8074C46.9689 38.3392 47.367 36.631 47.367 34.72H45.367C45.367 36.3503 45.0291 37.7034 44.3943 38.8166C43.7611 39.9271 42.8009 40.8543 41.4686 41.5881L42.4334 43.3399ZM47.367 34.72C47.367 31.1156 45.9699 28.3028 43.14 26.4442C40.3833 24.6336 36.3753 23.8 31.263 23.8V25.8C36.22 25.8 39.764 26.6197 42.042 28.1158C44.2467 29.5638 45.367 31.7111 45.367 34.72H47.367ZM31.263 23.8H25.375V25.8H31.263V23.8ZM24.375 24.8V72.8H26.375V24.8H24.375ZM25.375 71.8H23.455V73.8H25.375V71.8ZM24.455 72.8V22.88H22.455V72.8H24.455ZM23.455 23.88H31.263V21.88H23.455V23.88ZM31.263 23.88C36.7987 23.88 40.7958 24.9123 43.4087 26.8232L44.5893 25.2088C41.4848 22.9384 36.9913 21.88 31.263 21.88V23.88ZM43.4166 26.8289C45.993 28.6747 47.287 31.2622 47.287 34.72H49.287C49.287 30.6685 47.7223 27.4533 44.5814 25.2031L43.4166 26.8289ZM47.287 34.72C47.287 36.711 46.8699 38.3843 46.0748 39.7759C45.2807 41.1655 44.0784 42.3289 42.4227 43.2553L43.3993 45.0007C45.3276 43.9217 46.8133 42.5145 47.8112 40.7681C48.8081 39.0237 49.287 36.9957 49.287 34.72H47.287ZM42.4149 43.2598L38.8309 45.3078L39.8231 47.0442L43.4071 44.9962L42.4149 43.2598ZM57.33 22.88V21.88H56.33V22.88H57.33ZM59.25 22.88H60.25V21.88H59.25V22.88ZM59.25 60V61H60.25V60H59.25ZM57.33 60H56.33V61H57.33V60ZM57.33 23.88H59.25V21.88H57.33V23.88ZM58.25 22.88V60H60.25V22.88H58.25ZM59.25 59H57.33V61H59.25V59ZM58.33 60V22.88H56.33V60H58.33ZM73.2485 56.096L74.0444 55.4906L74.0444 55.4906L73.2485 56.096ZM73.2485 26.784L72.4526 26.1786L72.4526 26.1786L73.2485 26.784ZM96.2245 26.656L96.8972 27.3959L97.5906 26.7655L97.0065 26.0327L96.2245 26.656ZM94.8165 27.936L94.0149 28.5338L94.6737 29.4173L95.4892 28.6759L94.8165 27.936ZM79.3285 24.864L79.6107 25.8234L79.6235 25.8196L79.6363 25.8154L79.3285 24.864ZM75.2965 27.36L74.5894 26.6529L74.5894 26.6529L75.2965 27.36ZM72.6085 32.672L73.5765 32.923L73.5776 32.9187L72.6085 32.672ZM72.6085 50.272L71.6394 50.5187L71.6405 50.523L72.6085 50.272ZM75.2965 55.584L74.5771 56.2786L74.5893 56.2912L74.6019 56.3034L75.2965 55.584ZM79.3285 58.08L79.0207 59.0314L79.0335 59.0356L79.0463 59.0394L79.3285 58.08ZM94.8165 54.944L95.4892 54.2041L94.6737 53.4627L94.0149 54.3462L94.8165 54.944ZM96.2245 56.224L97.0065 56.8473L97.5906 56.1145L96.8972 55.4841L96.2245 56.224ZM74.0444 55.4906C71.9413 52.7254 70.7925 48.1123 70.7925 41.44H68.7925C68.7925 48.2503 69.9477 53.4079 72.4526 56.7014L74.0444 55.4906ZM70.7925 41.44C70.7925 34.7677 71.9413 30.1546 74.0444 27.3894L72.4526 26.1786C69.9477 29.4721 68.7925 34.6297 68.7925 41.44H70.7925ZM74.0444 27.3894C76.0911 24.6983 79.5504 23.24 84.7045 23.24V21.24C79.1919 21.24 75.0139 22.811 72.4526 26.1786L74.0444 27.3894ZM84.7045 23.24C89.8665 23.24 93.3554 24.6609 95.4425 27.2793L97.0065 26.0327C94.4003 22.7631 90.2092 21.24 84.7045 21.24V23.24ZM95.5518 25.9161L94.1438 27.1961L95.4892 28.6759L96.8972 27.3959L95.5518 25.9161ZM95.6181 27.3382C93.4665 24.4531 89.7068 23.16 84.7045 23.16V25.16C89.4302 25.16 92.4118 26.3842 94.0149 28.5338L95.6181 27.3382ZM84.7045 23.16C82.505 23.16 80.6017 23.4011 79.0207 23.9126L79.6363 25.8154C80.9567 25.3883 82.6373 25.16 84.7045 25.16V23.16ZM79.0463 23.9046C77.4115 24.3855 75.9263 25.316 74.5894 26.6529L76.0036 28.0671C77.1414 26.9293 78.3442 26.1959 79.6107 25.8234L79.0463 23.9046ZM74.5894 26.6529C73.2241 28.0182 72.2629 29.9757 71.6394 32.4253L73.5776 32.9187C74.1487 30.675 74.9796 29.0911 76.0036 28.0671L74.5894 26.6529ZM71.6405 32.421C71.0143 34.8363 70.7125 37.8509 70.7125 41.44H72.7125C72.7125 37.9464 73.008 35.1157 73.5765 32.923L71.6405 32.421ZM70.7125 41.44C70.7125 45.03 71.0145 48.0636 71.6394 50.5187L73.5776 50.0253C73.0079 47.787 72.7125 44.9327 72.7125 41.44H70.7125ZM71.6405 50.523C72.2653 52.9328 73.2255 54.8787 74.5771 56.2786L76.0159 54.8894C74.9782 53.8146 74.1464 52.2192 73.5765 50.021L71.6405 50.523ZM74.6019 56.3034C75.9347 57.5902 77.4075 58.5095 79.0207 59.0314L79.6363 57.1286C78.3482 56.7118 77.133 55.9671 75.9911 54.8646L74.6019 56.3034ZM79.0463 59.0394C80.6176 59.5015 82.5115 59.72 84.7045 59.72V57.72C82.6308 57.72 80.9407 57.5118 79.6107 57.1206L79.0463 59.0394ZM84.7045 59.72C89.7068 59.72 93.4665 58.4269 95.6181 55.5418L94.0149 54.3462C92.4118 56.4958 89.4302 57.72 84.7045 57.72V59.72ZM94.1438 55.6839L95.5518 56.9639L96.8972 55.4841L95.4892 54.2041L94.1438 55.6839ZM95.4425 55.6007C93.3554 58.2191 89.8665 59.64 84.7045 59.64V61.64C90.2092 61.64 94.4003 60.1169 97.0065 56.8473L95.4425 55.6007ZM84.7045 59.64C79.5504 59.64 76.0911 58.1817 74.0444 55.4906L72.4526 56.7014C75.0139 60.069 79.1919 61.64 84.7045 61.64V59.64ZM105.768 60H104.768V61H105.768V60ZM105.768 22.88V21.88H104.768V22.88H105.768ZM107.688 22.88H108.688V21.88H107.688V22.88ZM107.688 60V61H108.688V60H107.688ZM129.448 60L128.743 60.7094L129.035 61H129.448V60ZM109.736 40.416L109.031 39.7063L108.316 40.4157L109.031 41.1254L109.736 40.416ZM127.4 22.88V21.88H126.987L126.695 22.1703L127.4 22.88ZM130.152 22.88L130.856 23.5897L132.578 21.88H130.152V22.88ZM112.488 40.416L111.783 39.7063L111.068 40.4157L111.783 41.1254L112.488 40.416ZM132.2 60V61H134.625L132.904 59.2906L132.2 60ZM106.768 60V22.88H104.768V60H106.768ZM105.768 23.88H107.688V21.88H105.768V23.88ZM106.688 22.88V60H108.688V22.88H106.688ZM107.688 59H105.768V61H107.688V59ZM130.152 59.2906L110.44 39.7066L109.031 41.1254L128.743 60.7094L130.152 59.2906ZM110.44 41.1257L128.104 23.5897L126.695 22.1703L109.031 39.7063L110.44 41.1257ZM127.4 23.88H130.152V21.88H127.4V23.88ZM129.447 22.1703L111.783 39.7063L113.192 41.1257L130.856 23.5897L129.447 22.1703ZM111.783 41.1254L131.495 60.7094L132.904 59.2906L113.192 39.7066L111.783 41.1254ZM132.2 59H129.448V61H132.2V59Z" fill="black"/>
<path d="M17.375 69.6V68.6H16.375V69.6H17.375ZM132.648 69.6H133.648V68.6H132.648V69.6ZM132.648 72.8V73.8H133.648V72.8H132.648ZM17.375 72.8H16.375V73.8H17.375V72.8ZM17.375 70.6H132.648V68.6H17.375V70.6ZM131.648 69.6V72.8H133.648V69.6H131.648ZM132.648 71.8H17.375V73.8H132.648V71.8ZM18.375 72.8V69.6H16.375V72.8H18.375Z" fill="black"/>
<path d="M145.163 60H140.299V22.88H145.163C151.477 22.88 156.512 24.544 160.267 27.872C164.021 31.2 165.899 35.7227 165.899 41.44C165.899 47.1573 164.021 51.68 160.267 55.008C156.512 58.336 151.477 60 145.163 60ZM145.163 58.08C150.923 58.08 155.488 56.608 158.859 53.664C162.272 50.72 163.979 46.6453 163.979 41.44C163.979 36.2347 162.272 32.16 158.859 29.216C155.488 26.272 150.923 24.8 145.163 24.8H142.219V58.08H145.163ZM191.29 41.376L199.994 60H197.882L188.922 40.8C189.007 40.7573 189.37 40.5867 190.01 40.288C190.692 39.9467 191.162 39.712 191.418 39.584C191.674 39.4133 192.1 39.136 192.698 38.752C193.295 38.368 193.743 38.0053 194.042 37.664C194.34 37.28 194.66 36.8533 195.002 36.384C195.386 35.872 195.663 35.3173 195.834 34.72C196.004 34.08 196.09 33.3973 196.09 32.672C196.09 29.984 194.81 28 192.25 26.72C189.69 25.44 186.511 24.8 182.714 24.8H177.594V60H175.674V22.88H182.714C187.748 22.88 191.546 23.7547 194.106 25.504C196.708 27.2533 198.01 29.6427 198.01 32.672C198.01 34.6347 197.348 36.384 196.026 37.92C194.703 39.4133 193.124 40.5653 191.29 41.376ZM233.506 56.224C231.159 59.168 227.319 60.64 221.986 60.64C216.652 60.64 212.834 59.1253 210.53 56.096C208.226 53.0667 207.074 48.1813 207.074 41.44C207.074 34.6987 208.226 29.8133 210.53 26.784C212.834 23.7547 216.652 22.24 221.986 22.24C228.172 22.24 232.375 24.2667 234.594 28.32L218.914 41.44H215.906L232.098 27.936C230.22 25.4187 226.85 24.16 221.986 24.16C219.852 24.16 218.06 24.3947 216.61 24.864C215.159 25.2907 213.815 26.1227 212.578 27.36C211.383 28.5547 210.487 30.3253 209.89 32.672C209.292 34.976 208.994 37.8987 208.994 41.44C208.994 44.9813 209.292 47.9253 209.89 50.272C210.487 52.576 211.383 54.3467 212.578 55.584C213.815 56.7787 215.159 57.6107 216.61 58.08C218.06 58.5067 219.852 58.72 221.986 58.72C226.85 58.72 230.22 57.4613 232.098 54.944L233.506 56.224ZM253.528 22.112C258.819 22.112 262.574 23.2853 264.792 25.632L263.512 27.04C261.464 25.0347 258.222 24.032 253.784 24.032C247.128 24.032 243.8 26.6773 243.8 31.968C243.8 34.016 244.611 35.6587 246.232 36.896C247.854 38.0907 249.816 39.008 252.12 39.648C254.467 40.288 256.792 40.9707 259.096 41.696C261.443 42.3787 263.427 43.5093 265.048 45.088C266.67 46.624 267.48 48.6507 267.48 51.168C267.48 54.112 266.264 56.4587 263.832 58.208C261.4 59.9573 257.88 60.832 253.272 60.832C251.011 60.832 248.771 60.5333 246.552 59.936C244.376 59.3387 242.755 58.464 241.688 57.312L242.968 55.904C245.144 57.9093 248.494 58.912 253.016 58.912C257.155 58.912 260.27 58.144 262.36 56.608C264.494 55.072 265.56 53.28 265.56 51.232C265.56 49.0987 264.75 47.3707 263.128 46.048C261.507 44.7253 259.523 43.744 257.176 43.104C254.872 42.4213 252.547 41.7387 250.2 41.056C247.896 40.3307 245.934 39.2213 244.312 37.728C242.691 36.2347 241.88 34.272 241.88 31.84C241.88 28.5547 242.968 26.1227 245.144 24.544C247.363 22.9227 250.158 22.112 253.528 22.112ZM286.591 22.112C291.881 22.112 295.636 23.2853 297.855 25.632L296.575 27.04C294.527 25.0347 291.284 24.032 286.847 24.032C280.191 24.032 276.863 26.6773 276.863 31.968C276.863 34.016 277.673 35.6587 279.295 36.896C280.916 38.0907 282.879 39.008 285.183 39.648C287.529 40.288 289.855 40.9707 292.159 41.696C294.505 42.3787 296.489 43.5093 298.111 45.088C299.732 46.624 300.543 48.6507 300.543 51.168C300.543 54.112 299.327 56.4587 296.895 58.208C294.463 59.9573 290.943 60.832 286.335 60.832C284.073 60.832 281.833 60.5333 279.615 59.936C277.439 59.3387 275.817 58.464 274.751 57.312L276.031 55.904C278.207 57.9093 281.556 58.912 286.079 58.912C290.217 58.912 293.332 58.144 295.423 56.608C297.556 55.072 298.623 53.28 298.623 51.232C298.623 49.0987 297.812 47.3707 296.191 46.048C294.569 44.7253 292.585 43.744 290.239 43.104C287.935 42.4213 285.609 41.7387 283.263 41.056C280.959 40.3307 278.996 39.2213 277.375 37.728C275.753 36.2347 274.943 34.272 274.943 31.84C274.943 28.5547 276.031 26.1227 278.207 24.544C280.425 22.9227 283.22 22.112 286.591 22.112Z" fill="#8B0000"/>
<path d="M134.219 69.6H303.807V72.8H134.219V69.6Z" fill="#8B0000"/>
<path d="M140.299 60H139.299V61H140.299V60ZM140.299 22.88V21.88H139.299V22.88H140.299ZM160.267 27.872L159.603 28.6203L159.603 28.6203L160.267 27.872ZM160.267 55.008L159.603 54.2597L159.603 54.2597L160.267 55.008ZM158.859 53.664L158.206 52.9067L158.201 52.9108L158.859 53.664ZM158.859 29.216L158.201 29.9692L158.206 29.9732L158.859 29.216ZM142.219 24.8V23.8H141.219V24.8H142.219ZM142.219 58.08H141.219V59.08H142.219V58.08ZM145.163 59H140.299V61H145.163V59ZM141.299 60V22.88H139.299V60H141.299ZM140.299 23.88H145.163V21.88H140.299V23.88ZM145.163 23.88C151.298 23.88 156.075 25.4932 159.603 28.6203L160.93 27.1237C156.949 23.5948 151.656 21.88 145.163 21.88V23.88ZM159.603 28.6203C163.113 31.731 164.899 35.9645 164.899 41.44H166.899C166.899 35.4808 164.93 30.669 160.93 27.1237L159.603 28.6203ZM164.899 41.44C164.899 46.9155 163.113 51.149 159.603 54.2597L160.93 55.7563C164.93 52.211 166.899 47.3992 166.899 41.44H164.899ZM159.603 54.2597C156.075 57.3868 151.298 59 145.163 59V61C151.656 61 156.949 59.2852 160.93 55.7563L159.603 54.2597ZM145.163 59.08C151.093 59.08 155.916 57.5616 159.517 54.4172L158.201 52.9108C155.06 55.6544 150.752 57.08 145.163 57.08V59.08ZM159.512 54.4212C163.181 51.2569 164.979 46.8862 164.979 41.44H162.979C162.979 46.4045 161.363 50.1831 158.206 52.9068L159.512 54.4212ZM164.979 41.44C164.979 35.9938 163.181 31.6231 159.512 28.4587L158.206 29.9732C161.363 32.6969 162.979 36.4755 162.979 41.44H164.979ZM159.517 28.4628C155.916 25.3184 151.093 23.8 145.163 23.8V25.8C150.752 25.8 155.06 27.2256 158.201 29.9692L159.517 28.4628ZM145.163 23.8H142.219V25.8H145.163V23.8ZM141.219 24.8V58.08H143.219V24.8H141.219ZM142.219 59.08H145.163V57.08H142.219V59.08ZM191.29 41.376L190.886 40.4613L189.951 40.8741L190.384 41.7994L191.29 41.376ZM199.994 60V61H201.565L200.9 59.5766L199.994 60ZM197.882 60L196.976 60.4229L197.245 61H197.882V60ZM188.922 40.8L188.475 39.9056L187.604 40.3409L188.016 41.2229L188.922 40.8ZM190.01 40.288L190.433 41.1942L190.445 41.1885L190.457 41.1824L190.01 40.288ZM191.418 39.584L191.865 40.4784L191.921 40.4506L191.972 40.416L191.418 39.584ZM192.698 38.752L193.239 39.5932L193.239 39.5932L192.698 38.752ZM194.042 37.664L194.794 38.3225L194.813 38.3008L194.831 38.2779L194.042 37.664ZM195.002 36.384L194.202 35.784L194.197 35.7899L194.193 35.7958L195.002 36.384ZM195.834 34.72L196.795 34.9947L196.798 34.9862L196.8 34.9777L195.834 34.72ZM192.25 26.72L192.697 25.8256L192.697 25.8256L192.25 26.72ZM177.594 24.8V23.8H176.594V24.8H177.594ZM177.594 60V61H178.594V60H177.594ZM175.674 60H174.674V61H175.674V60ZM175.674 22.88V21.88H174.674V22.88H175.674ZM194.106 25.504L193.542 26.3297L193.548 26.3339L194.106 25.504ZM196.026 37.92L196.774 38.5831L196.784 38.5725L196.026 37.92ZM190.384 41.7994L199.088 60.4234L200.9 59.5766L192.196 40.9526L190.384 41.7994ZM199.994 59H197.882V61H199.994V59ZM198.788 59.5771L189.828 40.3771L188.016 41.2229L196.976 60.4229L198.788 59.5771ZM189.369 41.6944C189.439 41.6596 189.784 41.4971 190.433 41.1942L189.587 39.3818C188.956 39.6763 188.576 39.8551 188.475 39.9056L189.369 41.6944ZM190.457 41.1824C191.14 40.8411 191.609 40.6064 191.865 40.4784L190.971 38.6896C190.715 38.8176 190.245 39.0522 189.563 39.3936L190.457 41.1824ZM191.972 40.416C192.221 40.2504 192.641 39.977 193.239 39.5932L192.157 37.9108C191.559 38.295 191.127 38.5762 190.863 38.752L191.972 40.416ZM193.239 39.5932C193.876 39.1837 194.409 38.7624 194.794 38.3225L193.289 37.0055C193.077 37.2482 192.715 37.5523 192.157 37.9108L193.239 39.5932ZM194.831 38.2779C195.137 37.884 195.464 37.4486 195.81 36.9722L194.193 35.7958C193.857 36.2581 193.543 36.676 193.252 37.0501L194.831 38.2779ZM195.802 36.984C196.257 36.3773 196.59 35.713 196.795 34.9947L194.872 34.4453C194.736 34.9217 194.515 35.3667 194.202 35.784L195.802 36.984ZM196.8 34.9777C196.995 34.2461 197.09 33.4761 197.09 32.672H195.09C195.09 33.3185 195.014 33.9139 194.868 34.4623L196.8 34.9777ZM197.09 32.672C197.09 31.1631 196.728 29.801 195.97 28.6259C195.214 27.4543 194.103 26.5287 192.697 25.8256L191.803 27.6144C192.956 28.1913 193.765 28.8977 194.289 29.7101C194.811 30.519 195.09 31.4929 195.09 32.672H197.09ZM192.697 25.8256C189.96 24.4573 186.618 23.8 182.714 23.8V25.8C186.404 25.8 189.419 26.4227 191.803 27.6144L192.697 25.8256ZM182.714 23.8H177.594V25.8H182.714V23.8ZM176.594 24.8V60H178.594V24.8H176.594ZM177.594 59H175.674V61H177.594V59ZM176.674 60V22.88H174.674V60H176.674ZM175.674 23.88H182.714V21.88H175.674V23.88ZM182.714 23.88C187.661 23.88 191.222 24.7447 193.542 26.3296L194.67 24.6784C191.869 22.7646 187.835 21.88 182.714 21.88V23.88ZM193.548 26.3339C195.886 27.9053 197.01 29.9895 197.01 32.672H199.01C199.01 29.2959 197.531 26.6013 194.664 24.674L193.548 26.3339ZM197.01 32.672C197.01 34.3867 196.44 35.9065 195.268 37.2675L196.784 38.5725C198.257 36.8615 199.01 34.8826 199.01 32.672H197.01ZM195.277 37.257C194.05 38.642 192.589 39.7085 190.886 40.4613L191.694 42.2907C193.659 41.4222 195.356 40.1847 196.774 38.583L195.277 37.257ZM233.506 56.224L234.288 56.8473L234.872 56.1145L234.178 55.4841L233.506 56.224ZM210.53 56.096L211.326 55.4906L211.326 55.4906L210.53 56.096ZM210.53 26.784L209.734 26.1786L209.734 26.1786L210.53 26.784ZM234.594 28.32L235.235 29.0869L235.865 28.5601L235.471 27.8399L234.594 28.32ZM218.914 41.44V42.44H219.277L219.555 42.2069L218.914 41.44ZM215.906 41.44L215.265 40.672L213.145 42.44H215.906V41.44ZM232.098 27.936L232.738 28.704L233.466 28.0974L232.899 27.3382L232.098 27.936ZM216.61 24.864L216.892 25.8234L216.905 25.8196L216.918 25.8154L216.61 24.864ZM212.578 27.36L211.871 26.6529L211.871 26.6529L212.578 27.36ZM209.89 32.672L210.858 32.923L210.859 32.9187L209.89 32.672ZM209.89 50.272L208.921 50.5187L208.922 50.523L209.89 50.272ZM212.578 55.584L211.858 56.2786L211.871 56.2912L211.883 56.3034L212.578 55.584ZM216.61 58.08L216.302 59.0314L216.315 59.0356L216.328 59.0394L216.61 58.08ZM232.098 54.944L232.77 54.2041L231.955 53.4627L231.296 54.3462L232.098 54.944ZM232.724 55.6007C230.637 58.2191 227.148 59.64 221.986 59.64V61.64C227.49 61.64 231.682 60.1169 234.288 56.8473L232.724 55.6007ZM221.986 59.64C216.832 59.64 213.372 58.1817 211.326 55.4906L209.734 56.7014C212.295 60.069 216.473 61.64 221.986 61.64V59.64ZM211.326 55.4906C209.223 52.7254 208.074 48.1123 208.074 41.44H206.074C206.074 48.2503 207.229 53.4079 209.734 56.7014L211.326 55.4906ZM208.074 41.44C208.074 34.7677 209.223 30.1546 211.326 27.3894L209.734 26.1786C207.229 29.4721 206.074 34.6297 206.074 41.44H208.074ZM211.326 27.3894C213.372 24.6983 216.832 23.24 221.986 23.24V21.24C216.473 21.24 212.295 22.811 209.734 26.1786L211.326 27.3894ZM221.986 23.24C227.949 23.24 231.732 25.1752 233.717 28.8001L235.471 27.8399C233.018 23.3581 228.396 21.24 221.986 21.24V23.24ZM233.952 27.5531L218.272 40.6731L219.555 42.2069L235.235 29.0869L233.952 27.5531ZM218.914 40.44H215.906V42.44H218.914V40.44ZM216.546 42.208L232.738 28.704L231.457 27.168L215.265 40.672L216.546 42.208ZM232.899 27.3382C230.748 24.4531 226.988 23.16 221.986 23.16V25.16C226.711 25.16 229.693 26.3842 231.296 28.5338L232.899 27.3382ZM221.986 23.16C219.786 23.16 217.883 23.4011 216.302 23.9126L216.918 25.8154C218.238 25.3883 219.919 25.16 221.986 25.16V23.16ZM216.328 23.9046C214.693 24.3855 213.208 25.316 211.871 26.6529L213.285 28.0671C214.423 26.9293 215.625 26.1959 216.892 25.8234L216.328 23.9046ZM211.871 26.6529C210.505 28.0182 209.544 29.9757 208.921 32.4253L210.859 32.9187C211.43 30.675 212.261 29.0911 213.285 28.0671L211.871 26.6529ZM208.922 32.421C208.296 34.8363 207.994 37.8509 207.994 41.44H209.994C209.994 37.9464 210.289 35.1157 210.858 32.923L208.922 32.421ZM207.994 41.44C207.994 45.03 208.296 48.0636 208.921 50.5187L210.859 50.0253C210.289 47.787 209.994 44.9327 209.994 41.44H207.994ZM208.922 50.523C209.547 52.9328 210.507 54.8787 211.858 56.2786L213.297 54.8894C212.259 53.8146 211.428 52.2192 210.858 50.021L208.922 50.523ZM211.883 56.3034C213.216 57.5902 214.689 58.5095 216.302 59.0314L216.918 57.1286C215.629 56.7118 214.414 55.9671 213.272 54.8646L211.883 56.3034ZM216.328 59.0394C217.899 59.5015 219.793 59.72 221.986 59.72V57.72C219.912 57.72 218.222 57.5118 216.892 57.1206L216.328 59.0394ZM221.986 59.72C226.988 59.72 230.748 58.4269 232.899 55.5418L231.296 54.3462C229.693 56.4958 226.711 57.72 221.986 57.72V59.72ZM231.425 55.6839L232.833 56.9639L234.178 55.4841L232.77 54.2041L231.425 55.6839ZM264.792 25.632L265.532 26.3047L266.156 25.6187L265.519 24.945L264.792 25.632ZM263.512 27.04L262.813 27.7545L263.554 28.4805L264.252 27.7127L263.512 27.04ZM246.232 36.896L245.626 37.6909L245.632 37.6961L245.639 37.7011L246.232 36.896ZM252.12 39.648L251.853 40.6115L251.857 40.6128L252.12 39.648ZM259.096 41.696L258.796 42.6498L258.806 42.6531L258.817 42.6562L259.096 41.696ZM265.048 45.088L264.351 45.8045L264.361 45.814L265.048 45.088ZM263.832 58.208L263.248 57.3962L263.248 57.3962L263.832 58.208ZM246.552 59.936L246.288 60.9003L246.292 60.9016L246.552 59.936ZM241.688 57.312L240.948 56.6393L240.331 57.3182L240.954 57.9914L241.688 57.312ZM242.968 55.904L243.646 55.1686L242.906 54.4863L242.228 55.2313L242.968 55.904ZM262.36 56.608L261.776 55.7964L261.768 55.8021L262.36 56.608ZM263.128 46.048L263.76 45.2731L263.76 45.2731L263.128 46.048ZM257.176 43.104L256.892 44.0628L256.903 44.0659L256.913 44.0688L257.176 43.104ZM250.2 41.056L249.9 42.0098L249.91 42.0131L249.921 42.0162L250.2 41.056ZM244.312 37.728L243.635 38.4635L244.312 37.728ZM245.144 24.544L245.731 25.3534L245.734 25.3514L245.144 24.544ZM253.528 23.112C258.713 23.112 262.127 24.2683 264.066 26.319L265.519 24.945C263.02 22.3024 258.925 21.112 253.528 21.112V23.112ZM264.052 24.9593L262.772 26.3673L264.252 27.7127L265.532 26.3047L264.052 24.9593ZM264.212 26.3255C261.897 24.0585 258.344 23.032 253.784 23.032V25.032C258.099 25.032 261.032 26.0108 262.813 27.7545L264.212 26.3255ZM253.784 23.032C250.351 23.032 247.59 23.7099 245.674 25.2332C243.714 26.7913 242.8 29.0997 242.8 31.968H244.8C244.8 29.5456 245.551 27.8861 246.918 26.7988C248.33 25.6768 250.562 25.032 253.784 25.032V23.032ZM242.8 31.968C242.8 34.3263 243.755 36.2635 245.626 37.6909L246.839 36.101C245.467 35.0538 244.8 33.7057 244.8 31.968H242.8ZM245.639 37.7011C247.375 38.98 249.453 39.9449 251.853 40.6115L252.388 38.6845C250.18 38.0711 248.332 37.2013 246.825 36.0909L245.639 37.7011ZM251.857 40.6128C254.191 41.2494 256.504 41.9284 258.796 42.6498L259.397 40.7421C257.08 40.0129 254.742 39.3266 252.383 38.6832L251.857 40.6128ZM258.817 42.6562C261.019 43.2969 262.856 44.3491 264.351 45.8045L265.746 44.3715C263.998 42.6696 261.867 41.4605 259.376 40.7358L258.817 42.6562ZM264.361 45.814C265.756 47.1362 266.48 48.8868 266.48 51.168H268.48C268.48 48.4145 267.583 46.1118 265.736 44.362L264.361 45.814ZM266.48 51.168C266.48 53.7835 265.425 55.8308 263.248 57.3962L264.416 59.0198C267.104 57.0865 268.48 54.4404 268.48 51.168H266.48ZM263.248 57.3962C261.056 58.9733 257.776 59.832 253.272 59.832V61.832C257.984 61.832 261.745 60.9414 264.416 59.0198L263.248 57.3962ZM253.272 59.832C251.1 59.832 248.947 59.5453 246.812 58.9704L246.292 60.9016C248.594 61.5214 250.922 61.832 253.272 61.832V59.832ZM246.817 58.9717C244.746 58.4033 243.318 57.6004 242.422 56.6326L240.954 57.9914C242.192 59.3276 244.006 60.2741 246.288 60.9003L246.817 58.9717ZM242.428 57.9847L243.708 56.5767L242.228 55.2313L240.948 56.6393L242.428 57.9847ZM242.291 56.6394C244.728 58.8855 248.371 59.912 253.016 59.912V57.912C248.616 57.912 245.561 56.9331 243.646 55.1686L242.291 56.6394ZM253.016 59.912C257.251 59.912 260.615 59.1312 262.952 57.4139L261.768 55.8021C259.924 57.1568 257.059 57.912 253.016 57.912V59.912ZM262.945 57.4195C265.257 55.7546 266.56 53.6908 266.56 51.232H264.56C264.56 52.8692 263.73 54.3894 261.776 55.7965L262.945 57.4195ZM266.56 51.232C266.56 48.805 265.62 46.79 263.76 45.2731L262.496 46.8229C263.879 47.9513 264.56 49.3923 264.56 51.232H266.56ZM263.76 45.2731C262.014 43.8488 259.899 42.8101 257.439 42.1392L256.913 44.0688C259.147 44.6779 260.999 45.6018 262.496 46.8229L263.76 45.2731ZM257.46 42.1452C255.155 41.4621 252.828 40.7789 250.48 40.0958L249.921 42.0162C252.266 42.6984 254.59 43.3806 256.892 44.0628L257.46 42.1452ZM250.501 40.1022C248.323 39.4167 246.493 38.3769 244.99 36.9925L243.635 38.4635C245.374 40.0657 247.469 41.2446 249.9 42.0098L250.501 40.1022ZM244.99 36.9925C243.596 35.7092 242.88 34.0246 242.88 31.84H240.88C240.88 34.5194 241.785 36.7602 243.635 38.4635L244.99 36.9925ZM242.88 31.84C242.88 28.795 243.873 26.7015 245.731 25.3534L244.557 23.7346C242.063 25.5439 240.88 28.3143 240.88 31.84H242.88ZM245.734 25.3514C247.746 23.8813 250.321 23.112 253.528 23.112V21.112C249.994 21.112 246.98 21.964 244.554 23.7366L245.734 25.3514ZM297.855 25.632L298.595 26.3047L299.218 25.6187L298.581 24.945L297.855 25.632ZM296.575 27.04L295.875 27.7545L296.617 28.4805L297.315 27.7127L296.575 27.04ZM279.295 36.896L278.688 37.6909L278.695 37.6961L278.702 37.7011L279.295 36.896ZM285.183 39.648L284.915 40.6115L284.92 40.6128L285.183 39.648ZM292.159 41.696L291.858 42.6498L291.869 42.6531L291.879 42.6562L292.159 41.696ZM298.111 45.088L297.413 45.8045L297.423 45.814L298.111 45.088ZM296.895 58.208L296.311 57.3962L296.311 57.3962L296.895 58.208ZM279.615 59.936L279.35 60.9003L279.355 60.9016L279.615 59.936ZM274.751 57.312L274.011 56.6393L273.394 57.3182L274.017 57.9914L274.751 57.312ZM276.031 55.904L276.708 55.1686L275.968 54.4863L275.291 55.2313L276.031 55.904ZM295.423 56.608L294.838 55.7964L294.831 55.8021L295.423 56.608ZM296.191 46.048L296.823 45.2731L296.823 45.2731L296.191 46.048ZM290.239 43.104L289.955 44.0628L289.965 44.0659L289.976 44.0688L290.239 43.104ZM283.263 41.056L282.962 42.0098L282.973 42.0131L282.983 42.0162L283.263 41.056ZM277.375 37.728L276.697 38.4635L277.375 37.728ZM278.207 24.544L278.794 25.3534L278.797 25.3514L278.207 24.544ZM286.591 23.112C291.775 23.112 295.189 24.2683 297.128 26.319L298.581 24.945C296.083 22.3024 291.988 21.112 286.591 21.112V23.112ZM297.115 24.9593L295.835 26.3673L297.315 27.7127L298.595 26.3047L297.115 24.9593ZM297.274 26.3255C294.959 24.0585 291.406 23.032 286.847 23.032V25.032C291.162 25.032 294.094 26.0108 295.875 27.7545L297.274 26.3255ZM286.847 23.032C283.413 23.032 280.653 23.7099 278.737 25.2332C276.776 26.7913 275.863 29.0997 275.863 31.968H277.863C277.863 29.5456 278.613 27.8861 279.981 26.7988C281.393 25.6768 283.624 25.032 286.847 25.032V23.032ZM275.863 31.968C275.863 34.3263 276.818 36.2635 278.688 37.6909L279.901 36.101C278.529 35.0538 277.863 33.7057 277.863 31.968H275.863ZM278.702 37.7011C280.437 38.98 282.515 39.9449 284.915 40.6115L285.45 38.6845C283.242 38.0711 281.395 37.2013 279.888 36.0909L278.702 37.7011ZM284.92 40.6128C287.254 41.2494 289.567 41.9284 291.858 42.6498L292.459 40.7421C290.143 40.0129 287.805 39.3266 285.446 38.6832L284.92 40.6128ZM291.879 42.6562C294.082 43.2969 295.918 44.3491 297.413 45.8045L298.808 44.3715C297.06 42.6696 294.929 41.4605 292.438 40.7358L291.879 42.6562ZM297.423 45.814C298.819 47.1362 299.543 48.8868 299.543 51.168H301.543C301.543 48.4145 300.645 46.1118 298.798 44.362L297.423 45.814ZM299.543 51.168C299.543 53.7835 298.487 55.8308 296.311 57.3962L297.479 59.0198C300.166 57.0865 301.543 54.4404 301.543 51.168H299.543ZM296.311 57.3962C294.118 58.9733 290.839 59.832 286.335 59.832V61.832C291.047 61.832 294.807 60.9414 297.479 59.0198L296.311 57.3962ZM286.335 59.832C284.163 59.832 282.01 59.5453 279.875 58.9704L279.355 60.9016C281.657 61.5214 283.984 61.832 286.335 61.832V59.832ZM279.879 58.9717C277.809 58.4033 276.381 57.6004 275.485 56.6326L274.017 57.9914C275.254 59.3276 277.069 60.2741 279.35 60.9003L279.879 58.9717ZM275.491 57.9847L276.771 56.5767L275.291 55.2313L274.011 56.6393L275.491 57.9847ZM275.353 56.6394C277.79 58.8855 281.434 59.912 286.079 59.912V57.912C281.679 57.912 278.623 56.9331 276.708 55.1686L275.353 56.6394ZM286.079 59.912C290.313 59.912 293.677 59.1312 296.015 57.4139L294.831 55.8021C292.987 57.1568 290.122 57.912 286.079 57.912V59.912ZM296.007 57.4195C298.319 55.7546 299.623 53.6908 299.623 51.232H297.623C297.623 52.8692 296.793 54.3894 294.838 55.7965L296.007 57.4195ZM299.623 51.232C299.623 48.805 298.682 46.79 296.823 45.2731L295.559 46.8229C296.942 47.9513 297.623 49.3923 297.623 51.232H299.623ZM296.823 45.2731C295.077 43.8488 292.962 42.8101 290.502 42.1392L289.976 44.0688C292.209 44.6779 294.062 45.6018 295.559 46.8229L296.823 45.2731ZM290.523 42.1452C288.217 41.4621 285.89 40.7789 283.542 40.0958L282.983 42.0162C285.329 42.6984 287.652 43.3806 289.955 44.0628L290.523 42.1452ZM283.563 40.1022C281.386 39.4167 279.555 38.3769 278.052 36.9925L276.697 38.4635C278.437 40.0657 280.532 41.2446 282.962 42.0098L283.563 40.1022ZM278.052 36.9925C276.659 35.7092 275.943 34.0246 275.943 31.84H273.943C273.943 34.5194 274.848 36.7602 276.697 38.4635L278.052 36.9925ZM275.943 31.84C275.943 28.795 276.936 26.7015 278.794 25.3534L277.62 23.7346C275.126 25.5439 273.943 28.3143 273.943 31.84H275.943ZM278.797 25.3514C280.808 23.8813 283.383 23.112 286.591 23.112V21.112C283.057 21.112 280.042 21.964 277.617 23.7366L278.797 25.3514Z" fill="#8B0000"/>
<path d="M134.219 69.6V68.6H133.219V69.6H134.219ZM303.807 69.6H304.807V68.6H303.807V69.6ZM303.807 72.8V73.8H304.807V72.8H303.807ZM134.219 72.8H133.219V73.8H134.219V72.8ZM134.219 70.6H303.807V68.6H134.219V70.6ZM302.807 69.6V72.8H304.807V69.6H302.807ZM303.807 71.8H134.219V73.8H303.807V71.8ZM135.219 72.8V69.6H133.219V72.8H135.219Z" fill="#8B0000"/>
</svg>
