<svg width="136" height="478" viewBox="0 0 136 478" fill="none" xmlns="http://www.w3.org/2000/svg">
<rect y="168" width="136" height="136" rx="19" fill="#D3D3D3"/>
<path d="M50.279 250.5C50.1671 248.826 50.285 247.232 50.4094 245.591L50.558 240H58.3694H81.2459H87.9415V244.914C87.9884 246.798 88.0456 248.598 87.9415 250.5V261H72.3185L69.5287 253.65L67.2968 261H50L50.279 250.5Z" fill="#192942"/>
<path d="M87.9415 240C87.8712 241.763 87.9029 243.367 87.9415 244.914M87.9415 240V244.914M87.9415 240H50.558M69.5287 253.65L67.2968 254.7M69.5287 253.65L71.2026 254.7M69.5287 253.65L67.2968 261H50L50.279 250.5M69.5287 253.65L72.3185 261H87.9415V250.5M58.3694 240C57.1615 245.425 54.494 247.226 50.279 250.5M50.558 240C50.6836 242.021 50.5427 243.833 50.4094 245.591M50.558 240L50.4094 245.591M81.2459 240C81.9323 245.435 83.8423 247.299 87.9415 250.5M50.4094 245.591C50.285 247.232 50.1671 248.826 50.279 250.5M50.4094 245.591L50.279 250.5M87.9415 250.5C88.0456 248.598 87.9884 246.798 87.9415 244.914M87.9415 250.5V244.914" stroke="black"/>
<path d="M88 240V236H71.2353H68.1618H50.5588V240H58.3824H81.2941H88Z" fill="#192942"/>
<path d="M50.5588 236V240H58.3824H81.2941H88V236H71.2353H68.1618H50.5588ZM50.5588 236H50" stroke="black"/>
<path d="M68 248V236H71V244.87C71 246.957 69 247.826 68 248Z" fill="#192942" stroke="black"/>
<path d="M34.6318 212H32.9355V206.085H26.4844V212H24.7969V199.203H26.4844V204.705H32.9355V199.203H34.6318V212ZM47.4727 206.015C47.4727 207.269 47.2617 208.364 46.8398 209.302C46.418 210.233 45.8203 210.945 45.0469 211.438C44.2734 211.93 43.3711 212.176 42.3398 212.176C41.332 212.176 40.4385 211.93 39.6592 211.438C38.8799 210.939 38.2734 210.233 37.8398 209.319C37.4121 208.399 37.1924 207.336 37.1807 206.129V205.206C37.1807 203.976 37.3945 202.889 37.8223 201.945C38.25 201.002 38.8535 200.281 39.6328 199.783C40.418 199.279 41.3145 199.027 42.3223 199.027C43.3477 199.027 44.25 199.276 45.0293 199.774C45.8145 200.267 46.418 200.984 46.8398 201.928C47.2617 202.865 47.4727 203.958 47.4727 205.206V206.015ZM45.7939 205.188C45.7939 203.671 45.4893 202.508 44.8799 201.699C44.2705 200.885 43.418 200.478 42.3223 200.478C41.2559 200.478 40.415 200.885 39.7998 201.699C39.1904 202.508 38.877 203.633 38.8594 205.074V206.015C38.8594 207.485 39.167 208.643 39.7822 209.486C40.4033 210.324 41.2559 210.743 42.3398 210.743C43.4297 210.743 44.2734 210.348 44.8711 209.557C45.4688 208.76 45.7764 207.62 45.7939 206.138V205.188ZM58.5996 200.592H54.4863V212H52.8076V200.592H48.7031V199.203H58.5996V200.592ZM61.5879 207.228H57.2988V205.9H61.5879V207.228ZM65.1211 206.99V212H63.4336V199.203H68.1533C69.5537 199.203 70.6494 199.561 71.4404 200.275C72.2373 200.99 72.6357 201.937 72.6357 203.114C72.6357 204.356 72.2461 205.314 71.4668 205.988C70.6934 206.656 69.583 206.99 68.1357 206.99H65.1211ZM65.1211 205.61H68.1533C69.0557 205.61 69.7471 205.399 70.2275 204.978C70.708 204.55 70.9482 203.935 70.9482 203.132C70.9482 202.37 70.708 201.761 70.2275 201.304C69.7471 200.847 69.0879 200.609 68.25 200.592H65.1211V205.61ZM80.6426 208.66H75.2812L74.0771 212H72.3369L77.2236 199.203H78.7002L83.5957 212H81.8643L80.6426 208.66ZM75.791 207.271H80.1416L77.9619 201.286L75.791 207.271ZM95.1533 212H93.457L87.0146 202.139V212H85.3184V199.203H87.0146L93.4746 209.108V199.203H95.1533V212ZM106.729 200.592H102.615V212H100.937V200.592H96.832V199.203H106.729V200.592ZM112.257 206.296C110.81 205.88 109.755 205.37 109.093 204.767C108.437 204.157 108.108 203.407 108.108 202.517C108.108 201.509 108.51 200.677 109.312 200.021C110.121 199.358 111.17 199.027 112.459 199.027C113.338 199.027 114.12 199.197 114.806 199.537C115.497 199.877 116.03 200.346 116.405 200.943C116.786 201.541 116.977 202.194 116.977 202.903H115.28C115.28 202.13 115.034 201.523 114.542 201.084C114.05 200.639 113.355 200.416 112.459 200.416C111.627 200.416 110.977 200.601 110.508 200.97C110.045 201.333 109.813 201.84 109.813 202.49C109.813 203.012 110.033 203.454 110.473 203.817C110.918 204.175 111.671 204.503 112.731 204.802C113.798 205.101 114.63 205.432 115.228 205.795C115.831 206.152 116.276 206.571 116.563 207.052C116.856 207.532 117.003 208.098 117.003 208.748C117.003 209.785 116.599 210.617 115.79 211.244C114.981 211.865 113.9 212.176 112.547 212.176C111.668 212.176 110.848 212.009 110.086 211.675C109.324 211.335 108.735 210.872 108.319 210.286C107.909 209.7 107.704 209.035 107.704 208.291H109.4C109.4 209.064 109.685 209.677 110.253 210.128C110.827 210.573 111.592 210.796 112.547 210.796C113.438 210.796 114.12 210.614 114.595 210.251C115.069 209.888 115.307 209.393 115.307 208.766C115.307 208.139 115.087 207.655 114.647 207.315C114.208 206.97 113.411 206.63 112.257 206.296Z" fill="black"/>
<rect width="136" height="136" rx="19" fill="#D3D3D3"/>
<path d="M19.3276 30.3423C19.3276 31.1086 19.1987 31.7782 18.9409 32.3511C18.6831 32.9204 18.3179 33.3555 17.8452 33.6562C17.3726 33.957 16.8211 34.1074 16.1909 34.1074C15.575 34.1074 15.029 33.957 14.5527 33.6562C14.0765 33.3519 13.7059 32.9204 13.4409 32.3618C13.1795 31.7996 13.0452 31.1497 13.0381 30.4121V29.8481C13.0381 29.0962 13.1688 28.432 13.4302 27.8555C13.6916 27.279 14.0604 26.8385 14.5366 26.5342C15.0164 26.2262 15.5643 26.0723 16.1802 26.0723C16.8068 26.0723 17.3582 26.2244 17.8345 26.5288C18.3143 26.8296 18.6831 27.2682 18.9409 27.8447C19.1987 28.4176 19.3276 29.0854 19.3276 29.8481V30.3423ZM18.3018 29.8374C18.3018 28.91 18.1156 28.1992 17.7432 27.7051C17.3708 27.2074 16.8498 26.9585 16.1802 26.9585C15.5285 26.9585 15.0146 27.2074 14.6387 27.7051C14.2663 28.1992 14.0747 28.8867 14.064 29.7676V30.3423C14.064 31.241 14.252 31.9482 14.6279 32.4639C15.0075 32.9759 15.5285 33.2319 16.1909 33.2319C16.8569 33.2319 17.3726 32.9902 17.7378 32.5068C18.103 32.0199 18.291 31.3234 18.3018 30.4175V29.8374ZM23.3452 32.6304L25.5796 26.1797H26.7075L23.8071 34H22.894L19.999 26.1797H21.1216L23.3452 32.6304ZM32.1807 30.3853H28.7915V33.1567H32.7285V34H27.7603V26.1797H32.6748V27.0283H28.7915V29.542H32.1807V30.3853ZM36.8804 30.8364H35.0435V34H34.0068V26.1797H36.5957C37.4766 26.1797 38.1533 26.3802 38.626 26.7812C39.1022 27.1823 39.3403 27.766 39.3403 28.5322C39.3403 29.0192 39.2078 29.4435 38.9429 29.8052C38.6815 30.1668 38.3162 30.4372 37.8472 30.6162L39.6841 33.9355V34H38.5776L36.8804 30.8364ZM35.0435 29.9932H36.6279C37.14 29.9932 37.5464 29.8607 37.8472 29.5957C38.1515 29.3307 38.3037 28.9762 38.3037 28.5322C38.3037 28.0488 38.1587 27.6782 37.8687 27.4204C37.5822 27.1626 37.1668 27.0319 36.6226 27.0283H35.0435V29.9932ZM43.0947 30.5142C42.2103 30.2599 41.5658 29.9484 41.1611 29.5796C40.7601 29.2072 40.5596 28.7489 40.5596 28.2046C40.5596 27.5887 40.8049 27.0802 41.2954 26.6792C41.7896 26.2746 42.4305 26.0723 43.2183 26.0723C43.7554 26.0723 44.2334 26.1761 44.6523 26.3838C45.0749 26.5915 45.4007 26.8779 45.6299 27.2432C45.8626 27.6084 45.979 28.0076 45.979 28.4409H44.9424C44.9424 27.9683 44.792 27.5977 44.4912 27.3291C44.1904 27.057 43.7661 26.9209 43.2183 26.9209C42.7098 26.9209 42.3123 27.0337 42.0259 27.2593C41.743 27.4813 41.6016 27.791 41.6016 28.1885C41.6016 28.5072 41.7358 28.7775 42.0044 28.9995C42.2765 29.2179 42.7367 29.4185 43.3848 29.6011C44.0365 29.7837 44.5449 29.986 44.9102 30.208C45.279 30.4264 45.5511 30.6825 45.7266 30.9761C45.9056 31.2697 45.9951 31.6152 45.9951 32.0127C45.9951 32.6465 45.748 33.1549 45.2539 33.5381C44.7598 33.9176 44.0991 34.1074 43.272 34.1074C42.7349 34.1074 42.2336 34.0054 41.7681 33.8013C41.3026 33.5936 40.9427 33.3107 40.6885 32.9526C40.4378 32.5946 40.3125 32.1882 40.3125 31.7334H41.3491C41.3491 32.2061 41.5228 32.5802 41.8701 32.856C42.221 33.1281 42.6883 33.2642 43.272 33.2642C43.8162 33.2642 44.2334 33.1532 44.5234 32.9312C44.8135 32.7091 44.9585 32.4066 44.9585 32.0234C44.9585 31.6403 44.8242 31.3449 44.5557 31.1372C44.2871 30.9259 43.8001 30.7183 43.0947 30.5142ZM48.4282 34H47.397V26.1797H48.4282V34ZM51.0923 33.1567H55.5664V34H49.873V33.2266L54.1592 27.0283H49.9429V26.1797H55.3945V26.937L51.0923 33.1567ZM61.3242 30.3853H57.9351V33.1567H61.8721V34H56.9038V26.1797H61.8184V27.0283H57.9351V29.542H61.3242V30.3853ZM63.1558 34V26.1797H65.3633C66.0436 26.1797 66.6452 26.3301 67.168 26.6309C67.6908 26.9316 68.0936 27.3595 68.3765 27.9146C68.6629 28.4696 68.8079 29.1069 68.8115 29.8267V30.3262C68.8115 31.0638 68.6683 31.7101 68.3818 32.2651C68.099 32.8201 67.6925 33.2463 67.1626 33.5435C66.6362 33.8407 66.0221 33.9928 65.3203 34H63.1558ZM64.187 27.0283V33.1567H65.272C66.0669 33.1567 66.6846 32.9097 67.125 32.4155C67.569 31.9214 67.791 31.2178 67.791 30.3047V29.8481C67.791 28.9601 67.5815 28.2708 67.1626 27.7803C66.7472 27.2861 66.1564 27.0355 65.3901 27.0283H64.187ZM78.8555 31.5186C78.7588 32.3457 78.4526 32.9849 77.937 33.436C77.425 33.8836 76.7428 34.1074 75.8906 34.1074C74.9668 34.1074 74.2256 33.7762 73.667 33.1138C73.112 32.4513 72.8345 31.5651 72.8345 30.4551V29.7031C72.8345 28.9762 72.9634 28.3371 73.2212 27.7856C73.4826 27.2342 73.8514 26.8117 74.3276 26.5181C74.8039 26.2209 75.3553 26.0723 75.9819 26.0723C76.8127 26.0723 77.4787 26.305 77.98 26.7705C78.4813 27.2324 78.7731 27.8734 78.8555 28.6934H77.8188C77.7293 28.0703 77.5342 27.6191 77.2334 27.3398C76.9362 27.0605 76.519 26.9209 75.9819 26.9209C75.3231 26.9209 74.8057 27.1644 74.4297 27.6514C74.0573 28.1383 73.8711 28.8312 73.8711 29.73V30.4873C73.8711 31.3359 74.0483 32.0109 74.4028 32.5122C74.7573 33.0135 75.2533 33.2642 75.8906 33.2642C76.4635 33.2642 76.9022 33.1353 77.2065 32.8774C77.5145 32.616 77.7186 32.1631 77.8188 31.5186H78.8555ZM83.1362 30.8364H81.2993V34H80.2627V26.1797H82.8516C83.7324 26.1797 84.4092 26.3802 84.8818 26.7812C85.3581 27.1823 85.5962 27.766 85.5962 28.5322C85.5962 29.0192 85.4637 29.4435 85.1987 29.8052C84.9373 30.1668 84.5721 30.4372 84.103 30.6162L85.9399 33.9355V34H84.8335L83.1362 30.8364ZM81.2993 29.9932H82.8838C83.3958 29.9932 83.8022 29.8607 84.103 29.5957C84.4074 29.3307 84.5596 28.9762 84.5596 28.5322C84.5596 28.0488 84.4146 27.6782 84.1245 27.4204C83.8381 27.1626 83.4227 27.0319 82.8784 27.0283H81.2993V29.9932ZM93.062 30.3423C93.062 31.1086 92.9331 31.7782 92.6753 32.3511C92.4175 32.9204 92.0522 33.3555 91.5796 33.6562C91.1069 33.957 90.5555 34.1074 89.9253 34.1074C89.3094 34.1074 88.7633 33.957 88.2871 33.6562C87.8109 33.3519 87.4403 32.9204 87.1753 32.3618C86.9139 31.7996 86.7796 31.1497 86.7725 30.4121V29.8481C86.7725 29.0962 86.9032 28.432 87.1646 27.8555C87.4259 27.279 87.7948 26.8385 88.271 26.5342C88.7508 26.2262 89.2987 26.0723 89.9146 26.0723C90.5412 26.0723 91.0926 26.2244 91.5688 26.5288C92.0487 26.8296 92.4175 27.2682 92.6753 27.8447C92.9331 28.4176 93.062 29.0854 93.062 29.8481V30.3423ZM92.0361 29.8374C92.0361 28.91 91.8499 28.1992 91.4775 27.7051C91.1051 27.2074 90.5841 26.9585 89.9146 26.9585C89.2629 26.9585 88.749 27.2074 88.373 27.7051C88.0007 28.1992 87.8091 28.8867 87.7983 29.7676V30.3423C87.7983 31.241 87.9863 31.9482 88.3623 32.4639C88.7419 32.9759 89.2629 33.2319 89.9253 33.2319C90.5913 33.2319 91.1069 32.9902 91.4722 32.5068C91.8374 32.0199 92.0254 31.3234 92.0361 30.4175V29.8374ZM95.6401 30.9385V34H94.6089V26.1797H97.4932C98.349 26.1797 99.0186 26.3981 99.502 26.835C99.9889 27.2718 100.232 27.8501 100.232 28.5698C100.232 29.3289 99.9943 29.9144 99.5181 30.3262C99.0454 30.7344 98.3669 30.9385 97.4824 30.9385H95.6401ZM95.6401 30.0952H97.4932C98.0446 30.0952 98.4671 29.9663 98.7607 29.7085C99.0544 29.4471 99.2012 29.0711 99.2012 28.5806C99.2012 28.1151 99.0544 27.7427 98.7607 27.4634C98.4671 27.1841 98.0643 27.0391 97.5522 27.0283H95.6401V30.0952ZM103.46 31.0835H100.839V30.2725H103.46V31.0835ZM109.992 27.0283H107.478V34H106.452V27.0283H103.944V26.1797H109.992V27.0283ZM117.017 30.3423C117.017 31.1086 116.888 31.7782 116.63 32.3511C116.373 32.9204 116.007 33.3555 115.535 33.6562C115.062 33.957 114.511 34.1074 113.88 34.1074C113.264 34.1074 112.718 33.957 112.242 33.6562C111.766 33.3519 111.395 32.9204 111.13 32.3618C110.869 31.7996 110.735 31.1497 110.728 30.4121V29.8481C110.728 29.0962 110.858 28.432 111.12 27.8555C111.381 27.279 111.75 26.8385 112.226 26.5342C112.706 26.2262 113.254 26.0723 113.87 26.0723C114.496 26.0723 115.048 26.2244 115.524 26.5288C116.004 26.8296 116.373 27.2682 116.63 27.8447C116.888 28.4176 117.017 29.0854 117.017 29.8481V30.3423ZM115.991 29.8374C115.991 28.91 115.805 28.1992 115.433 27.7051C115.06 27.2074 114.539 26.9585 113.87 26.9585C113.218 26.9585 112.704 27.2074 112.328 27.7051C111.956 28.1992 111.764 28.8867 111.753 29.7676V30.3423C111.753 31.241 111.941 31.9482 112.317 32.4639C112.697 32.9759 113.218 33.2319 113.88 33.2319C114.546 33.2319 115.062 32.9902 115.427 32.5068C115.792 32.0199 115.98 31.3234 115.991 30.4175V29.8374ZM119.595 30.9385V34H118.564V26.1797H121.448C122.304 26.1797 122.974 26.3981 123.457 26.835C123.944 27.2718 124.188 27.8501 124.188 28.5698C124.188 29.3289 123.949 29.9144 123.473 30.3262C123 30.7344 122.322 30.9385 121.438 30.9385H119.595ZM119.595 30.0952H121.448C122 30.0952 122.422 29.9663 122.716 29.7085C123.009 29.4471 123.156 29.0711 123.156 28.5806C123.156 28.1151 123.009 27.7427 122.716 27.4634C122.422 27.1841 122.019 27.0391 121.507 27.0283H119.595V30.0952Z" fill="black"/>
<path d="M75.6129 60L84.7581 61.9013L98.9839 73.6901L100 74.6808L92.379 84.0927L89.8387 87.0649L84.7581 82.6066V94H52.2419V83.102V82.6066L47.1613 87.0649L44.621 84.0927L37 74.6808L52.3675 61.9013L61.3871 60C61.5565 62.2517 63.2161 66.755 68.5 66.755C74.1903 66.3587 75.6129 62.0865 75.6129 60Z" fill="#FFEBEB"/>
<path d="M84.7581 61.9013L75.6129 60C75.6129 62.0865 74.1903 66.3587 68.5 66.755C63.2161 66.755 61.5565 62.2517 61.3871 60L52.3675 61.9013M84.7581 61.9013L98.9839 73.6901L100 74.6808L92.379 84.0927L89.8387 87.0649L84.7581 82.6066M84.7581 61.9013C83.9113 65.6991 82.7258 74.2845 84.7581 82.6066M52.3675 61.9013L37 74.6808L44.621 84.0927L47.1613 87.0649L52.2419 82.6066C52.2419 88.385 52.2419 87.5325 52.2419 94H84.7581C84.7581 87.5605 84.7581 88.4124 84.7581 82.6066M52.3675 61.9013C53.2143 65.6991 54.2742 74.7799 52.2419 83.102" stroke="black"/>
<path d="M84.5 91H52.5V88.5H84.5V91Z" fill="#F77474"/>
<path d="M85 86H52V83H85V86Z" fill="#F67474"/>
<path d="M97.8495 72.7695L87.5233 84.9077L86 83.6117L96.3262 71.4736L97.8495 72.7695Z" fill="#F67474" stroke="#F67474"/>
<path d="M93.7206 69.4475L84.5 80L84 78L92.3023 68.2409L93.7206 69.4475Z" fill="#F67474" stroke="#F67474"/>
<path d="M89.4977 66.2066L84 72.5L84 70L88.0794 65L89.4977 66.2066Z" fill="#F67474" stroke="#F67474"/>
<path d="M40 72.7695L49.9803 84.5012L51.5037 83.2052L41.5233 71.4736L40 72.7695Z" fill="#F67474" stroke="#F67474"/>
<path d="M44.1289 69.4475L52.6442 79.1534L53.284 77.1583L45.6346 68.1666L44.1289 69.4475Z" fill="#F67474" stroke="#F67474"/>
<path d="M48.3518 66.2066L53.2816 71.8325L53.411 69.4846L49.7701 65L48.3518 66.2066Z" fill="#F67474" stroke="#F67474"/>
<path d="M84 78H53V80H84V78Z" fill="#F67474"/>
<path d="M83.5 73.5H53.5V75.5H83.5V73.5Z" fill="#F67474"/>
<path d="M53.5 68V70.5H83.5V68H53.5Z" fill="#F67474"/>
<path d="M62 63.5H53V65.5H64.5L62 63.5Z" fill="#F67474"/>
<path d="M84.5 63.5H74.5L73.5 65.5H84L84.5 63.5Z" fill="#F67474"/>
<path d="M84 78H53V80H84V78Z" stroke="#F67474"/>
<path d="M83.5 73.5H53.5V75.5H83.5V73.5Z" stroke="#F67474"/>
<path d="M53.5 68V70.5H83.5V68H53.5Z" stroke="#F67474"/>
<path d="M62 63.5H53V65.5H64.5L62 63.5Z" stroke="#F67474"/>
<path d="M84.5 63.5H74.5L73.5 65.5H84L84.5 63.5Z" stroke="#F67474"/>
<path d="M84.7581 61.9013L75.6129 60C75.6129 62.0865 74.1903 66.3587 68.5 66.755C63.2161 66.755 61.5565 62.2517 61.3871 60L52.3675 61.9013M84.7581 61.9013L98.9839 73.6901L100 74.6808L92.379 84.0927L89.8387 87.0649L84.7581 82.6066M84.7581 61.9013C83.9113 65.6991 82.7258 74.2845 84.7581 82.6066M52.3675 61.9013L37 74.6808L44.621 84.0927L47.1613 87.0649L52.2419 82.6066C52.2419 88.385 52.2419 87.5325 52.2419 94H84.7581C84.7581 87.5605 84.7581 88.4124 84.7581 82.6066M52.3675 61.9013C53.2143 65.6991 54.2742 74.7799 52.2419 83.102" stroke="black"/>
<path d="M63.2857 59.5C67.8404 59.7406 70.3507 59.761 74.7143 59.5H76L77 60.1818C77 62.2879 75.4 66.6 69 67C63.0571 67 61.1905 62.4545 61 60.1818L62 59.5H63.2857Z" fill="#F67474"/>
<path d="M76 59.5H74.7143C70.3507 59.761 67.8404 59.7406 63.2857 59.5H62M76 59.5L77 60.1818C77 62.2879 75.4 66.6 69 67C63.0571 67 61.1905 62.4545 61 60.1818L62 59.5M76 59.5C75.9128 59.8813 75.603 60.966 75.3426 61.5C74.4649 63.2997 72.5254 65.0558 69 65C65.5027 64.9446 63.5662 63.2483 62.6786 61.5C62.406 60.963 62.0895 59.8774 62 59.5" stroke="black"/>
<path d="M74 62C70.5548 62.5265 67.5963 62.4779 64 62C64.7008 63.3109 66.23 64.9577 68.9916 64.9992C71.7754 65.0411 73.3069 63.3494 74 62Z" fill="white" stroke="black"/>
<rect y="342" width="136" height="136" rx="19" fill="#D3D3D3"/>
<path d="M68.6102 413.44L67.1855 423.568C68.4067 425.109 70.2385 429.689 67.7961 435.678C68.4067 451.971 65.9643 453.292 59.6546 453.952C54.6069 454.481 51.581 450.503 50.699 448.448L47.4424 436.118C45.1628 432.771 45.4071 427.972 45.8141 425.99C45.7663 425.861 45.746 425.69 45.7631 425.479L45 417.844C45 409.389 50.4276 404.046 53.1415 402.431C59.9803 398.028 64.6752 400.597 66.1678 402.431C68.4474 404.369 68.7459 410.578 68.6102 413.44Z" fill="white"/>
<path d="M67.1855 423.568L59.044 413.44V411.459C57.9042 409.521 56.9408 410.651 56.6016 411.459V413.44C48.1239 419.968 45.8911 423.891 45.7631 425.479M67.1855 423.568L68.6102 413.44C68.7459 410.578 68.4474 404.369 66.1678 402.431C64.6752 400.597 59.9803 398.028 53.1415 402.431C50.4276 404.046 45 409.389 45 417.844L45.7631 425.479M67.1855 423.568C68.4067 425.109 70.2385 429.689 67.7961 435.678M45.7631 425.479L45.8141 425.99M45.7631 425.479C45.746 425.69 45.7663 425.861 45.8141 425.99M45.8141 425.99C45.4071 427.972 45.1628 432.771 47.4424 436.118M47.4424 436.118C49.3964 438.408 51.1061 439.274 51.7167 439.421C53.5078 439.597 53.1415 438.32 52.7344 437.659L51.7167 437.219C47.3203 433.344 47.3067 428.706 47.8495 426.871C48.8265 422.291 54.7698 417.623 57.6193 415.862C59.1797 417.55 62.8705 421.675 65.1501 424.669C67.4297 427.663 66.9141 431.054 66.3713 432.375L64.1324 436.118C63.9696 438.76 65.5572 438.246 66.3713 437.659L67.7961 435.678M47.4424 436.118L50.699 448.448C51.581 450.503 54.6069 454.481 59.6546 453.952C65.9643 453.292 68.4067 451.971 67.7961 435.678" stroke="black"/>
<path d="M76.3898 413.44L77.8145 423.568C76.5933 425.109 74.7615 429.689 77.2039 435.678C76.5933 451.971 79.0357 453.292 85.3454 453.952C90.3931 454.481 93.419 450.503 94.301 448.448L97.5576 436.118C99.8372 432.771 99.5929 427.972 99.1859 425.99C99.2337 425.861 99.254 425.69 99.2369 425.479L100 417.844C100 409.389 94.5724 404.046 91.8585 402.431C85.0197 398.028 80.3248 400.597 78.8322 402.431C76.5526 404.369 76.2541 410.578 76.3898 413.44Z" fill="white"/>
<path d="M77.8145 423.568L85.956 413.44V411.459C87.0958 409.521 88.0592 410.651 88.3984 411.459V413.44C96.8761 419.968 99.1089 423.891 99.2369 425.479M77.8145 423.568L76.3898 413.44C76.2541 410.578 76.5526 404.369 78.8322 402.431C80.3248 400.597 85.0197 398.028 91.8585 402.431C94.5724 404.046 100 409.389 100 417.844L99.2369 425.479M77.8145 423.568C76.5933 425.109 74.7615 429.689 77.2039 435.678M99.2369 425.479L99.1859 425.99M99.2369 425.479C99.254 425.69 99.2337 425.861 99.1859 425.99M99.1859 425.99C99.5929 427.972 99.8372 432.771 97.5576 436.118M97.5576 436.118C95.6036 438.408 93.8939 439.274 93.2833 439.421C91.4922 439.597 91.8585 438.32 92.2656 437.659L93.2833 437.219C97.6797 433.344 97.6933 428.706 97.1505 426.871C96.1735 422.291 90.2302 417.623 87.3807 415.862C85.8203 417.55 82.1295 421.675 79.8499 424.669C77.5703 427.663 78.0859 431.054 78.6287 432.375L80.8676 436.118C81.0304 438.76 79.4428 438.246 78.6287 437.659L77.2039 435.678M97.5576 436.118L94.301 448.448C93.419 450.503 90.3931 454.481 85.3454 453.952C79.0357 453.292 76.5933 451.971 77.2039 435.678" stroke="black"/>
<path d="M57.2886 411.459V413.44C49.0396 419.968 46.8671 423.891 46.7425 425.479L46.7922 425.99C46.7456 425.861 46.7259 425.69 46.7425 425.479L46 417.844C46 409.389 51.2812 404.046 53.9218 402.431C60.5761 398.028 65.1444 400.597 66.5967 402.431C68.8148 404.369 69.1053 410.578 68.9732 413.44L67.5869 423.568L59.6651 413.44V411.459C58.5561 409.521 57.6186 410.651 57.2886 411.459Z" fill="black"/>
<path d="M48.7726 426.871C49.7232 422.291 55.5062 417.623 58.2788 415.862C59.7971 417.55 63.3884 421.675 65.6065 424.669C67.8246 427.663 67.3228 431.054 66.7947 432.375L64.6162 436.118C64.4578 438.76 66.0025 438.246 66.7947 437.659L68.181 435.678C68.7752 451.971 66.3986 453.292 60.2592 453.952C55.3477 454.481 52.4035 450.503 51.5453 448.448L48.3765 436.118C50.2778 438.408 51.9414 439.274 52.5355 439.421C54.2783 439.597 53.9218 438.32 53.5257 437.659L52.5355 437.219C48.2577 433.344 48.2445 428.706 48.7726 426.871Z" fill="black"/>
<path d="M57.2886 411.459V413.44C49.0396 419.968 46.8671 423.891 46.7425 425.479L46.7922 425.99C46.7456 425.861 46.7259 425.69 46.7425 425.479L46 417.844C46 409.389 51.2812 404.046 53.9218 402.431C60.5761 398.028 65.1444 400.597 66.5967 402.431C68.8148 404.369 69.1053 410.578 68.9732 413.44L67.5869 423.568L59.6651 413.44V411.459C58.5561 409.521 57.6186 410.651 57.2886 411.459Z" stroke="black"/>
<path d="M48.7726 426.871C49.7232 422.291 55.5062 417.623 58.2788 415.862C59.7971 417.55 63.3884 421.675 65.6065 424.669C67.8246 427.663 67.3228 431.054 66.7947 432.375L64.6162 436.118C64.4578 438.76 66.0025 438.246 66.7947 437.659L68.181 435.678C68.7752 451.971 66.3986 453.292 60.2592 453.952C55.3477 454.481 52.4035 450.503 51.5453 448.448L48.3765 436.118C50.2778 438.408 51.9414 439.274 52.5355 439.421C54.2783 439.597 53.9218 438.32 53.5257 437.659L52.5355 437.219C48.2577 433.344 48.2445 428.706 48.7726 426.871Z" stroke="black"/>
<path d="M88.2206 410.459V412.44C96.8282 418.968 99.0952 422.891 99.2252 424.479L99.1734 424.99C99.222 424.861 99.2426 424.69 99.2252 424.479L100 416.844C100 408.389 94.4892 403.046 91.7338 401.431C84.7901 397.028 80.0233 399.597 78.5078 401.431C76.1933 403.369 75.8902 409.578 76.0279 412.44L77.4745 422.568L85.7408 412.44V410.459C86.898 408.521 87.8762 409.651 88.2206 410.459Z" fill="black"/>
<path d="M97.1068 425.871C96.1149 421.291 90.0805 416.623 87.1873 414.862C85.603 416.55 81.8556 420.675 79.5411 423.669C77.2265 426.663 77.7501 430.054 78.3012 431.375L80.5744 435.118C80.7397 437.76 79.1278 437.246 78.3012 436.659L76.8546 434.678C76.2346 450.971 78.7145 452.292 85.1208 452.952C90.2459 453.481 93.3181 449.503 94.2136 447.448L97.5201 435.118C95.5362 437.408 93.8003 438.274 93.1804 438.421C91.3618 438.597 91.7338 437.32 92.1471 436.659L93.1804 436.219C97.6441 432.344 97.6579 427.706 97.1068 425.871Z" fill="black"/>
<path d="M88.2206 410.459V412.44C96.8282 418.968 99.0952 422.891 99.2252 424.479L99.1734 424.99C99.222 424.861 99.2426 424.69 99.2252 424.479L100 416.844C100 408.389 94.4892 403.046 91.7338 401.431C84.7901 397.028 80.0233 399.597 78.5078 401.431C76.1933 403.369 75.8902 409.578 76.0279 412.44L77.4745 422.568L85.7408 412.44V410.459C86.898 408.521 87.8762 409.651 88.2206 410.459Z" stroke="black"/>
<path d="M97.1068 425.871C96.1149 421.291 90.0805 416.623 87.1873 414.862C85.603 416.55 81.8556 420.675 79.5411 423.669C77.2265 426.663 77.7501 430.054 78.3012 431.375L80.5744 435.118C80.7397 437.76 79.1278 437.246 78.3012 436.659L76.8546 434.678C76.2346 450.971 78.7145 452.292 85.1208 452.952C90.2459 453.481 93.3181 449.503 94.2136 447.448L97.5201 435.118C95.5362 437.408 93.8003 438.274 93.1804 438.421C91.3618 438.597 91.7338 437.32 92.1471 436.659L93.1804 436.219C97.6441 432.344 97.6579 427.706 97.1068 425.871Z" stroke="black"/>
<path d="M38.2578 370.296C36.8105 369.88 35.7559 369.37 35.0938 368.767C34.4375 368.157 34.1094 367.407 34.1094 366.517C34.1094 365.509 34.5107 364.677 35.3135 364.021C36.1221 363.358 37.1709 363.027 38.46 363.027C39.3389 363.027 40.1211 363.197 40.8066 363.537C41.498 363.877 42.0312 364.346 42.4062 364.943C42.7871 365.541 42.9775 366.194 42.9775 366.903H41.2812C41.2812 366.13 41.0352 365.523 40.543 365.084C40.0508 364.639 39.3564 364.416 38.46 364.416C37.6279 364.416 36.9775 364.601 36.5088 364.97C36.0459 365.333 35.8145 365.84 35.8145 366.49C35.8145 367.012 36.0342 367.454 36.4736 367.817C36.9189 368.175 37.6719 368.503 38.7324 368.802C39.7988 369.101 40.6309 369.432 41.2285 369.795C41.832 370.152 42.2773 370.571 42.5645 371.052C42.8574 371.532 43.0039 372.098 43.0039 372.748C43.0039 373.785 42.5996 374.617 41.791 375.244C40.9824 375.865 39.9014 376.176 38.5479 376.176C37.6689 376.176 36.8486 376.009 36.0869 375.675C35.3252 375.335 34.7363 374.872 34.3203 374.286C33.9102 373.7 33.7051 373.035 33.7051 372.291H35.4014C35.4014 373.064 35.6855 373.677 36.2539 374.128C36.8281 374.573 37.5928 374.796 38.5479 374.796C39.4385 374.796 40.1211 374.614 40.5957 374.251C41.0703 373.888 41.3076 373.393 41.3076 372.766C41.3076 372.139 41.0879 371.655 40.6484 371.315C40.209 370.97 39.4121 370.63 38.2578 370.296ZM52.2412 372.66H46.8799L45.6758 376H43.9355L48.8223 363.203H50.2988L55.1943 376H53.4629L52.2412 372.66ZM47.3896 371.271H51.7402L49.5605 365.286L47.3896 371.271ZM66.752 376H65.0557L58.6133 366.139V376H56.917V363.203H58.6133L65.0732 373.108V363.203H66.752V376ZM69.749 376V363.203H73.3613C74.4746 363.203 75.459 363.449 76.3145 363.941C77.1699 364.434 77.8291 365.134 78.292 366.042C78.7607 366.95 78.998 367.993 79.0039 369.171V369.988C79.0039 371.195 78.7695 372.253 78.3008 373.161C77.8379 374.069 77.1729 374.767 76.3057 375.253C75.4443 375.739 74.4395 375.988 73.291 376H69.749ZM71.4365 364.592V374.62H73.2119C74.5127 374.62 75.5234 374.216 76.2441 373.407C76.9707 372.599 77.334 371.447 77.334 369.953V369.206C77.334 367.753 76.9912 366.625 76.3057 365.822C75.626 365.014 74.6592 364.604 73.4053 364.592H71.4365ZM88.4346 372.66H83.0732L81.8691 376H80.1289L85.0156 363.203H86.4922L91.3877 376H89.6562L88.4346 372.66ZM83.583 371.271H87.9336L85.7539 365.286L83.583 371.271ZM94.8066 374.62H100.871V376H93.1104V363.203H94.8066V374.62ZM106.566 370.296C105.119 369.88 104.064 369.37 103.402 368.767C102.746 368.157 102.418 367.407 102.418 366.517C102.418 365.509 102.819 364.677 103.622 364.021C104.431 363.358 105.479 363.027 106.769 363.027C107.647 363.027 108.43 363.197 109.115 363.537C109.807 363.877 110.34 364.346 110.715 364.943C111.096 365.541 111.286 366.194 111.286 366.903H109.59C109.59 366.13 109.344 365.523 108.852 365.084C108.359 364.639 107.665 364.416 106.769 364.416C105.937 364.416 105.286 364.601 104.817 364.97C104.354 365.333 104.123 365.84 104.123 366.49C104.123 367.012 104.343 367.454 104.782 367.817C105.228 368.175 105.98 368.503 107.041 368.802C108.107 369.101 108.939 369.432 109.537 369.795C110.141 370.152 110.586 370.571 110.873 371.052C111.166 371.532 111.312 372.098 111.312 372.748C111.312 373.785 110.908 374.617 110.1 375.244C109.291 375.865 108.21 376.176 106.856 376.176C105.978 376.176 105.157 376.009 104.396 375.675C103.634 375.335 103.045 374.872 102.629 374.286C102.219 373.7 102.014 373.035 102.014 372.291H103.71C103.71 373.064 103.994 373.677 104.562 374.128C105.137 374.573 105.901 374.796 106.856 374.796C107.747 374.796 108.43 374.614 108.904 374.251C109.379 373.888 109.616 373.393 109.616 372.766C109.616 372.139 109.396 371.655 108.957 371.315C108.518 370.97 107.721 370.63 106.566 370.296Z" fill="black"/>
</svg>
