<svg width="952" height="2000" viewBox="0 0 952 2000" fill="none" xmlns="http://www.w3.org/2000/svg">
<rect width="952" height="2000" rx="100" fill="#C4C4C4"/>
<rect x="218" y="752.243" width="517" height="474.577" rx="19" fill="#D3D3D3"/>
<path d="M400.061 1076.6C399.635 1070.76 400.083 1065.19 400.556 1059.47L401.121 1039.96H430.816H517.78H543.233V1057.11C543.412 1063.68 543.629 1069.96 543.233 1076.6V1113.24H483.843L473.238 1087.59L464.753 1113.24H399L400.061 1076.6Z" fill="#192942"/>
<path d="M543.233 1039.96C542.966 1046.11 543.087 1051.71 543.233 1057.11M543.233 1039.96V1057.11M543.233 1039.96H401.121M473.238 1087.59L464.753 1091.25M473.238 1087.59L479.601 1091.25M473.238 1087.59L464.753 1113.24H399L400.061 1076.6M473.238 1087.59L483.843 1113.24H543.233V1076.6M430.816 1039.96C426.224 1058.89 416.084 1065.17 400.061 1076.6M401.121 1039.96C401.599 1047.01 401.063 1053.33 400.556 1059.47M401.121 1039.96L400.556 1059.47M517.78 1039.96C520.39 1058.92 527.651 1065.43 543.233 1076.6M400.556 1059.47C400.083 1065.19 399.635 1070.76 400.061 1076.6M400.556 1059.47L400.061 1076.6M543.233 1076.6C543.629 1069.96 543.412 1063.68 543.233 1057.11M543.233 1076.6V1057.11" stroke="black"/>
<path d="M543.456 1039.96V1026H479.725H468.041H401.124V1039.96H430.865H517.964H543.456Z" fill="#192942"/>
<path d="M401.124 1026V1039.96H430.865H517.964H543.456V1026H479.725H468.041H401.124ZM401.124 1026H399" stroke="black"/>
<path d="M467.427 1067.87V1026H478.831V1056.95C478.831 1064.23 471.228 1067.27 467.427 1067.87Z" fill="#192942" stroke="black"/>
<path d="M358.472 905.46H352.441V884.429H329.504V905.46H323.504V859.96H329.504V879.523H352.441V859.96H358.472V905.46ZM404.129 884.179C404.129 888.637 403.379 892.533 401.879 895.867C400.379 899.179 398.254 901.71 395.504 903.46C392.754 905.21 389.545 906.085 385.879 906.085C382.295 906.085 379.118 905.21 376.347 903.46C373.577 901.689 371.42 899.179 369.879 895.929C368.358 892.658 367.577 888.877 367.535 884.585V881.304C367.535 876.929 368.295 873.064 369.816 869.71C371.337 866.356 373.483 863.794 376.254 862.023C379.045 860.231 382.233 859.335 385.816 859.335C389.462 859.335 392.67 860.221 395.441 861.992C398.233 863.742 400.379 866.294 401.879 869.648C403.379 872.981 404.129 876.867 404.129 881.304V884.179ZM398.16 881.242C398.16 875.846 397.077 871.71 394.91 868.835C392.743 865.939 389.712 864.492 385.816 864.492C382.025 864.492 379.035 865.939 376.847 868.835C374.681 871.71 373.566 875.71 373.504 880.835V884.179C373.504 889.408 374.597 893.523 376.785 896.523C378.993 899.502 382.025 900.992 385.879 900.992C389.754 900.992 392.754 899.585 394.879 896.773C397.004 893.939 398.097 889.887 398.16 884.617V881.242ZM443.691 864.898H429.066V905.46H423.097V864.898H408.504V859.96H443.691V864.898ZM454.316 888.492H439.066V883.773H454.316V888.492ZM466.879 887.648V905.46H460.879V859.96H477.66C482.639 859.96 486.535 861.231 489.347 863.773C492.181 866.314 493.597 869.679 493.597 873.867C493.597 878.283 492.212 881.689 489.441 884.085C486.691 886.46 482.743 887.648 477.597 887.648H466.879ZM466.879 882.742H477.66C480.868 882.742 483.327 881.992 485.035 880.492C486.743 878.971 487.597 876.783 487.597 873.929C487.597 871.221 486.743 869.054 485.035 867.429C483.327 865.804 480.983 864.96 478.004 864.898H466.879V882.742ZM522.066 893.585H503.004L498.722 905.46H492.535L509.91 859.96H515.16L532.566 905.46H526.41L522.066 893.585ZM504.816 888.648H520.285L512.535 867.367L504.816 888.648ZM573.66 905.46H567.629L544.722 870.398V905.46H538.691V859.96H544.722L567.691 895.179V859.96H573.66V905.46ZM614.816 864.898H600.191V905.46H594.222V864.898H579.629V859.96H614.816V864.898ZM634.472 885.179C629.327 883.7 625.577 881.887 623.222 879.742C620.889 877.575 619.722 874.908 619.722 871.742C619.722 868.158 621.15 865.2 624.004 862.867C626.879 860.512 630.608 859.335 635.191 859.335C638.316 859.335 641.097 859.939 643.535 861.148C645.993 862.356 647.889 864.023 649.222 866.148C650.577 868.273 651.254 870.596 651.254 873.117H645.222C645.222 870.367 644.347 868.21 642.597 866.648C640.847 865.064 638.379 864.273 635.191 864.273C632.233 864.273 629.92 864.929 628.254 866.242C626.608 867.533 625.785 869.335 625.785 871.648C625.785 873.502 626.566 875.075 628.129 876.367C629.712 877.637 632.389 878.804 636.16 879.867C639.952 880.929 642.91 882.106 645.035 883.398C647.181 884.669 648.764 886.158 649.785 887.867C650.827 889.575 651.347 891.585 651.347 893.898C651.347 897.585 649.91 900.544 647.035 902.773C644.16 904.981 640.316 906.085 635.504 906.085C632.379 906.085 629.462 905.492 626.754 904.304C624.045 903.096 621.952 901.45 620.472 899.367C619.014 897.283 618.285 894.919 618.285 892.273H624.316C624.316 895.023 625.327 897.2 627.347 898.804C629.389 900.387 632.108 901.179 635.504 901.179C638.67 901.179 641.097 900.533 642.785 899.242C644.472 897.95 645.316 896.189 645.316 893.96C645.316 891.731 644.535 890.012 642.972 888.804C641.41 887.575 638.577 886.367 634.472 885.179Z" fill="black"/>
<rect x="218" y="166" width="517" height="474.577" rx="19" fill="#D3D3D3"/>
<path d="M364.096 308.562C363.533 313.375 361.752 317.094 358.752 319.719C355.773 322.323 351.804 323.625 346.846 323.625C341.471 323.625 337.158 321.698 333.908 317.844C330.679 313.99 329.064 308.833 329.064 302.375V298C329.064 293.771 329.814 290.052 331.314 286.844C332.835 283.635 334.981 281.177 337.752 279.469C340.523 277.74 343.731 276.875 347.377 276.875C352.21 276.875 356.085 278.229 359.002 280.938C361.919 283.625 363.616 287.354 364.096 292.125H358.064C357.544 288.5 356.408 285.875 354.658 284.25C352.929 282.625 350.502 281.812 347.377 281.812C343.544 281.812 340.533 283.229 338.346 286.062C336.179 288.896 335.096 292.927 335.096 298.156V302.562C335.096 307.5 336.127 311.427 338.189 314.344C340.252 317.26 343.137 318.719 346.846 318.719C350.179 318.719 352.731 317.969 354.502 316.469C356.294 314.948 357.481 312.312 358.064 308.562H364.096ZM389.002 304.594H378.314V323H372.283V277.5H387.346C392.471 277.5 396.408 278.667 399.158 281C401.929 283.333 403.314 286.729 403.314 291.188C403.314 294.021 402.544 296.49 401.002 298.594C399.481 300.698 397.356 302.271 394.627 303.312L405.314 322.625V323H398.877L389.002 304.594ZM378.314 299.688H387.533C390.512 299.688 392.877 298.917 394.627 297.375C396.398 295.833 397.283 293.771 397.283 291.188C397.283 288.375 396.439 286.219 394.752 284.719C393.085 283.219 390.669 282.458 387.502 282.438H378.314V299.688ZM446.752 301.719C446.752 306.177 446.002 310.073 444.502 313.406C443.002 316.719 440.877 319.25 438.127 321C435.377 322.75 432.169 323.625 428.502 323.625C424.919 323.625 421.741 322.75 418.971 321C416.2 319.229 414.044 316.719 412.502 313.469C410.981 310.198 410.2 306.417 410.158 302.125V298.844C410.158 294.469 410.919 290.604 412.439 287.25C413.96 283.896 416.106 281.333 418.877 279.562C421.669 277.771 424.856 276.875 428.439 276.875C432.085 276.875 435.294 277.76 438.064 279.531C440.856 281.281 443.002 283.833 444.502 287.188C446.002 290.521 446.752 294.406 446.752 298.844V301.719ZM440.783 298.781C440.783 293.385 439.7 289.25 437.533 286.375C435.366 283.479 432.335 282.031 428.439 282.031C424.648 282.031 421.658 283.479 419.471 286.375C417.304 289.25 416.189 293.25 416.127 298.375V301.719C416.127 306.948 417.221 311.062 419.408 314.062C421.616 317.042 424.648 318.531 428.502 318.531C432.377 318.531 435.377 317.125 437.502 314.312C439.627 311.479 440.721 307.427 440.783 302.156V298.781ZM461.752 305.188V323H455.752V277.5H472.533C477.512 277.5 481.408 278.771 484.221 281.312C487.054 283.854 488.471 287.219 488.471 291.406C488.471 295.823 487.085 299.229 484.314 301.625C481.564 304 477.616 305.188 472.471 305.188H461.752ZM461.752 300.281H472.533C475.741 300.281 478.2 299.531 479.908 298.031C481.616 296.51 482.471 294.323 482.471 291.469C482.471 288.76 481.616 286.594 479.908 284.969C478.2 283.344 475.856 282.5 472.877 282.438H461.752V300.281ZM507.252 306.031H492.002V301.312H507.252V306.031ZM545.252 282.438H530.627V323H524.658V282.438H510.064V277.5H545.252V282.438ZM586.127 301.719C586.127 306.177 585.377 310.073 583.877 313.406C582.377 316.719 580.252 319.25 577.502 321C574.752 322.75 571.543 323.625 567.877 323.625C564.293 323.625 561.116 322.75 558.346 321C555.575 319.229 553.418 316.719 551.877 313.469C550.356 310.198 549.575 306.417 549.533 302.125V298.844C549.533 294.469 550.293 290.604 551.814 287.25C553.335 283.896 555.481 281.333 558.252 279.562C561.043 277.771 564.231 276.875 567.814 276.875C571.46 276.875 574.668 277.76 577.439 279.531C580.231 281.281 582.377 283.833 583.877 287.188C585.377 290.521 586.127 294.406 586.127 298.844V301.719ZM580.158 298.781C580.158 293.385 579.075 289.25 576.908 286.375C574.741 283.479 571.71 282.031 567.814 282.031C564.023 282.031 561.033 283.479 558.846 286.375C556.679 289.25 555.564 293.25 555.502 298.375V301.719C555.502 306.948 556.596 311.062 558.783 314.062C560.991 317.042 564.023 318.531 567.877 318.531C571.752 318.531 574.752 317.125 576.877 314.312C579.002 311.479 580.096 307.427 580.158 302.156V298.781ZM601.127 305.188V323H595.127V277.5H611.908C616.887 277.5 620.783 278.771 623.596 281.312C626.429 283.854 627.846 287.219 627.846 291.406C627.846 295.823 626.46 299.229 623.689 301.625C620.939 304 616.991 305.188 611.846 305.188H601.127ZM601.127 300.281H611.908C615.116 300.281 617.575 299.531 619.283 298.031C620.991 296.51 621.846 294.323 621.846 291.469C621.846 288.76 620.991 286.594 619.283 284.969C617.575 283.344 615.231 282.5 612.252 282.438H601.127V300.281Z" fill="black"/>
<path d="M508.677 405L550.048 414.227L614.403 471.437L619 476.245L584.524 521.921L573.032 536.344L550.048 514.709V570H402.952V517.113V514.709L379.968 536.344L368.476 521.921L334 476.245L403.52 414.227L444.323 405C445.089 415.927 452.597 437.781 476.5 437.781C502.242 435.858 508.677 415.126 508.677 405Z" fill="#FFEBEB"/>
<path d="M550.048 414.227L508.677 405C508.677 415.126 502.242 435.858 476.5 437.781C452.597 437.781 445.089 415.927 444.323 405L403.52 414.227M550.048 414.227L614.403 471.437L619 476.245L584.524 521.921L573.032 536.344L550.048 514.709M550.048 414.227C546.218 432.657 540.855 474.322 550.048 514.709M403.52 414.227L334 476.245L368.476 521.921L379.968 536.344L402.952 514.709C402.952 542.751 402.952 538.614 402.952 570H550.048C550.048 538.749 550.048 542.884 550.048 514.709M403.52 414.227C407.35 432.657 412.145 476.726 402.952 517.113" stroke="black"/>
<path d="M549 555H404V543H549V555Z" fill="#F77474"/>
<path d="M551 531H402V517H551V531Z" fill="#F67474"/>
<path d="M609.26 467.003L562.49 525.89L555.59 519.603L602.36 460.716L609.26 467.003Z" fill="#F67474" stroke="#F67474"/>
<path d="M590.559 450.887L548.796 502.081L546.532 492.378L584.135 445.033L590.559 450.887Z" fill="#F67474" stroke="#F67474"/>
<path d="M571.432 435.164L546.531 465.696L546.531 453.567L565.008 429.31L571.432 435.164Z" fill="#F67474" stroke="#F67474"/>
<path d="M347.242 467.003L392.446 523.918L399.346 517.63L354.142 460.716L347.242 467.003Z" fill="#F67474" stroke="#F67474"/>
<path d="M365.943 450.887L404.512 497.974L407.409 488.295L372.763 444.673L365.943 450.887Z" fill="#F67474" stroke="#F67474"/>
<path d="M385.07 435.164L407.399 462.457L407.985 451.067L391.494 429.31L385.07 435.164Z" fill="#F67474" stroke="#F67474"/>
<path d="M546.73 492.303H406V502H546.73V492.303Z" fill="#F67474"/>
<path d="M544.46 470.485H408.27V480.182H544.46V470.485Z" fill="#F67474"/>
<path d="M408.27 443.818V455.939H544.46V443.818H408.27Z" fill="#F67474"/>
<path d="M446.857 422H406V431.697H458.206L446.857 422Z" fill="#F67474"/>
<path d="M549 422H503.603L499.063 431.697H546.73L549 422Z" fill="#F67474"/>
<path d="M546.73 492.303H406V502H546.73V492.303Z" stroke="#F67474"/>
<path d="M544.46 470.485H408.27V480.182H544.46V470.485Z" stroke="#F67474"/>
<path d="M408.27 443.818V455.939H544.46V443.818H408.27Z" stroke="#F67474"/>
<path d="M446.857 422H406V431.697H458.206L446.857 422Z" stroke="#F67474"/>
<path d="M549 422H503.603L499.063 431.697H546.73L549 422Z" stroke="#F67474"/>
<path d="M550.048 414.227L508.677 405C508.677 415.126 502.242 435.858 476.5 437.781C452.597 437.781 445.089 415.927 444.323 405L403.52 414.227M550.048 414.227L614.403 471.437L619 476.245L584.524 521.921L573.032 536.344L550.048 514.709M550.048 414.227C546.218 432.657 540.855 474.322 550.048 514.709M403.52 414.227L334 476.245L368.476 521.921L379.968 536.344L402.952 514.709C402.952 542.751 402.952 538.614 402.952 570H550.048C550.048 538.749 550.048 542.884 550.048 514.709M403.52 414.227C407.35 432.657 412.145 476.726 402.952 517.113" stroke="black"/>
<path d="M452.429 403C473.209 404.155 484.663 404.253 504.571 403H510.438L515 406.273C515 416.382 507.7 437.08 478.5 439C451.386 439 442.869 417.182 442 406.273L446.562 403H452.429Z" fill="#F67474"/>
<path d="M510.438 403H504.571C484.663 404.253 473.209 404.155 452.429 403H446.562M510.438 403L515 406.273C515 416.382 507.7 437.08 478.5 439C451.386 439 442.869 417.182 442 406.273L446.562 403M510.438 403C510.04 404.83 508.626 410.037 507.438 412.6C503.434 421.239 494.585 429.668 478.5 429.4C462.544 429.134 453.708 420.992 449.659 412.6C448.415 410.023 446.971 404.812 446.562 403" stroke="black"/>
<path d="M501 415C485.497 417.457 472.183 417.23 456 415C459.154 421.117 466.035 428.803 478.462 428.996C490.989 429.192 497.881 421.297 501 415Z" fill="white" stroke="black"/>
<rect x="218" y="1359.42" width="517" height="474.577" rx="19" fill="#D3D3D3"/>
<path d="M478.82 1608.72L473.404 1644.06C478.046 1649.44 485.01 1665.42 475.725 1686.31C478.046 1743.17 468.761 1747.78 444.775 1750.08C425.587 1751.93 414.084 1738.05 410.731 1730.88L398.351 1687.85C389.685 1676.17 390.614 1659.42 392.161 1652.51C391.979 1652.06 391.902 1651.46 391.967 1650.73L389.066 1624.08C389.066 1594.58 409.699 1575.93 420.016 1570.3C446.013 1554.93 463.861 1563.9 469.535 1570.3C478.201 1577.06 479.336 1598.73 478.82 1608.72Z" fill="white"/>
<path d="M473.404 1644.06L442.454 1608.72V1601.8C438.121 1595.04 434.459 1598.98 433.169 1601.8V1608.72C400.942 1631.5 392.454 1645.18 391.967 1650.73M473.404 1644.06L478.82 1608.72C479.336 1598.73 478.201 1577.06 469.535 1570.3C463.861 1563.9 446.013 1554.93 420.016 1570.3C409.699 1575.93 389.066 1594.58 389.066 1624.08L391.967 1650.73M473.404 1644.06C478.046 1649.44 485.01 1665.42 475.725 1686.31M391.967 1650.73L392.161 1652.51M391.967 1650.73C391.902 1651.46 391.979 1652.06 392.161 1652.51M392.161 1652.51C390.614 1659.42 389.685 1676.17 398.351 1687.85M398.351 1687.85C405.779 1695.84 412.278 1698.86 414.6 1699.38C421.408 1699.99 420.016 1695.53 418.468 1693.23L414.6 1691.69C397.887 1678.17 397.835 1661.98 399.899 1655.58C403.612 1639.6 426.206 1623.31 437.038 1617.17C442.97 1623.06 457 1637.45 465.666 1647.9C474.332 1658.35 472.372 1670.18 470.309 1674.79L461.798 1687.85C461.179 1697.07 467.214 1695.28 470.309 1693.23L475.725 1686.31M398.351 1687.85L410.731 1730.88C414.084 1738.05 425.587 1751.93 444.775 1750.08C468.761 1747.78 478.046 1743.17 475.725 1686.31" stroke="black"/>
<path d="M508.393 1608.72L513.81 1644.06C509.167 1649.44 502.203 1665.42 511.488 1686.31C509.167 1743.17 518.452 1747.78 542.438 1750.08C561.627 1751.93 573.129 1738.05 576.482 1730.88L588.862 1687.85C597.528 1676.17 596.6 1659.42 595.052 1652.51C595.234 1652.06 595.311 1651.46 595.246 1650.73L598.147 1624.08C598.147 1594.58 577.514 1575.93 567.197 1570.3C541.2 1554.93 523.352 1563.9 517.678 1570.3C509.012 1577.06 507.878 1598.73 508.393 1608.72Z" fill="white"/>
<path d="M513.81 1644.06L544.759 1608.72V1601.8C549.092 1595.04 552.754 1598.98 554.044 1601.8V1608.72C586.272 1631.5 594.76 1645.18 595.246 1650.73M513.81 1644.06L508.393 1608.72C507.878 1598.73 509.012 1577.06 517.678 1570.3C523.352 1563.9 541.2 1554.93 567.197 1570.3C577.514 1575.93 598.147 1594.58 598.147 1624.08L595.246 1650.73M513.81 1644.06C509.167 1649.44 502.203 1665.42 511.488 1686.31M595.246 1650.73L595.052 1652.51M595.246 1650.73C595.311 1651.46 595.234 1652.06 595.052 1652.51M595.052 1652.51C596.6 1659.42 597.528 1676.17 588.862 1687.85M588.862 1687.85C581.434 1695.84 574.935 1698.86 572.614 1699.38C565.805 1699.99 567.197 1695.53 568.745 1693.23L572.614 1691.69C589.326 1678.17 589.378 1661.98 587.315 1655.58C583.601 1639.6 561.008 1623.31 550.175 1617.17C544.243 1623.06 530.213 1637.45 521.547 1647.9C512.881 1658.35 514.841 1670.18 516.905 1674.79L525.416 1687.85C526.035 1697.07 519.999 1695.28 516.905 1693.23L511.488 1686.31M588.862 1687.85L576.482 1730.88C573.129 1738.05 561.627 1751.93 542.438 1750.08C518.452 1747.78 509.167 1743.17 511.488 1686.31" stroke="black"/>
<path d="M435.781 1601.8V1608.72C404.423 1631.5 396.164 1645.18 395.69 1650.73L395.879 1652.51C395.702 1652.06 395.627 1651.46 395.69 1650.73L392.868 1624.08C392.868 1594.58 412.944 1575.93 422.982 1570.3C448.278 1554.93 465.644 1563.9 471.165 1570.3C479.597 1577.06 480.702 1598.73 480.2 1608.72L474.93 1644.06L444.815 1608.72V1601.8C440.599 1595.04 437.036 1598.98 435.781 1601.8Z" fill="black"/>
<path d="M403.408 1655.58C407.021 1639.6 429.005 1623.31 439.545 1617.17C445.317 1623.06 458.969 1637.45 467.401 1647.9C475.833 1658.35 473.926 1670.18 471.918 1674.79L463.637 1687.85C463.034 1697.07 468.907 1695.28 471.918 1693.23L477.188 1686.31C479.447 1743.17 470.412 1747.78 447.074 1750.08C428.403 1751.93 417.21 1738.05 413.948 1730.88L401.902 1687.85C409.129 1695.84 415.453 1698.86 417.712 1699.38C424.337 1699.99 422.982 1695.53 421.476 1693.23L417.712 1691.69C401.45 1678.17 401.4 1661.98 403.408 1655.58Z" fill="black"/>
<path d="M435.781 1608.72V1601.8C437.036 1598.98 440.599 1595.04 444.815 1601.8V1608.72L474.93 1644.06L480.2 1608.72C480.702 1598.73 479.597 1577.06 471.165 1570.3C465.644 1563.9 448.278 1554.93 422.982 1570.3C412.944 1575.93 392.868 1594.58 392.868 1624.08L395.879 1652.51C394.373 1648.67 400.246 1634.53 435.781 1608.72ZM439.545 1617.17C429.005 1623.31 407.021 1639.6 403.408 1655.58C401.4 1661.98 401.45 1678.17 417.712 1691.69L421.476 1693.23C422.982 1695.53 424.337 1699.99 417.712 1699.38C415.453 1698.86 409.129 1695.84 401.902 1687.85L413.948 1730.88C417.21 1738.05 428.403 1751.93 447.074 1750.08C470.412 1747.78 479.447 1743.17 477.188 1686.31L471.918 1693.23C468.907 1695.28 463.034 1697.07 463.637 1687.85L471.918 1674.79C473.926 1670.18 475.833 1658.35 467.401 1647.9C458.969 1637.45 445.317 1623.06 439.545 1617.17Z" stroke="black"/>
<path d="M553.368 1598.31V1605.23C586.09 1628.01 594.708 1641.69 595.202 1647.24L595.005 1649.02C595.189 1648.57 595.268 1647.97 595.202 1647.24L598.147 1620.59C598.147 1591.09 577.198 1572.45 566.723 1566.81C540.327 1551.44 522.206 1560.41 516.445 1566.81C507.646 1573.57 506.494 1595.24 507.018 1605.23L512.517 1640.57L543.941 1605.23V1598.31C548.34 1591.55 552.059 1595.49 553.368 1598.31Z" fill="black"/>
<path d="M587.149 1652.09C583.378 1636.11 560.438 1619.82 549.44 1613.68C543.417 1619.57 529.172 1633.96 520.373 1644.41C511.574 1654.86 513.565 1666.69 515.66 1671.3L524.301 1684.36C524.93 1693.58 518.802 1691.79 515.66 1689.74L510.16 1682.83C507.804 1739.68 517.231 1744.29 541.584 1746.59C561.067 1748.44 572.746 1734.56 576.15 1727.39L588.72 1684.36C581.178 1692.35 574.579 1695.37 572.222 1695.89C565.309 1696.5 566.723 1692.04 568.294 1689.74L572.222 1688.2C589.191 1674.68 589.244 1658.5 587.149 1652.09Z" fill="black"/>
<path d="M553.368 1605.23V1598.31C552.059 1595.49 548.34 1591.55 543.941 1598.31V1605.23L512.517 1640.57L507.018 1605.23C506.494 1595.24 507.646 1573.57 516.445 1566.81C522.206 1560.41 540.327 1551.44 566.723 1566.81C577.198 1572.45 598.147 1591.09 598.147 1620.59L595.005 1649.02C596.576 1645.18 590.448 1631.04 553.368 1605.23ZM549.44 1613.68C560.438 1619.82 583.378 1636.11 587.149 1652.09C589.244 1658.5 589.191 1674.68 572.222 1688.2L568.294 1689.74C566.723 1692.04 565.309 1696.5 572.222 1695.89C574.579 1695.37 581.178 1692.35 588.72 1684.36L576.15 1727.39C572.746 1734.56 561.067 1748.44 541.584 1746.59C517.231 1744.29 507.804 1739.68 510.16 1682.83L515.66 1689.74C518.802 1691.79 524.93 1693.58 524.301 1684.36L515.66 1671.3C513.565 1666.69 511.574 1654.86 520.373 1644.41C529.172 1633.96 543.417 1619.57 549.44 1613.68Z" stroke="black"/>
<path d="M371.857 1457.46C366.711 1455.98 362.961 1454.17 360.607 1452.03C358.273 1449.86 357.107 1447.19 357.107 1444.03C357.107 1440.44 358.534 1437.48 361.388 1435.15C364.263 1432.8 367.992 1431.62 372.575 1431.62C375.7 1431.62 378.482 1432.22 380.919 1433.43C383.377 1434.64 385.273 1436.31 386.607 1438.43C387.961 1440.56 388.638 1442.88 388.638 1445.4H382.607C382.607 1442.65 381.732 1440.49 379.982 1438.93C378.232 1437.35 375.763 1436.56 372.575 1436.56C369.617 1436.56 367.304 1437.21 365.638 1438.53C363.992 1439.82 363.169 1441.62 363.169 1443.93C363.169 1445.79 363.95 1447.36 365.513 1448.65C367.096 1449.92 369.773 1451.09 373.544 1452.15C377.336 1453.21 380.294 1454.39 382.419 1455.68C384.565 1456.95 386.148 1458.44 387.169 1460.15C388.211 1461.86 388.732 1463.87 388.732 1466.18C388.732 1469.87 387.294 1472.83 384.419 1475.06C381.544 1477.27 377.7 1478.37 372.888 1478.37C369.763 1478.37 366.846 1477.78 364.138 1476.59C361.429 1475.38 359.336 1473.73 357.857 1471.65C356.398 1469.57 355.669 1467.2 355.669 1464.56H361.7C361.7 1467.31 362.711 1469.48 364.732 1471.09C366.773 1472.67 369.492 1473.46 372.888 1473.46C376.054 1473.46 378.482 1472.82 380.169 1471.53C381.857 1470.23 382.7 1468.47 382.7 1466.24C382.7 1464.02 381.919 1462.3 380.357 1461.09C378.794 1459.86 375.961 1458.65 371.857 1457.46ZM421.575 1465.87H402.513L398.232 1477.74H392.044L409.419 1432.24H414.669L432.075 1477.74H425.919L421.575 1465.87ZM404.325 1460.93H419.794L412.044 1439.65L404.325 1460.93ZM473.169 1477.74H467.138L444.232 1442.68V1477.74H438.2V1432.24H444.232L467.2 1467.46V1432.24H473.169V1477.74ZM483.825 1477.74V1432.24H496.669C500.627 1432.24 504.127 1433.12 507.169 1434.87C510.211 1436.62 512.554 1439.11 514.2 1442.34C515.867 1445.57 516.711 1449.28 516.732 1453.46V1456.37C516.732 1460.66 515.898 1464.42 514.232 1467.65C512.586 1470.88 510.221 1473.36 507.138 1475.09C504.075 1476.82 500.502 1477.7 496.419 1477.74H483.825ZM489.825 1437.18V1472.84H496.138C500.763 1472.84 504.357 1471.4 506.919 1468.53C509.502 1465.65 510.794 1461.56 510.794 1456.24V1453.59C510.794 1448.42 509.575 1444.41 507.138 1441.56C504.721 1438.68 501.284 1437.22 496.825 1437.18H489.825ZM550.263 1465.87H531.2L526.919 1477.74H520.732L538.107 1432.24H543.357L560.763 1477.74H554.607L550.263 1465.87ZM533.013 1460.93H548.482L540.732 1439.65L533.013 1460.93ZM572.919 1472.84H594.482V1477.74H566.888V1432.24H572.919V1472.84ZM614.732 1457.46C609.586 1455.98 605.836 1454.17 603.482 1452.03C601.148 1449.86 599.982 1447.19 599.982 1444.03C599.982 1440.44 601.409 1437.48 604.263 1435.15C607.138 1432.8 610.867 1431.62 615.45 1431.62C618.575 1431.62 621.357 1432.22 623.794 1433.43C626.252 1434.64 628.148 1436.31 629.482 1438.43C630.836 1440.56 631.513 1442.88 631.513 1445.4H625.482C625.482 1442.65 624.607 1440.49 622.857 1438.93C621.107 1437.35 618.638 1436.56 615.45 1436.56C612.492 1436.56 610.179 1437.21 608.513 1438.53C606.867 1439.82 606.044 1441.62 606.044 1443.93C606.044 1445.79 606.825 1447.36 608.388 1448.65C609.971 1449.92 612.648 1451.09 616.419 1452.15C620.211 1453.21 623.169 1454.39 625.294 1455.68C627.44 1456.95 629.023 1458.44 630.044 1460.15C631.086 1461.86 631.607 1463.87 631.607 1466.18C631.607 1469.87 630.169 1472.83 627.294 1475.06C624.419 1477.27 620.575 1478.37 615.763 1478.37C612.638 1478.37 609.721 1477.78 607.013 1476.59C604.304 1475.38 602.211 1473.73 600.732 1471.65C599.273 1469.57 598.544 1467.2 598.544 1464.56H604.575C604.575 1467.31 605.586 1469.48 607.607 1471.09C609.648 1472.67 612.367 1473.46 615.763 1473.46C618.929 1473.46 621.357 1472.82 623.044 1471.53C624.732 1470.23 625.575 1468.47 625.575 1466.24C625.575 1464.02 624.794 1462.3 623.232 1461.09C621.669 1459.86 618.836 1458.65 614.732 1457.46Z" fill="black"/>
</svg>
