<svg width="952" height="2000" viewBox="0 0 952 2000" fill="none" xmlns="http://www.w3.org/2000/svg">
<rect width="952" height="2000" rx="100" fill="#C4C4C4"/>
<rect x="254.545" y="150" width="438.042" height="468.016" rx="19" fill="#D3D3D3"/>
<path d="M302 254.188V272H296V226.5H312.781C317.76 226.5 321.656 227.771 324.469 230.312C327.302 232.854 328.719 236.219 328.719 240.406C328.719 244.823 327.333 248.229 324.562 250.625C321.812 253 317.865 254.188 312.719 254.188H302ZM302 249.281H312.781C315.99 249.281 318.448 248.531 320.156 247.031C321.865 245.51 322.719 243.323 322.719 240.469C322.719 237.76 321.865 235.594 320.156 233.969C318.448 232.344 316.104 231.5 313.125 231.438H302V249.281ZM362.094 250.969H342.375V267.094H365.281V272H336.375V226.5H364.969V231.438H342.375V246.062H362.094V250.969ZM378.75 254.188V272H372.75V226.5H389.531C394.51 226.5 398.406 227.771 401.219 230.312C404.052 232.854 405.469 236.219 405.469 240.406C405.469 244.823 404.083 248.229 401.312 250.625C398.562 253 394.615 254.188 389.469 254.188H378.75ZM378.75 249.281H389.531C392.74 249.281 395.198 248.531 396.906 247.031C398.615 245.51 399.469 243.323 399.469 240.469C399.469 237.76 398.615 235.594 396.906 233.969C395.198 232.344 392.854 231.5 389.875 231.438H378.75V249.281ZM419.156 267.094H440.719V272H413.125V226.5H419.156V267.094ZM477.906 226.5V257.438C477.885 261.729 476.531 265.24 473.844 267.969C471.177 270.698 467.552 272.229 462.969 272.562L461.375 272.625C456.396 272.625 452.427 271.281 449.469 268.594C446.51 265.906 445.01 262.208 444.969 257.5V226.5H450.906V257.312C450.906 260.604 451.812 263.167 453.625 265C455.438 266.812 458.021 267.719 461.375 267.719C464.771 267.719 467.365 266.812 469.156 265C470.969 263.188 471.875 260.635 471.875 257.344V226.5H477.906ZM495.125 226.5L510 263.625L524.875 226.5H532.656V272H526.656V254.281L527.219 235.156L512.281 272H507.688L492.781 235.25L493.375 254.281V272H487.375V226.5H495.125ZM589.312 231.438H574.688V272H568.719V231.438H554.125V226.5H589.312V231.438ZM630.188 250.719C630.188 255.177 629.438 259.073 627.938 262.406C626.438 265.719 624.312 268.25 621.562 270C618.812 271.75 615.604 272.625 611.938 272.625C608.354 272.625 605.177 271.75 602.406 270C599.635 268.229 597.479 265.719 595.938 262.469C594.417 259.198 593.635 255.417 593.594 251.125V247.844C593.594 243.469 594.354 239.604 595.875 236.25C597.396 232.896 599.542 230.333 602.312 228.562C605.104 226.771 608.292 225.875 611.875 225.875C615.521 225.875 618.729 226.76 621.5 228.531C624.292 230.281 626.438 232.833 627.938 236.188C629.438 239.521 630.188 243.406 630.188 247.844V250.719ZM624.219 247.781C624.219 242.385 623.135 238.25 620.969 235.375C618.802 232.479 615.771 231.031 611.875 231.031C608.083 231.031 605.094 232.479 602.906 235.375C600.74 238.25 599.625 242.25 599.562 247.375V250.719C599.562 255.948 600.656 260.062 602.844 263.062C605.052 266.042 608.083 267.531 611.938 267.531C615.812 267.531 618.812 266.125 620.938 263.312C623.062 260.479 624.156 256.427 624.219 251.156V247.781ZM645.188 254.188V272H639.188V226.5H655.969C660.948 226.5 664.844 227.771 667.656 230.312C670.49 232.854 671.906 236.219 671.906 240.406C671.906 244.823 670.521 248.229 667.75 250.625C665 253 661.052 254.188 655.906 254.188H645.188ZM645.188 249.281H655.969C659.177 249.281 661.635 248.531 663.344 247.031C665.052 245.51 665.906 243.323 665.906 240.469C665.906 237.76 665.052 235.594 663.344 233.969C661.635 232.344 659.292 231.5 656.312 231.438H645.188V249.281Z" fill="black"/>
<path d="M437.114 353.036C444.323 363.911 467.871 379.134 504.395 353.036L535.633 365.583L511.604 483.526L547.647 551.28C542.04 556.299 528.904 564.831 521.215 558.808L518.812 568.846C513.206 572.191 499.109 576.876 487.575 568.846V561.317H458.74V568.846C451.531 571.355 434.711 574.868 425.1 568.846L427.202 558.808C419.293 560.481 402.032 561.317 396.265 551.28L432.308 483.526L408.279 365.583L437.114 353.036Z" fill="#DB4A4A"/>
<path d="M511.604 483.526L535.633 365.583L504.395 353.036C467.871 379.134 444.323 363.911 437.114 353.036L408.279 365.583L432.308 483.526M511.604 483.526L547.647 551.28C542.04 556.299 528.904 564.831 521.215 558.808M511.604 483.526H501.992M521.215 558.808L501.992 488.544M521.215 558.808L518.812 568.846C513.206 572.191 499.109 576.876 487.575 568.846V561.317M487.575 506.11V561.317M487.575 561.317H458.74V506.11V568.846C451.531 571.355 434.711 574.868 425.1 568.846L427.202 558.808M441.92 488.544L427.202 558.808M427.202 558.808C419.293 560.481 402.032 561.317 396.265 551.28L432.308 483.526M432.308 483.526H441.92M441.92 445.885V483.526M441.92 483.526H501.992M501.992 445.885V483.526" stroke="black"/>
<rect x="259.413" y="773.333" width="438.042" height="468.01" rx="19" fill="#D3D3D3"/>
<path d="M440.64 1007.34H515.94V1022.63C526.588 1034.53 543.321 1089.42 525.067 1213.81H431.513C407.783 1099.61 427.71 1038.78 440.64 1022.63V1007.34Z" fill="#383131"/>
<path d="M515.94 1022.63V1007.34H440.64V1022.63M515.94 1022.63C526.588 1034.53 543.321 1089.42 525.067 1213.81H431.513C407.783 1099.61 427.71 1038.78 440.64 1022.63M515.94 1022.63H440.64" stroke="black"/>
<path d="M351.469 865.438H336.844V906H330.875V865.438H316.281V860.5H351.469V865.438ZM390.25 860.5V891.438C390.229 895.729 388.875 899.24 386.188 901.969C383.521 904.698 379.896 906.229 375.312 906.562L373.719 906.625C368.74 906.625 364.771 905.281 361.812 902.594C358.854 899.906 357.354 896.208 357.312 891.5V860.5H363.25V891.312C363.25 894.604 364.156 897.167 365.969 899C367.781 900.812 370.365 901.719 373.719 901.719C377.115 901.719 379.708 900.812 381.5 899C383.312 897.188 384.219 894.635 384.219 891.344V860.5H390.25ZM399.719 906V860.5H414.594C419.531 860.5 423.24 861.521 425.719 863.562C428.219 865.604 429.469 868.625 429.469 872.625C429.469 874.75 428.865 876.635 427.656 878.281C426.448 879.906 424.802 881.167 422.719 882.062C425.177 882.75 427.115 884.062 428.531 886C429.969 887.917 430.688 890.208 430.688 892.875C430.688 896.958 429.365 900.167 426.719 902.5C424.073 904.833 420.333 906 415.5 906H399.719ZM405.719 884.719V901.094H415.625C418.417 901.094 420.615 900.375 422.219 898.938C423.844 897.479 424.656 895.479 424.656 892.938C424.656 887.458 421.677 884.719 415.719 884.719H405.719ZM405.719 879.906H414.781C417.406 879.906 419.5 879.25 421.062 877.938C422.646 876.625 423.438 874.844 423.438 872.594C423.438 870.094 422.708 868.281 421.25 867.156C419.792 866.01 417.573 865.438 414.594 865.438H405.719V879.906ZM465.312 884.969H445.594V901.094H468.5V906H439.594V860.5H468.188V865.438H445.594V880.062H465.312V884.969ZM505.25 885.719C500.104 884.24 496.354 882.427 494 880.281C491.667 878.115 490.5 875.448 490.5 872.281C490.5 868.698 491.927 865.74 494.781 863.406C497.656 861.052 501.385 859.875 505.969 859.875C509.094 859.875 511.875 860.479 514.312 861.688C516.771 862.896 518.667 864.562 520 866.688C521.354 868.812 522.031 871.135 522.031 873.656H516C516 870.906 515.125 868.75 513.375 867.188C511.625 865.604 509.156 864.812 505.969 864.812C503.01 864.812 500.698 865.469 499.031 866.781C497.385 868.073 496.562 869.875 496.562 872.188C496.562 874.042 497.344 875.615 498.906 876.906C500.49 878.177 503.167 879.344 506.938 880.406C510.729 881.469 513.688 882.646 515.812 883.938C517.958 885.208 519.542 886.698 520.562 888.406C521.604 890.115 522.125 892.125 522.125 894.438C522.125 898.125 520.688 901.083 517.812 903.312C514.938 905.521 511.094 906.625 506.281 906.625C503.156 906.625 500.24 906.031 497.531 904.844C494.823 903.635 492.729 901.99 491.25 899.906C489.792 897.823 489.062 895.458 489.062 892.812H495.094C495.094 895.562 496.104 897.74 498.125 899.344C500.167 900.927 502.885 901.719 506.281 901.719C509.448 901.719 511.875 901.073 513.562 899.781C515.25 898.49 516.094 896.729 516.094 894.5C516.094 892.271 515.312 890.552 513.75 889.344C512.188 888.115 509.354 886.906 505.25 885.719ZM541.406 884.844L535.844 890.625V906H529.844V860.5H535.844V883L556.062 860.5H563.312L545.406 880.594L564.719 906H557.531L541.406 884.844ZM576.406 906H570.406V860.5H576.406V906ZM604.094 887.594H593.406V906H587.375V860.5H602.438C607.562 860.5 611.5 861.667 614.25 864C617.021 866.333 618.406 869.729 618.406 874.188C618.406 877.021 617.635 879.49 616.094 881.594C614.573 883.698 612.448 885.271 609.719 886.312L620.406 905.625V906H613.969L604.094 887.594ZM593.406 882.688H602.625C605.604 882.688 607.969 881.917 609.719 880.375C611.49 878.833 612.375 876.771 612.375 874.188C612.375 871.375 611.531 869.219 609.844 867.719C608.177 866.219 605.76 865.458 602.594 865.438H593.406V882.688ZM655.781 865.438H641.156V906H635.188V865.438H620.594V860.5H655.781V865.438Z" fill="black"/>
<rect x="254.545" y="1379.67" width="438.042" height="468.016" rx="19" fill="#D3D3D3"/>
<path d="M421.342 1771.97H412.369V1687.09V1679.06C420.22 1679.53 439.96 1687.23 456.11 1714.19C473.247 1705.47 492.977 1706.69 502.094 1708.88C501.197 1732.74 518.17 1744.83 526.769 1747.89V1765.09H537.984V1771.97H526.769H521.161C479.697 1771.97 455.749 1743.33 445.283 1721.5C443.066 1716.88 441.454 1712.56 440.408 1708.88C439.219 1708.34 438.099 1708.03 437.044 1707.95C422.181 1706.74 420.295 1749.12 421.342 1771.97Z" fill="#5B5858"/>
<path d="M440.408 1708.88C441.454 1712.56 443.066 1716.88 445.283 1721.5M440.408 1708.88C439.219 1708.34 438.099 1708.03 437.044 1707.95C422.181 1706.74 420.295 1749.12 421.342 1771.97H412.369V1687.09M440.408 1708.88C435.121 1696.04 419.513 1689 412.369 1687.09M526.769 1765.09H537.984V1771.97H526.769M526.769 1765.09V1747.89C518.17 1744.83 501.197 1732.74 502.094 1708.88C492.977 1706.69 473.247 1705.47 456.11 1714.19M526.769 1765.09V1771.97M445.283 1721.5C455.749 1743.33 479.697 1771.97 521.161 1771.97H526.769M445.283 1721.5C448.671 1718.52 452.327 1716.11 456.11 1714.19M456.11 1714.19C439.96 1687.23 420.22 1679.53 412.369 1679.06V1687.09" stroke="black"/>
<path d="M528.322 1747.62V1765.02V1771.97H522.559C479.946 1771.97 455.335 1743.02 444.578 1720.95C448.06 1717.93 451.818 1715.5 455.706 1713.56C473.318 1704.75 493.594 1705.98 502.964 1708.2C502.042 1732.32 519.485 1744.53 528.322 1747.62Z" fill="black" stroke="black"/>
<path d="M418.121 1658.41H409.148V1573.53V1565.5C416.999 1565.97 436.739 1573.66 452.889 1600.62C470.026 1591.91 489.756 1593.13 498.873 1595.32C497.976 1619.18 514.949 1631.26 523.548 1634.32V1651.53H534.763V1658.41H523.548H517.94C476.476 1658.41 452.528 1629.77 442.062 1607.94C439.845 1603.32 438.233 1599 437.188 1595.32C435.998 1594.77 434.878 1594.47 433.823 1594.38C418.96 1593.18 417.074 1635.56 418.121 1658.41Z" fill="#5B5858"/>
<path d="M437.188 1595.32C438.233 1599 439.845 1603.32 442.062 1607.94M437.188 1595.32C435.998 1594.77 434.878 1594.47 433.823 1594.38C418.96 1593.18 417.074 1635.56 418.121 1658.41H409.148V1573.53M437.188 1595.32C431.9 1582.47 416.292 1575.44 409.148 1573.53M523.548 1651.53H534.763V1658.41H523.548M523.548 1651.53V1634.32C514.949 1631.26 497.976 1619.18 498.873 1595.32C489.756 1593.13 470.026 1591.91 452.889 1600.62M523.548 1651.53V1658.41M442.062 1607.94C452.528 1629.77 476.476 1658.41 517.94 1658.41H523.548M442.062 1607.94C445.45 1604.95 449.107 1602.55 452.889 1600.62M452.889 1600.62C436.739 1573.66 416.999 1565.97 409.148 1565.5V1573.53" stroke="black"/>
<path d="M525.101 1634.06V1651.45V1658.41H519.338C476.725 1658.41 452.114 1629.46 441.357 1607.39C444.839 1604.37 448.597 1601.94 452.485 1599.99C470.097 1591.19 490.373 1592.42 499.743 1594.63C498.821 1618.75 516.264 1630.97 525.101 1634.06Z" fill="black" stroke="black"/>
<path d="M338.75 1504H332.719V1482.97H309.781V1504H303.781V1458.5H309.781V1478.06H332.719V1458.5H338.75V1504ZM355.844 1504H349.844V1458.5H355.844V1504ZM400.438 1498.03C398.896 1500.24 396.74 1501.9 393.969 1503C391.219 1504.08 388.01 1504.62 384.344 1504.62C380.635 1504.62 377.344 1503.76 374.469 1502.03C371.594 1500.28 369.365 1497.8 367.781 1494.59C366.219 1491.39 365.417 1487.67 365.375 1483.44V1479.47C365.375 1472.61 366.969 1467.3 370.156 1463.53C373.365 1459.76 377.865 1457.88 383.656 1457.88C388.406 1457.88 392.229 1459.09 395.125 1461.53C398.021 1463.95 399.792 1467.39 400.438 1471.84H394.438C393.312 1465.82 389.729 1462.81 383.688 1462.81C379.667 1462.81 376.615 1464.23 374.531 1467.06C372.469 1469.88 371.427 1473.96 371.406 1479.31V1483.03C371.406 1488.14 372.573 1492.2 374.906 1495.22C377.24 1498.22 380.396 1499.72 384.375 1499.72C386.625 1499.72 388.594 1499.47 390.281 1498.97C391.969 1498.47 393.365 1497.62 394.469 1496.44V1486.22H383.938V1481.34H400.438V1498.03ZM445.438 1504H439.406V1482.97H416.469V1504H410.469V1458.5H416.469V1478.06H439.406V1458.5H445.438V1504ZM506.938 1504H500.906V1482.97H477.969V1504H471.969V1458.5H477.969V1478.06H500.906V1458.5H506.938V1504ZM543.312 1482.97H523.594V1499.09H546.5V1504H517.594V1458.5H546.188V1463.44H523.594V1478.06H543.312V1482.97ZM579.688 1482.97H559.969V1499.09H582.875V1504H553.969V1458.5H582.562V1463.44H559.969V1478.06H579.688V1482.97ZM596.375 1499.09H617.938V1504H590.344V1458.5H596.375V1499.09ZM638.188 1483.72C633.042 1482.24 629.292 1480.43 626.938 1478.28C624.604 1476.11 623.438 1473.45 623.438 1470.28C623.438 1466.7 624.865 1463.74 627.719 1461.41C630.594 1459.05 634.323 1457.88 638.906 1457.88C642.031 1457.88 644.812 1458.48 647.25 1459.69C649.708 1460.9 651.604 1462.56 652.938 1464.69C654.292 1466.81 654.969 1469.14 654.969 1471.66H648.938C648.938 1468.91 648.062 1466.75 646.312 1465.19C644.562 1463.6 642.094 1462.81 638.906 1462.81C635.948 1462.81 633.635 1463.47 631.969 1464.78C630.323 1466.07 629.5 1467.88 629.5 1470.19C629.5 1472.04 630.281 1473.61 631.844 1474.91C633.427 1476.18 636.104 1477.34 639.875 1478.41C643.667 1479.47 646.625 1480.65 648.75 1481.94C650.896 1483.21 652.479 1484.7 653.5 1486.41C654.542 1488.11 655.062 1490.12 655.062 1492.44C655.062 1496.12 653.625 1499.08 650.75 1501.31C647.875 1503.52 644.031 1504.62 639.219 1504.62C636.094 1504.62 633.177 1504.03 630.469 1502.84C627.76 1501.64 625.667 1499.99 624.188 1497.91C622.729 1495.82 622 1493.46 622 1490.81H628.031C628.031 1493.56 629.042 1495.74 631.062 1497.34C633.104 1498.93 635.823 1499.72 639.219 1499.72C642.385 1499.72 644.812 1499.07 646.5 1497.78C648.188 1496.49 649.031 1494.73 649.031 1492.5C649.031 1490.27 648.25 1488.55 646.688 1487.34C645.125 1486.11 642.292 1484.91 638.188 1483.72Z" fill="black"/>
</svg>
