<svg width="952" height="2000" viewBox="0 0 952 2000" fill="none" xmlns="http://www.w3.org/2000/svg">
<rect width="952" height="2000" rx="100" fill="#C4C4C4"/>
<rect x="276" y="1064.69" width="400" height="347.689" rx="19" fill="#D3D3D3"/>
<path d="M511.294 1238.54V1247.24L510.641 1263.55L505.807 1384.26H494.832H483.858L476 1285.83L467.396 1384.26H455.873H444.349L438.549 1263.55L437.765 1247.24V1238.54H455.873H472.335H478.371H494.832H511.294Z" fill="#513B1A"/>
<path d="M511.294 1247.24V1238.54H494.832M511.294 1247.24H502.515M511.294 1247.24L505.807 1384.26H494.832M437.765 1247.24H448.739M437.765 1247.24L444.349 1384.26H455.873M437.765 1247.24V1238.54H455.873M476 1285.83L467.396 1290.94M476 1285.83L483.858 1290.94M476 1285.83L467.396 1384.26H455.873M476 1285.83L483.858 1384.26H494.832M448.739 1247.24C446.363 1258.47 446.839 1256.77 438.549 1263.55M448.739 1247.24H455.873M502.515 1247.24C503.865 1258.49 502.578 1256.92 510.641 1263.55M502.515 1247.24H494.832M472.335 1238.54V1263.55H478.371V1257.02C478.371 1252.67 478.371 1242.89 478.371 1238.54M455.873 1384.26V1247.24M455.873 1247.24H494.832M455.873 1247.24V1238.54M494.832 1384.26V1247.24M494.832 1247.24V1238.54M455.873 1238.54H494.832" stroke="black"/>
<path d="M376.669 1131.79C372.809 1130.68 369.997 1129.32 368.231 1127.71C366.481 1126.09 365.606 1124.09 365.606 1121.71C365.606 1119.02 366.676 1116.8 368.817 1115.05C370.973 1113.29 373.77 1112.41 377.208 1112.41C379.551 1112.41 381.637 1112.86 383.466 1113.77C385.309 1114.67 386.731 1115.92 387.731 1117.52C388.747 1119.11 389.255 1120.85 389.255 1122.74H384.731C384.731 1120.68 384.075 1119.06 382.762 1117.89C381.45 1116.7 379.598 1116.11 377.208 1116.11C374.989 1116.11 373.255 1116.6 372.005 1117.59C370.77 1118.55 370.153 1119.91 370.153 1121.64C370.153 1123.03 370.739 1124.21 371.911 1125.18C373.098 1126.13 375.106 1127.01 377.934 1127.8C380.778 1128.6 382.997 1129.48 384.591 1130.45C386.2 1131.41 387.387 1132.52 388.153 1133.8C388.934 1135.09 389.325 1136.59 389.325 1138.33C389.325 1141.09 388.247 1143.31 386.091 1144.98C383.934 1146.64 381.051 1147.47 377.442 1147.47C375.098 1147.47 372.911 1147.02 370.88 1146.13C368.848 1145.23 367.278 1143.99 366.169 1142.43C365.075 1140.87 364.528 1139.09 364.528 1137.11H369.051C369.051 1139.17 369.809 1140.8 371.325 1142.01C372.856 1143.2 374.895 1143.79 377.442 1143.79C379.817 1143.79 381.637 1143.3 382.903 1142.34C384.169 1141.37 384.801 1140.05 384.801 1138.38C384.801 1136.7 384.216 1135.41 383.044 1134.51C381.872 1133.59 379.747 1132.68 376.669 1131.79ZM418.692 1116.58H407.723V1147H403.247V1116.58H392.301V1112.88H418.692V1116.58ZM436.27 1133.2H428.255V1147H423.731V1112.88H435.028C438.872 1112.88 441.825 1113.75 443.887 1115.5C445.966 1117.25 447.005 1119.8 447.005 1123.14C447.005 1125.27 446.426 1127.12 445.27 1128.7C444.13 1130.27 442.536 1131.45 440.489 1132.23L448.505 1146.72V1147H443.676L436.27 1133.2ZM428.255 1129.52H435.169C437.403 1129.52 439.176 1128.94 440.489 1127.78C441.817 1126.62 442.481 1125.08 442.481 1123.14C442.481 1121.03 441.848 1119.41 440.583 1118.29C439.333 1117.16 437.52 1116.59 435.145 1116.58H428.255V1129.52ZM472.176 1138.09H457.88L454.669 1147H450.028L463.059 1112.88H466.997L480.051 1147H475.434L472.176 1138.09ZM459.239 1134.39H470.841L465.028 1118.43L459.239 1134.39ZM489.473 1147H484.973V1112.88H489.473V1147ZM522.919 1142.52C521.762 1144.18 520.145 1145.42 518.067 1146.25C516.005 1147.06 513.598 1147.47 510.848 1147.47C508.067 1147.47 505.598 1146.82 503.442 1145.52C501.286 1144.21 499.614 1142.35 498.426 1139.95C497.255 1137.54 496.653 1134.75 496.622 1131.58V1128.6C496.622 1123.46 497.817 1119.48 500.208 1116.65C502.614 1113.82 505.989 1112.41 510.333 1112.41C513.895 1112.41 516.762 1113.32 518.934 1115.15C521.106 1116.96 522.434 1119.54 522.919 1122.88H518.419C517.575 1118.37 514.887 1116.11 510.356 1116.11C507.341 1116.11 505.051 1117.17 503.489 1119.3C501.942 1121.41 501.161 1124.47 501.145 1128.48V1131.27C501.145 1135.1 502.02 1138.15 503.77 1140.41C505.52 1142.66 507.887 1143.79 510.872 1143.79C512.559 1143.79 514.036 1143.6 515.301 1143.23C516.567 1142.85 517.614 1142.22 518.442 1141.33V1133.66H510.544V1130.01H522.919V1142.52ZM556.669 1147H552.145V1131.23H534.942V1147H530.442V1112.88H534.942V1127.55H552.145V1112.88H556.669V1147ZM587.536 1116.58H576.567V1147H572.091V1116.58H561.145V1112.88H587.536V1116.58ZM409.317 1189.64V1203H404.817V1168.88H417.403C421.137 1168.88 424.059 1169.83 426.169 1171.73C428.294 1173.64 429.356 1176.16 429.356 1179.3C429.356 1182.62 428.317 1185.17 426.239 1186.97C424.176 1188.75 421.216 1189.64 417.356 1189.64H409.317ZM409.317 1185.96H417.403C419.809 1185.96 421.653 1185.4 422.934 1184.27C424.216 1183.13 424.856 1181.49 424.856 1179.35C424.856 1177.32 424.216 1175.7 422.934 1174.48C421.653 1173.26 419.895 1172.62 417.661 1172.58H409.317V1185.96ZM450.708 1194.09H436.411L433.2 1203H428.559L441.591 1168.88H445.528L458.583 1203H453.966L450.708 1194.09ZM437.77 1190.39H449.372L443.559 1174.43L437.77 1190.39ZM489.403 1203H484.88L467.7 1176.7V1203H463.176V1168.88H467.7L484.926 1195.29V1168.88H489.403V1203ZM520.27 1172.58H509.301V1203H504.825V1172.58H493.88V1168.88H520.27V1172.58ZM535.012 1187.79C531.153 1186.68 528.341 1185.32 526.575 1183.71C524.825 1182.09 523.95 1180.09 523.95 1177.71C523.95 1175.02 525.02 1172.8 527.161 1171.05C529.317 1169.29 532.114 1168.41 535.551 1168.41C537.895 1168.41 539.981 1168.86 541.809 1169.77C543.653 1170.67 545.075 1171.92 546.075 1173.52C547.091 1175.11 547.598 1176.85 547.598 1178.74H543.075C543.075 1176.68 542.419 1175.06 541.106 1173.89C539.794 1172.7 537.942 1172.11 535.551 1172.11C533.333 1172.11 531.598 1172.6 530.348 1173.59C529.114 1174.55 528.497 1175.91 528.497 1177.64C528.497 1179.03 529.083 1180.21 530.255 1181.18C531.442 1182.13 533.45 1183.01 536.278 1183.8C539.122 1184.6 541.341 1185.48 542.934 1186.45C544.544 1187.41 545.731 1188.52 546.497 1189.8C547.278 1191.09 547.669 1192.59 547.669 1194.33C547.669 1197.09 546.591 1199.31 544.434 1200.98C542.278 1202.64 539.395 1203.47 535.786 1203.47C533.442 1203.47 531.255 1203.02 529.223 1202.13C527.192 1201.23 525.622 1199.99 524.512 1198.43C523.419 1196.87 522.872 1195.09 522.872 1193.11H527.395C527.395 1195.17 528.153 1196.8 529.669 1198.01C531.2 1199.2 533.239 1199.79 535.786 1199.79C538.161 1199.79 539.981 1199.3 541.247 1198.34C542.512 1197.37 543.145 1196.05 543.145 1194.38C543.145 1192.7 542.559 1191.41 541.387 1190.51C540.216 1189.59 538.091 1188.68 535.012 1187.79Z" fill="black"/>
<rect x="276" y="607.072" width="400" height="347.689" rx="19" fill="#D3D3D3"/>
<path d="M457.765 763.021H489.529L500.118 771.383L521.294 779.745L531.882 784.306L517.064 829.159C517.328 844.745 518.535 864.137 521.294 887.695C501.882 892.003 455.823 898.034 426.882 887.695C428.503 873.225 430.448 850.439 431.01 829.159L417.176 784.306L426.882 779.745L446.294 771.383L457.765 763.021Z" fill="#FFFDFD"/>
<path d="M457.765 763.021H489.529M457.765 763.021L446.294 771.383M457.765 763.021L474.529 779.745M489.529 763.021L500.118 771.383M489.529 763.021L474.529 779.745M500.118 771.383L521.294 779.745M500.118 771.383L474.529 791.148M521.294 779.745L531.882 784.306L517.064 829.159M521.294 779.745C519.209 785.136 516.585 800.887 517.064 829.159M426.882 779.745L446.294 771.383M426.882 779.745L417.176 784.306L431.01 829.159M426.882 779.745C430.758 788.244 431.571 807.954 431.01 829.159M446.294 771.383L474.529 791.148M474.529 779.745V791.148M474.529 791.148V823.077M431.01 829.159C430.448 850.439 428.503 873.225 426.882 887.695C455.823 898.034 501.882 892.003 521.294 887.695C518.535 864.137 517.328 844.745 517.064 829.159" stroke="black"/>
<path d="M378.219 696.488C377.797 700.097 376.461 702.886 374.211 704.855C371.977 706.808 369 707.784 365.281 707.784C361.25 707.784 358.016 706.339 355.578 703.449C353.156 700.558 351.945 696.691 351.945 691.847V688.566C351.945 685.394 352.508 682.605 353.633 680.199C354.773 677.792 356.383 675.949 358.461 674.667C360.539 673.37 362.945 672.722 365.68 672.722C369.305 672.722 372.211 673.738 374.398 675.769C376.586 677.784 377.859 680.581 378.219 684.159H373.695C373.305 681.441 372.453 679.472 371.141 678.253C369.844 677.034 368.023 676.425 365.68 676.425C362.805 676.425 360.547 677.488 358.906 679.613C357.281 681.738 356.469 684.761 356.469 688.683V691.988C356.469 695.691 357.242 698.636 358.789 700.824C360.336 703.011 362.5 704.105 365.281 704.105C367.781 704.105 369.695 703.542 371.023 702.417C372.367 701.277 373.258 699.3 373.695 696.488H378.219ZM410.633 691.355C410.633 694.699 410.07 697.62 408.945 700.12C407.82 702.605 406.227 704.503 404.164 705.816C402.102 707.128 399.695 707.784 396.945 707.784C394.258 707.784 391.875 707.128 389.797 705.816C387.719 704.488 386.102 702.605 384.945 700.167C383.805 697.714 383.219 694.878 383.187 691.659V689.199C383.187 685.917 383.758 683.019 384.898 680.503C386.039 677.988 387.648 676.066 389.727 674.738C391.82 673.394 394.211 672.722 396.898 672.722C399.633 672.722 402.039 673.386 404.117 674.714C406.211 676.027 407.82 677.941 408.945 680.456C410.07 682.956 410.633 685.87 410.633 689.199V691.355ZM406.156 689.152C406.156 685.105 405.344 682.003 403.719 679.847C402.094 677.675 399.82 676.589 396.898 676.589C394.055 676.589 391.812 677.675 390.172 679.847C388.547 682.003 387.711 685.003 387.664 688.847V691.355C387.664 695.277 388.484 698.363 390.125 700.613C391.781 702.847 394.055 703.964 396.945 703.964C399.852 703.964 402.102 702.909 403.695 700.8C405.289 698.675 406.109 695.636 406.156 691.683V689.152ZM421.906 703.636H438.078V707.316H417.383V673.191H421.906V703.636ZM462.523 698.409H448.227L445.016 707.316H440.375L453.406 673.191H457.344L470.398 707.316H465.781L462.523 698.409ZM449.586 694.706H461.187L455.375 678.745L449.586 694.706ZM487.508 693.511H479.492V707.316H474.969V673.191H486.266C490.109 673.191 493.062 674.066 495.125 675.816C497.203 677.566 498.242 680.113 498.242 683.456C498.242 685.581 497.664 687.433 496.508 689.011C495.367 690.589 493.773 691.769 491.727 692.55L499.742 707.034V707.316H494.914L487.508 693.511ZM479.492 689.831H486.406C488.641 689.831 490.414 689.253 491.727 688.097C493.055 686.941 493.719 685.394 493.719 683.456C493.719 681.347 493.086 679.73 491.82 678.605C490.57 677.48 488.758 676.909 486.383 676.894H479.492V689.831ZM539.117 676.894H528.148V707.316H523.672V676.894H512.727V673.191H539.117V676.894ZM569.773 691.355C569.773 694.699 569.211 697.62 568.086 700.12C566.961 702.605 565.367 704.503 563.305 705.816C561.242 707.128 558.836 707.784 556.086 707.784C553.398 707.784 551.016 707.128 548.937 705.816C546.859 704.488 545.242 702.605 544.086 700.167C542.945 697.714 542.359 694.878 542.328 691.659V689.199C542.328 685.917 542.898 683.019 544.039 680.503C545.18 677.988 546.789 676.066 548.867 674.738C550.961 673.394 553.352 672.722 556.039 672.722C558.773 672.722 561.18 673.386 563.258 674.714C565.352 676.027 566.961 677.941 568.086 680.456C569.211 682.956 569.773 685.87 569.773 689.199V691.355ZM565.297 689.152C565.297 685.105 564.484 682.003 562.859 679.847C561.234 677.675 558.961 676.589 556.039 676.589C553.195 676.589 550.953 677.675 549.312 679.847C547.687 682.003 546.852 685.003 546.805 688.847V691.355C546.805 695.277 547.625 698.363 549.266 700.613C550.922 702.847 553.195 703.964 556.086 703.964C558.992 703.964 561.242 702.909 562.836 700.8C564.43 698.675 565.25 695.636 565.297 691.683V689.152ZM581.023 693.956V707.316H576.523V673.191H589.109C592.844 673.191 595.766 674.144 597.875 676.05C600 677.956 601.062 680.48 601.062 683.62C601.062 686.933 600.023 689.488 597.945 691.284C595.883 693.066 592.922 693.956 589.062 693.956H581.023ZM581.023 690.277H589.109C591.516 690.277 593.359 689.714 594.641 688.589C595.922 687.449 596.562 685.808 596.562 683.667C596.562 681.636 595.922 680.011 594.641 678.792C593.359 677.574 591.602 676.941 589.367 676.894H581.023V690.277Z" fill="black"/>
<rect x="276" y="129" width="400" height="347.689" rx="19" fill="#D3D3D3"/>
<path d="M462.98 282.392H489.182L498.887 289.426L517.326 295.581C521.854 294.408 531.106 311.231 531.882 387.9L519.267 389.658V431.861C517.002 435.671 508.592 444.347 493.064 448.567L492.736 434.499H459.427L459.098 448.567C442.018 442.236 435.16 434.792 433.867 431.861V389.658L420.28 387.9C418.727 317.561 428.691 297.046 433.867 295.581L454.246 289.426L462.98 282.392Z" fill="#CAA978"/>
<path d="M462.98 282.392H489.182M462.98 282.392V289.426H489.347M462.98 282.392L454.246 289.426M462.98 282.392L460.803 375.591M489.182 282.392L498.887 289.426M489.182 282.392L489.347 289.426M498.887 289.426L517.326 295.581M498.887 289.426C502.926 304.08 507.076 341.828 491.36 375.591M517.326 295.581C521.854 294.408 531.106 311.231 531.883 387.9L519.267 389.658M517.326 295.581C513.767 311.407 509.174 352.379 519.267 389.658M519.267 389.658V431.861C517.002 435.671 508.592 444.347 493.064 448.567L492.736 434.499M489.347 289.426L491.36 375.591M454.246 289.426L433.867 295.581M454.246 289.426C449.56 301.442 444.31 335.498 460.803 375.591M433.867 295.581C428.691 297.046 418.727 317.561 420.28 387.9L433.867 389.658M433.867 295.581C436.454 314.337 440.078 359.413 433.867 389.658M433.867 389.658V431.861C435.16 434.792 442.018 442.236 459.098 448.567L459.427 434.499M460.803 375.591L459.427 434.499M491.36 375.591L492.736 434.499M459.427 434.499H492.736" stroke="black"/>
<path d="M462.98 282.392H489.182L498.887 289.426C502.926 304.08 507.076 341.828 491.359 375.591L489.347 289.426H462.98V282.392L460.803 375.591C444.31 335.498 449.56 301.442 454.246 289.426L462.98 282.392Z" fill="#53442F"/>
<path d="M462.98 282.392H489.182M462.98 282.392V289.426H489.347M462.98 282.392L454.246 289.426C449.56 301.442 444.31 335.498 460.803 375.591L462.98 282.392ZM489.182 282.392L498.887 289.426C502.926 304.08 507.076 341.828 491.359 375.591L489.347 289.426M489.182 282.392L489.347 289.426" stroke="black"/>
<path d="M391.936 226.687V192.562H403.092C406.795 192.562 409.576 193.328 411.436 194.859C413.311 196.39 414.248 198.656 414.248 201.656C414.248 203.25 413.795 204.664 412.889 205.898C411.983 207.117 410.748 208.062 409.186 208.734C411.029 209.25 412.483 210.234 413.545 211.687C414.623 213.125 415.162 214.843 415.162 216.843C415.162 219.906 414.17 222.312 412.186 224.062C410.201 225.812 407.397 226.687 403.772 226.687H391.936ZM396.436 210.726V223.008H403.865C405.959 223.008 407.608 222.468 408.811 221.39C410.029 220.297 410.639 218.797 410.639 216.89C410.639 212.781 408.404 210.726 403.936 210.726H396.436ZM396.436 207.117H403.233C405.201 207.117 406.772 206.625 407.943 205.64C409.131 204.656 409.725 203.32 409.725 201.633C409.725 199.758 409.178 198.398 408.084 197.554C406.99 196.695 405.326 196.265 403.092 196.265H396.436V207.117ZM426.365 223.008H442.537V226.687H421.842V192.562H426.365V223.008ZM466.983 217.781H452.686L449.475 226.687H444.834L457.865 192.562H461.803L474.858 226.687H470.24L466.983 217.781ZM454.045 214.078H465.647L459.834 198.117L454.045 214.078ZM482.826 223.008H502.35V226.687H477.506V223.312L496.209 196.265H477.811V192.562H501.6V195.867L482.826 223.008ZM527.475 210.914H512.686V223.008H529.865V226.687H508.186V192.562H529.631V196.265H512.686V207.234H527.475V210.914ZM547.983 212.883H539.967V226.687H535.443V192.562H546.74C550.584 192.562 553.537 193.437 555.6 195.187C557.678 196.937 558.717 199.484 558.717 202.828C558.717 204.953 558.139 206.804 556.983 208.383C555.842 209.961 554.248 211.14 552.201 211.922L560.217 226.406V226.687H555.389L547.983 212.883ZM539.967 209.203H546.881C549.115 209.203 550.889 208.625 552.201 207.468C553.529 206.312 554.193 204.765 554.193 202.828C554.193 200.718 553.561 199.101 552.295 197.976C551.045 196.851 549.233 196.281 546.858 196.265H539.967V209.203Z" fill="black"/>
<rect x="276" y="1522.31" width="400" height="347.689" rx="19" fill="#D3D3D3"/>
<path d="M414.48 1808.46C408.71 1791.22 412.076 1771.1 414.48 1763.2C420.491 1758.89 439.484 1751.56 467.374 1756.73C477.952 1790.35 499.03 1801.63 508.246 1803.07C521.069 1803.07 544.55 1805.44 535.895 1814.92C527.239 1824.4 492.218 1824.62 475.789 1823.54C467.367 1818.51 455.758 1814.97 444.533 1812.58C442.51 1812.15 440.5 1811.76 438.523 1811.4V1818.15H418.087L414.48 1808.46Z" fill="#2F1A02"/>
<path d="M414.48 1763.2C412.076 1771.1 408.71 1791.22 414.48 1808.46M414.48 1763.2C420.491 1763.56 434.916 1766.22 444.533 1773.98M414.48 1763.2C420.491 1758.89 439.484 1751.56 467.374 1756.73M414.48 1808.46L418.087 1818.15H438.523V1811.4M414.48 1808.46C420.111 1808.76 428.923 1809.67 438.523 1811.4M467.374 1756.73C477.952 1790.35 499.03 1801.63 508.246 1803.07C521.069 1803.07 544.55 1805.44 535.895 1814.92C527.239 1824.4 492.218 1824.62 475.789 1823.54C467.367 1818.51 455.758 1814.97 444.533 1812.58M467.374 1756.73L444.533 1773.98M444.533 1773.98C440.126 1776.73 433.955 1788.3 444.533 1812.58M444.533 1812.58C442.51 1812.15 440.5 1811.76 438.523 1811.4" stroke="black"/>
<path d="M444.315 1772.85L467.176 1756.63C439.262 1751.76 420.251 1758.66 414.235 1762.71C420.251 1763.05 434.69 1765.55 444.315 1772.85Z" fill="#4E2F0C" stroke="black"/>
<path d="M417.765 1818.87L414.235 1808.64C419.745 1808.97 428.37 1809.92 437.765 1811.75V1818.87H417.765Z" fill="#1D1B19" stroke="black"/>
<path d="M417.421 1713.86C411.651 1696.62 415.017 1676.51 417.421 1668.61C423.432 1664.3 442.425 1656.97 470.315 1662.14C480.893 1695.76 501.971 1707.04 511.187 1708.48C524.01 1708.48 547.491 1710.85 538.836 1720.33C530.18 1729.81 495.159 1730.03 478.73 1728.95C470.308 1723.92 458.699 1720.38 447.474 1717.99C445.451 1717.56 443.441 1717.17 441.464 1716.81V1723.56H421.028L417.421 1713.86Z" fill="#2F1A02"/>
<path d="M417.421 1668.61C415.017 1676.51 411.651 1696.62 417.421 1713.86M417.421 1668.61C423.432 1668.97 437.857 1671.63 447.474 1679.38M417.421 1668.61C423.432 1664.3 442.425 1656.97 470.315 1662.14M417.421 1713.86L421.028 1723.56H441.464V1716.81M417.421 1713.86C423.052 1714.17 431.864 1715.07 441.464 1716.81M470.315 1662.14C480.893 1695.76 501.971 1707.04 511.187 1708.48C524.01 1708.48 547.491 1710.85 538.836 1720.33C530.18 1729.81 495.159 1730.03 478.73 1728.95C470.308 1723.92 458.699 1720.38 447.474 1717.99M470.315 1662.14L447.474 1679.38M447.474 1679.38C443.067 1682.14 436.896 1693.71 447.474 1717.99M447.474 1717.99C445.451 1717.56 443.441 1717.17 441.464 1716.81" stroke="black"/>
<path d="M447.257 1678.26L470.118 1662.04C442.203 1657.17 423.192 1664.07 417.176 1668.12C423.192 1668.46 437.631 1670.96 447.257 1678.26Z" fill="#4E2F0C" stroke="black"/>
<path d="M420.706 1724.28L417.176 1714.05C422.687 1714.37 431.311 1715.33 440.706 1717.16V1724.28H420.706Z" fill="#1D1B19" stroke="black"/>
<path d="M424.732 1570.09H410.435L407.224 1579H402.583L415.614 1544.88H419.552L432.607 1579H427.989L424.732 1570.09ZM411.794 1566.39H423.396L417.583 1550.43L411.794 1566.39ZM463.427 1579H458.904L441.724 1552.7V1579H437.2V1544.88H441.724L458.95 1571.29V1544.88H463.427V1579ZM480.091 1563.13L475.919 1567.47V1579H471.419V1544.88H475.919V1561.75L491.083 1544.88H496.521L483.091 1559.95L497.575 1579H492.185L480.091 1563.13ZM506.036 1575.32H522.208V1579H501.513V1544.88H506.036V1575.32ZM546.63 1563.23H531.841V1575.32H549.021V1579H527.341V1544.88H548.786V1548.58H531.841V1559.55H546.63V1563.23ZM404.247 1635V1600.88H415.404C419.107 1600.88 421.888 1601.64 423.747 1603.17C425.622 1604.7 426.56 1606.97 426.56 1609.97C426.56 1611.56 426.107 1612.98 425.2 1614.21C424.294 1615.43 423.06 1616.38 421.497 1617.05C423.341 1617.56 424.794 1618.55 425.857 1620C426.935 1621.44 427.474 1623.16 427.474 1625.16C427.474 1628.22 426.482 1630.62 424.497 1632.38C422.513 1634.12 419.708 1635 416.083 1635H404.247ZM408.747 1619.04V1631.32H416.177C418.271 1631.32 419.919 1630.78 421.122 1629.7C422.341 1628.61 422.95 1627.11 422.95 1625.2C422.95 1621.09 420.716 1619.04 416.247 1619.04H408.747ZM408.747 1615.43H415.544C417.513 1615.43 419.083 1614.94 420.255 1613.95C421.443 1612.97 422.036 1611.63 422.036 1609.95C422.036 1608.07 421.489 1606.71 420.396 1605.87C419.302 1605.01 417.638 1604.58 415.404 1604.58H408.747V1615.43ZM460.404 1619.04C460.404 1622.38 459.841 1625.3 458.716 1627.8C457.591 1630.29 455.997 1632.19 453.935 1633.5C451.872 1634.81 449.466 1635.47 446.716 1635.47C444.029 1635.47 441.646 1634.81 439.568 1633.5C437.489 1632.17 435.872 1630.29 434.716 1627.85C433.575 1625.4 432.989 1622.56 432.958 1619.34V1616.88C432.958 1613.6 433.529 1610.7 434.669 1608.19C435.81 1605.67 437.419 1603.75 439.497 1602.42C441.591 1601.08 443.982 1600.41 446.669 1600.41C449.404 1600.41 451.81 1601.07 453.888 1602.4C455.982 1603.71 457.591 1605.62 458.716 1608.14C459.841 1610.64 460.404 1613.55 460.404 1616.88V1619.04ZM455.927 1616.84C455.927 1612.79 455.114 1609.69 453.489 1607.53C451.864 1605.36 449.591 1604.27 446.669 1604.27C443.825 1604.27 441.583 1605.36 439.943 1607.53C438.318 1609.69 437.482 1612.69 437.435 1616.53V1619.04C437.435 1622.96 438.255 1626.05 439.896 1628.3C441.552 1630.53 443.825 1631.65 446.716 1631.65C449.622 1631.65 451.872 1630.59 453.466 1628.48C455.06 1626.36 455.88 1623.32 455.927 1619.37V1616.84ZM493.404 1619.04C493.404 1622.38 492.841 1625.3 491.716 1627.8C490.591 1630.29 488.997 1632.19 486.935 1633.5C484.872 1634.81 482.466 1635.47 479.716 1635.47C477.029 1635.47 474.646 1634.81 472.568 1633.5C470.489 1632.17 468.872 1630.29 467.716 1627.85C466.575 1625.4 465.989 1622.56 465.958 1619.34V1616.88C465.958 1613.6 466.529 1610.7 467.669 1608.19C468.81 1605.67 470.419 1603.75 472.497 1602.42C474.591 1601.08 476.982 1600.41 479.669 1600.41C482.404 1600.41 484.81 1601.07 486.888 1602.4C488.982 1603.71 490.591 1605.62 491.716 1608.14C492.841 1610.64 493.404 1613.55 493.404 1616.88V1619.04ZM488.927 1616.84C488.927 1612.79 488.114 1609.69 486.489 1607.53C484.864 1605.36 482.591 1604.27 479.669 1604.27C476.825 1604.27 474.583 1605.36 472.943 1607.53C471.318 1609.69 470.482 1612.69 470.435 1616.53V1619.04C470.435 1622.96 471.255 1626.05 472.896 1628.3C474.552 1630.53 476.825 1631.65 479.716 1631.65C482.622 1631.65 484.872 1630.59 486.466 1628.48C488.06 1626.36 488.88 1623.32 488.927 1619.37V1616.84ZM523.075 1604.58H512.107V1635H507.63V1604.58H496.685V1600.88H523.075V1604.58ZM537.818 1619.79C533.958 1618.68 531.146 1617.32 529.38 1615.71C527.63 1614.09 526.755 1612.09 526.755 1609.71C526.755 1607.02 527.825 1604.8 529.966 1603.05C532.122 1601.29 534.919 1600.41 538.357 1600.41C540.7 1600.41 542.786 1600.86 544.614 1601.77C546.458 1602.67 547.88 1603.92 548.88 1605.52C549.896 1607.11 550.404 1608.85 550.404 1610.74H545.88C545.88 1608.68 545.224 1607.06 543.911 1605.89C542.599 1604.7 540.747 1604.11 538.357 1604.11C536.138 1604.11 534.404 1604.6 533.154 1605.59C531.919 1606.55 531.302 1607.91 531.302 1609.64C531.302 1611.03 531.888 1612.21 533.06 1613.18C534.247 1614.13 536.255 1615.01 539.083 1615.8C541.927 1616.6 544.146 1617.48 545.739 1618.45C547.349 1619.41 548.536 1620.52 549.302 1621.8C550.083 1623.09 550.474 1624.59 550.474 1626.33C550.474 1629.09 549.396 1631.31 547.239 1632.98C545.083 1634.64 542.2 1635.47 538.591 1635.47C536.247 1635.47 534.06 1635.02 532.029 1634.13C529.997 1633.23 528.427 1631.99 527.318 1630.43C526.224 1628.87 525.677 1627.09 525.677 1625.11H530.2C530.2 1627.17 530.958 1628.8 532.474 1630.01C534.005 1631.2 536.044 1631.79 538.591 1631.79C540.966 1631.79 542.786 1631.3 544.052 1630.34C545.318 1629.37 545.95 1628.05 545.95 1626.38C545.95 1624.7 545.364 1623.41 544.193 1622.51C543.021 1621.59 540.896 1620.68 537.818 1619.79Z" fill="black"/>
</svg>
