<svg width="952" height="2000" viewBox="0 0 952 2000" fill="none" xmlns="http://www.w3.org/2000/svg">
<rect width="952" height="2000" rx="100" fill="#C4C4C4"/>
<rect x="288.773" y="1057.23" width="380" height="380" rx="19" fill="#D3D3D3"/>
<path d="M523.48 1219.28V1230.46L523.938 1259.8L526.274 1409.28H515.097H501.825H491.627H488.553H481.568L477.377 1296.12L471.789 1409.28H466.2H463.127H441.711H438.259H428.48L429.648 1259.8L429.877 1230.46L429.648 1219.28H449.436H473.884H481.568H506.715H523.48Z" fill="#131A31"/>
<path d="M523.48 1230.46V1219.28H506.715M523.48 1230.46H506.715M523.48 1230.46L526.274 1409.28H481.568L477.377 1296.12M429.877 1230.46L429.648 1219.28H449.436M429.877 1230.46H449.436M429.877 1230.46L428.48 1409.28H471.789L477.377 1296.12M477.377 1296.12L471.789 1298.92M477.377 1296.12L481.568 1298.92M491.627 1409.28H488.553H501.825H515.097M466.2 1409.28H463.127H441.711H438.259M449.436 1219.28V1230.46M449.436 1219.28H473.884M449.436 1230.46H506.715M449.436 1230.46C446.411 1244.9 440.201 1251.09 429.648 1259.8M506.715 1219.28V1230.46M506.715 1219.28H481.568M506.715 1230.46C508.434 1244.92 513.674 1251.28 523.938 1259.8M473.884 1219.28V1251.42H481.568V1243.03C481.568 1237.45 481.568 1224.87 481.568 1219.28M473.884 1219.28H481.568" stroke="black"/>
<path d="M350.289 1114.6L361.445 1142.44L372.602 1114.6H378.438V1148.73H373.938V1135.44L374.36 1121.09L363.156 1148.73H359.711L348.531 1121.16L348.977 1135.44V1148.73H344.477V1114.6H350.289ZM412.633 1132.76C412.633 1136.11 412.07 1139.03 410.945 1141.53C409.82 1144.01 408.227 1145.91 406.164 1147.23C404.102 1148.54 401.695 1149.19 398.945 1149.19C396.258 1149.19 393.875 1148.54 391.797 1147.23C389.719 1145.9 388.102 1144.01 386.945 1141.58C385.805 1139.12 385.219 1136.29 385.188 1133.07V1130.61C385.188 1127.33 385.758 1124.43 386.899 1121.91C388.039 1119.4 389.649 1117.48 391.727 1116.15C393.82 1114.8 396.211 1114.13 398.899 1114.13C401.633 1114.13 404.039 1114.8 406.117 1116.12C408.211 1117.44 409.82 1119.35 410.945 1121.87C412.07 1124.37 412.633 1127.28 412.633 1130.61V1132.76ZM408.156 1130.56C408.156 1126.51 407.344 1123.41 405.719 1121.26C404.094 1119.08 401.82 1118 398.899 1118C396.055 1118 393.813 1119.08 392.172 1121.26C390.547 1123.41 389.711 1126.41 389.664 1130.26V1132.76C389.664 1136.69 390.485 1139.77 392.125 1142.02C393.781 1144.26 396.055 1145.37 398.945 1145.37C401.852 1145.37 404.102 1144.32 405.695 1142.21C407.289 1140.08 408.11 1137.05 408.156 1133.09V1130.56ZM425.195 1114.6L436.352 1142.44L447.508 1114.6H453.344V1148.73H448.844V1135.44L449.266 1121.09L438.063 1148.73H434.617L423.438 1121.16L423.883 1135.44V1148.73H419.383V1114.6H425.195ZM487.492 1114.6H492.016V1138.76C492.016 1142.03 491.031 1144.58 489.063 1146.43C487.11 1148.27 484.5 1149.19 481.235 1149.19C477.844 1149.19 475.203 1148.33 473.313 1146.59C471.422 1144.86 470.477 1142.43 470.477 1139.3H474.977C474.977 1141.26 475.508 1142.78 476.57 1143.87C477.649 1144.97 479.203 1145.51 481.235 1145.51C483.094 1145.51 484.594 1144.93 485.735 1143.76C486.891 1142.58 487.477 1140.94 487.492 1138.83V1114.6ZM518.969 1132.95H504.18V1145.05H521.36V1148.73H499.68V1114.6H521.125V1118.3H504.18V1129.27H518.969V1132.95ZM545.805 1139.82H531.508L528.297 1148.73H523.656L536.688 1114.6H540.625L553.68 1148.73H549.063L545.805 1139.82ZM532.867 1136.12H544.469L538.656 1120.15L532.867 1136.12ZM584.5 1148.73H579.977L562.797 1122.43V1148.73H558.274V1114.6H562.797L580.024 1141.01V1114.6H584.5V1148.73ZM602.547 1133.51C598.688 1132.4 595.875 1131.05 594.11 1129.44C592.36 1127.81 591.485 1125.81 591.485 1123.44C591.485 1120.75 592.555 1118.53 594.695 1116.78C596.852 1115.01 599.649 1114.13 603.086 1114.13C605.43 1114.13 607.516 1114.58 609.344 1115.49C611.188 1116.4 612.61 1117.65 613.61 1119.24C614.625 1120.83 615.133 1122.58 615.133 1124.47H610.61C610.61 1122.4 609.953 1120.79 608.641 1119.62C607.328 1118.43 605.477 1117.83 603.086 1117.83C600.867 1117.83 599.133 1118.33 597.883 1119.31C596.649 1120.28 596.031 1121.63 596.031 1123.37C596.031 1124.76 596.617 1125.94 597.789 1126.9C598.977 1127.86 600.985 1128.73 603.813 1129.53C606.656 1130.33 608.875 1131.21 610.469 1132.18C612.078 1133.13 613.266 1134.25 614.031 1135.53C614.813 1136.81 615.203 1138.32 615.203 1140.05C615.203 1142.82 614.125 1145.04 611.969 1146.71C609.813 1148.37 606.93 1149.19 603.32 1149.19C600.977 1149.19 598.789 1148.75 596.758 1147.86C594.727 1146.95 593.156 1145.72 592.047 1144.15C590.953 1142.59 590.406 1140.82 590.406 1138.83H594.93C594.93 1140.9 595.688 1142.53 597.203 1143.73C598.735 1144.92 600.774 1145.51 603.32 1145.51C605.695 1145.51 607.516 1145.03 608.781 1144.06C610.047 1143.09 610.68 1141.77 610.68 1140.1C610.68 1138.43 610.094 1137.14 608.922 1136.23C607.75 1135.31 605.625 1134.4 602.547 1133.51Z" fill="black"/>
<rect x="288.773" y="587.613" width="377.227" height="380" rx="19" fill="#D3D3D3"/>
<path d="M461.153 781C472.208 781.672 483.848 781.729 494.438 781L523.357 786.616C527.17 788.851 536.459 809.525 543.116 874.349L522.355 881.334C522.438 894.383 522.518 907.487 522.518 916.261H433.759C433.759 907.462 433.679 894.365 433.597 881.334L414 874.349C420.657 809.525 429.946 788.851 433.759 786.616L461.153 781Z" fill="#E7B22C"/>
<path d="M494.438 781C483.848 781.729 472.208 781.672 461.153 781M494.438 781C493.513 785.656 488.891 796.316 477.796 796.114C466.701 795.911 462.078 785.488 461.153 781M494.438 781L523.357 786.616C527.17 788.851 536.459 809.525 543.116 874.349L522.355 881.334M461.153 781L433.759 786.616C429.946 788.851 420.657 809.525 414 874.349L433.597 881.334M462.454 784.937C473.507 786.718 482.6 786.899 493.189 784.937M433.597 881.334C433.508 867.352 433.416 853.446 433.416 845.011L433.759 822.658M433.597 881.334C433.679 894.365 433.759 907.462 433.759 916.261H522.518C522.518 898.1 522.175 861.385 522.175 845.011V822.658" stroke="black"/>
<path d="M405.461 658.039C405.461 661.383 404.898 664.305 403.773 666.805C402.648 669.289 401.055 671.188 398.992 672.5C396.93 673.812 394.523 674.469 391.773 674.469C389.086 674.469 386.703 673.812 384.625 672.5C382.547 671.172 380.93 669.289 379.773 666.852C378.633 664.398 378.047 661.562 378.016 658.344V655.883C378.016 652.602 378.586 649.703 379.727 647.188C380.867 644.672 382.477 642.75 384.555 641.422C386.648 640.078 389.039 639.406 391.727 639.406C394.461 639.406 396.867 640.07 398.945 641.398C401.039 642.711 402.648 644.625 403.773 647.141C404.898 649.641 405.461 652.555 405.461 655.883V658.039ZM400.984 655.836C400.984 651.789 400.172 648.688 398.547 646.531C396.922 644.359 394.648 643.273 391.727 643.273C388.883 643.273 386.641 644.359 385 646.531C383.375 648.688 382.539 651.688 382.492 655.531V658.039C382.492 661.961 383.312 665.047 384.953 667.297C386.609 669.531 388.883 670.648 391.773 670.648C394.68 670.648 396.93 669.594 398.523 667.484C400.117 665.359 400.938 662.32 400.984 658.367V655.836ZM422.992 668.023L432.742 639.875H437.664L425.008 674H421.023L408.391 639.875H413.289L422.992 668.023ZM461.547 658.227H446.758V670.32H463.938V674H442.258V639.875H463.703V643.578H446.758V654.547H461.547V658.227ZM482.055 660.195H474.039V674H469.516V639.875H480.812C484.656 639.875 487.609 640.75 489.672 642.5C491.75 644.25 492.789 646.797 492.789 650.141C492.789 652.266 492.211 654.117 491.055 655.695C489.914 657.273 488.32 658.453 486.273 659.234L494.289 673.719V674H489.461L482.055 660.195ZM474.039 656.516H480.953C483.188 656.516 484.961 655.938 486.273 654.781C487.602 653.625 488.266 652.078 488.266 650.141C488.266 648.031 487.633 646.414 486.367 645.289C485.117 644.164 483.305 643.594 480.93 643.578H474.039V656.516ZM509.172 658.789C505.312 657.68 502.5 656.32 500.734 654.711C498.984 653.086 498.109 651.086 498.109 648.711C498.109 646.023 499.18 643.805 501.32 642.055C503.477 640.289 506.273 639.406 509.711 639.406C512.055 639.406 514.141 639.859 515.969 640.766C517.812 641.672 519.234 642.922 520.234 644.516C521.25 646.109 521.758 647.852 521.758 649.742H517.234C517.234 647.68 516.578 646.062 515.266 644.891C513.953 643.703 512.102 643.109 509.711 643.109C507.492 643.109 505.758 643.602 504.508 644.586C503.273 645.555 502.656 646.906 502.656 648.641C502.656 650.031 503.242 651.211 504.414 652.18C505.602 653.133 507.609 654.008 510.438 654.805C513.281 655.602 515.5 656.484 517.094 657.453C518.703 658.406 519.891 659.523 520.656 660.805C521.438 662.086 521.828 663.594 521.828 665.328C521.828 668.094 520.75 670.312 518.594 671.984C516.438 673.641 513.555 674.469 509.945 674.469C507.602 674.469 505.414 674.023 503.383 673.133C501.352 672.227 499.781 670.992 498.672 669.43C497.578 667.867 497.031 666.094 497.031 664.109H501.555C501.555 666.172 502.312 667.805 503.828 669.008C505.359 670.195 507.398 670.789 509.945 670.789C512.32 670.789 514.141 670.305 515.406 669.336C516.672 668.367 517.305 667.047 517.305 665.375C517.305 663.703 516.719 662.414 515.547 661.508C514.375 660.586 512.25 659.68 509.172 658.789ZM532.445 674H527.945V639.875H532.445V674ZM544.07 670.32H563.594V674H538.75V670.625L557.453 643.578H539.055V639.875H562.844V643.18L544.07 670.32ZM588.719 658.227H573.93V670.32H591.109V674H569.43V639.875H590.875V643.578H573.93V654.547H588.719V658.227ZM427.234 699.578H416.266V730H411.789V699.578H400.844V695.875H427.234V699.578ZM435.203 717.273H423.766V713.734H435.203V717.273ZM450.18 714.789C446.32 713.68 443.508 712.32 441.742 710.711C439.992 709.086 439.117 707.086 439.117 704.711C439.117 702.023 440.188 699.805 442.328 698.055C444.484 696.289 447.281 695.406 450.719 695.406C453.062 695.406 455.148 695.859 456.977 696.766C458.82 697.672 460.242 698.922 461.242 700.516C462.258 702.109 462.766 703.852 462.766 705.742H458.242C458.242 703.68 457.586 702.062 456.273 700.891C454.961 699.703 453.109 699.109 450.719 699.109C448.5 699.109 446.766 699.602 445.516 700.586C444.281 701.555 443.664 702.906 443.664 704.641C443.664 706.031 444.25 707.211 445.422 708.18C446.609 709.133 448.617 710.008 451.445 710.805C454.289 711.602 456.508 712.484 458.102 713.453C459.711 714.406 460.898 715.523 461.664 716.805C462.445 718.086 462.836 719.594 462.836 721.328C462.836 724.094 461.758 726.312 459.602 727.984C457.445 729.641 454.562 730.469 450.953 730.469C448.609 730.469 446.422 730.023 444.391 729.133C442.359 728.227 440.789 726.992 439.68 725.43C438.586 723.867 438.039 722.094 438.039 720.109H442.562C442.562 722.172 443.32 723.805 444.836 725.008C446.367 726.195 448.406 726.789 450.953 726.789C453.328 726.789 455.148 726.305 456.414 725.336C457.68 724.367 458.312 723.047 458.312 721.375C458.312 719.703 457.727 718.414 456.555 717.508C455.383 716.586 453.258 715.68 450.18 714.789ZM494.852 730H490.328V714.227H473.125V730H468.625V695.875H473.125V710.547H490.328V695.875H494.852V730ZM507.672 730H503.172V695.875H507.672V730ZM528.438 716.195H520.422V730H515.898V695.875H527.195C531.039 695.875 533.992 696.75 536.055 698.5C538.133 700.25 539.172 702.797 539.172 706.141C539.172 708.266 538.594 710.117 537.438 711.695C536.297 713.273 534.703 714.453 532.656 715.234L540.672 729.719V730H535.844L528.438 716.195ZM520.422 712.516H527.336C529.57 712.516 531.344 711.938 532.656 710.781C533.984 709.625 534.648 708.078 534.648 706.141C534.648 704.031 534.016 702.414 532.75 701.289C531.5 700.164 529.688 699.594 527.312 699.578H520.422V712.516ZM567.203 699.578H556.234V730H551.758V699.578H540.812V695.875H567.203V699.578Z" fill="black"/>
<path d="M513.355 822.658C513.355 828.558 508.608 833.334 502.76 833.334C496.912 833.334 492.165 828.558 492.165 822.658C492.165 816.758 496.912 811.981 502.76 811.981C508.608 811.981 513.355 816.758 513.355 822.658Z" fill="#FFD600" stroke="black"/>
<path d="M507.807 807.29C507.807 809.145 507.358 810.799 506.659 811.974C505.953 813.158 505.049 813.775 504.147 813.775C503.244 813.775 502.34 813.158 501.634 811.974C500.935 810.799 500.486 809.145 500.486 807.29C500.486 805.436 500.935 803.781 501.634 802.607C502.34 801.422 503.244 800.805 504.147 800.805C505.049 800.805 505.953 801.422 506.659 802.607C507.358 803.781 507.807 805.436 507.807 807.29Z" fill="#FFD600" stroke="black"/>
<rect x="288.773" y="118" width="380" height="380" rx="19" fill="#D3D3D3"/>
<path d="M449.467 308.5H514.423C516.518 308.5 518.336 309.945 518.808 311.986L530.066 360.662C530.719 363.483 528.577 366.176 525.682 366.176H442.712C439.981 366.176 437.88 363.763 438.255 361.058L445.01 312.381C445.319 310.156 447.221 308.5 449.467 308.5Z" fill="white" stroke="black"/>
<path d="M423 366.403L441.552 347.118C476.889 361.144 512.816 352.962 526.362 347.118L543.147 366.403C490.141 397.26 440.963 379.26 423 366.403Z" fill="white" stroke="black"/>
<path d="M342.086 226.265V192.14H353.243C356.946 192.14 359.727 192.905 361.586 194.437C363.461 195.968 364.399 198.233 364.399 201.233C364.399 202.827 363.946 204.241 363.039 205.476C362.133 206.694 360.899 207.64 359.336 208.312C361.18 208.827 362.633 209.812 363.696 211.265C364.774 212.702 365.313 214.421 365.313 216.421C365.313 219.483 364.321 221.89 362.336 223.64C360.352 225.39 357.547 226.265 353.922 226.265H342.086ZM346.586 210.304V222.585H354.016C356.11 222.585 357.758 222.046 358.961 220.968C360.18 219.874 360.789 218.374 360.789 216.468C360.789 212.358 358.555 210.304 354.086 210.304H346.586ZM346.586 206.694H353.383C355.352 206.694 356.922 206.202 358.094 205.218C359.282 204.233 359.875 202.898 359.875 201.21C359.875 199.335 359.328 197.976 358.235 197.132C357.141 196.273 355.477 195.843 353.243 195.843H346.586V206.694ZM396.016 192.14V215.343C396 218.562 394.985 221.194 392.969 223.241C390.969 225.288 388.25 226.437 384.813 226.687L383.618 226.733C379.883 226.733 376.907 225.726 374.688 223.71C372.469 221.694 371.344 218.921 371.313 215.39V192.14H375.766V215.249C375.766 217.718 376.446 219.64 377.805 221.015C379.164 222.374 381.102 223.054 383.618 223.054C386.164 223.054 388.11 222.374 389.453 221.015C390.813 219.655 391.493 217.741 391.493 215.273V192.14H396.016ZM428.219 215.437C427.797 219.046 426.461 221.835 424.211 223.804C421.977 225.757 419 226.733 415.282 226.733C411.25 226.733 408.016 225.288 405.578 222.398C403.157 219.507 401.946 215.64 401.946 210.796V207.515C401.946 204.343 402.508 201.554 403.633 199.148C404.774 196.741 406.383 194.898 408.461 193.616C410.539 192.319 412.946 191.671 415.68 191.671C419.305 191.671 422.211 192.687 424.399 194.718C426.586 196.733 427.86 199.53 428.219 203.108H423.696C423.305 200.39 422.453 198.421 421.141 197.202C419.844 195.983 418.024 195.374 415.68 195.374C412.805 195.374 410.547 196.437 408.907 198.562C407.282 200.687 406.469 203.71 406.469 207.632V210.937C406.469 214.64 407.243 217.585 408.789 219.773C410.336 221.96 412.5 223.054 415.282 223.054C417.782 223.054 419.696 222.491 421.024 221.366C422.368 220.226 423.258 218.249 423.696 215.437H428.219ZM443.055 210.398L438.883 214.733V226.265H434.383V192.14H438.883V209.015L454.047 192.14H459.485L446.055 207.21L460.539 226.265H455.149L443.055 210.398ZM483.766 210.491H468.977V222.585H486.157V226.265H464.477V192.14H485.922V195.843H468.977V206.812H483.766V210.491ZM515.805 195.843H504.836V226.265H500.36V195.843H489.414V192.14H515.805V195.843ZM558.063 226.265H553.539V210.491H536.336V226.265H531.836V192.14H536.336V206.812H553.539V192.14H558.063V226.265ZM585.321 217.358H571.024L567.813 226.265H563.172L576.203 192.14H580.141L593.196 226.265H588.578L585.321 217.358ZM572.383 213.655H583.985L578.172 197.694L572.383 213.655ZM618.321 195.843H607.352V226.265H602.875V195.843H591.93V192.14H618.321V195.843Z" fill="black"/>
<rect x="286" y="1526.84" width="380" height="380" rx="19" fill="#D3D3D3"/>
<path d="M413.895 1783.9C423.915 1791.09 448.608 1801.17 467.225 1783.9L475.952 1787.6L486.618 1792.14L498.254 1797.08L540.918 1815.2C544.796 1824.7 542.534 1829.96 540.918 1831.4H409.047C408.914 1825.3 408.912 1819.93 409.011 1815.2C409.216 1805.46 409.848 1798.48 410.631 1793.61C411.672 1787.14 412.979 1784.41 413.895 1783.9Z" fill="white"/>
<path d="M540.918 1815.2C544.796 1824.7 542.534 1829.96 540.918 1831.4H409.047C408.914 1825.3 408.912 1819.93 409.011 1815.2M540.918 1815.2H409.011M540.918 1815.2L498.254 1797.08M410.631 1793.61C411.672 1787.14 412.979 1784.41 413.895 1783.9C423.915 1791.09 448.608 1801.17 467.225 1783.9L475.952 1787.6M410.631 1793.61C415.921 1793.25 427.664 1797.07 432.318 1815.2M410.631 1793.61C409.848 1798.48 409.216 1805.46 409.011 1815.2M469.164 1796.85L475.952 1787.6M475.952 1787.6L486.618 1792.14M478.861 1802.25L486.618 1792.14M486.618 1792.14L498.254 1797.08M490.496 1807.65L498.254 1797.08" stroke="black"/>
<path d="M431.294 1814.63C426.831 1795.87 415.568 1791.93 410.495 1792.3C409.744 1797.33 409.138 1804.55 408.941 1814.63H431.294Z" fill="black" stroke="black"/>
<path d="M413.895 1691.69C423.915 1698.89 448.608 1708.96 467.225 1691.69L475.952 1695.4L486.618 1699.93L498.254 1704.87L540.918 1723C544.796 1732.5 542.534 1737.75 540.918 1739.19H409.047C408.914 1733.09 408.912 1727.72 409.011 1723C409.216 1713.25 409.848 1706.27 410.631 1701.41C411.672 1694.93 412.979 1692.2 413.895 1691.69Z" fill="white"/>
<path d="M540.918 1723C544.796 1732.5 542.534 1737.75 540.918 1739.19H409.047C408.914 1733.09 408.912 1727.72 409.011 1723M540.918 1723H409.011M540.918 1723L498.254 1704.87M410.631 1701.41C411.672 1694.93 412.979 1692.2 413.895 1691.69C423.915 1698.89 448.608 1708.96 467.225 1691.69L475.952 1695.4M410.631 1701.41C415.921 1701.05 427.664 1704.86 432.318 1723M410.631 1701.41C409.848 1706.27 409.216 1713.25 409.011 1723M469.164 1704.65L475.952 1695.4M475.952 1695.4L486.618 1699.93M478.861 1710.04L486.618 1699.93M486.618 1699.93L498.254 1704.87M490.496 1715.44L498.254 1704.87" stroke="black"/>
<path d="M431.294 1722.43C426.831 1703.67 415.568 1699.72 410.495 1700.1C409.744 1705.13 409.138 1712.35 408.941 1722.43H431.294Z" fill="black" stroke="black"/>
<path d="M373.03 1603.13C369.17 1602.02 366.358 1600.66 364.592 1599.05C362.842 1597.42 361.967 1595.42 361.967 1593.05C361.967 1590.36 363.037 1588.14 365.178 1586.39C367.334 1584.63 370.131 1583.74 373.569 1583.74C375.912 1583.74 377.998 1584.2 379.827 1585.1C381.67 1586.01 383.092 1587.26 384.092 1588.85C385.108 1590.45 385.616 1592.19 385.616 1594.08H381.092C381.092 1592.02 380.436 1590.4 379.123 1589.23C377.811 1588.04 375.959 1587.45 373.569 1587.45C371.35 1587.45 369.616 1587.94 368.366 1588.92C367.131 1589.89 366.514 1591.24 366.514 1592.98C366.514 1594.37 367.1 1595.55 368.272 1596.52C369.459 1597.47 371.467 1598.35 374.295 1599.14C377.139 1599.94 379.358 1600.82 380.952 1601.79C382.561 1602.74 383.748 1603.86 384.514 1605.14C385.295 1606.42 385.686 1607.93 385.686 1609.67C385.686 1612.43 384.608 1614.65 382.452 1616.32C380.295 1617.98 377.412 1618.81 373.803 1618.81C371.459 1618.81 369.272 1618.36 367.241 1617.47C365.209 1616.56 363.639 1615.33 362.53 1613.77C361.436 1612.2 360.889 1610.43 360.889 1608.45H365.412C365.412 1610.51 366.17 1612.14 367.686 1613.35C369.217 1614.53 371.256 1615.13 373.803 1615.13C376.178 1615.13 377.998 1614.64 379.264 1613.67C380.53 1612.7 381.162 1611.38 381.162 1609.71C381.162 1608.04 380.577 1606.75 379.405 1605.85C378.233 1604.92 376.108 1604.02 373.03 1603.13ZM417.702 1618.34H413.178L395.998 1592.04V1618.34H391.475V1584.21H395.998L413.225 1610.63V1584.21H417.702V1618.34ZM444.983 1602.56H430.194V1614.66H447.373V1618.34H425.694V1584.21H447.139V1587.92H430.194V1598.88H444.983V1602.56ZM471.819 1609.43H457.522L454.311 1618.34H449.67L462.702 1584.21H466.639L479.694 1618.34H475.077L471.819 1609.43ZM458.881 1605.73H470.483L464.67 1589.77L458.881 1605.73ZM492.959 1602.47L488.787 1606.81V1618.34H484.287V1584.21H488.787V1601.09L503.952 1584.21H509.389L495.959 1599.28L510.444 1618.34H505.053L492.959 1602.47ZM533.67 1602.56H518.881V1614.66H536.061V1618.34H514.381V1584.21H535.827V1587.92H518.881V1598.88H533.67V1602.56ZM554.178 1604.53H546.162V1618.34H541.639V1584.21H552.936C556.78 1584.21 559.733 1585.09 561.795 1586.84C563.873 1588.59 564.912 1591.13 564.912 1594.48C564.912 1596.6 564.334 1598.45 563.178 1600.03C562.037 1601.61 560.444 1602.79 558.397 1603.57L566.412 1618.06V1618.34H561.584L554.178 1604.53ZM546.162 1600.85H553.077C555.311 1600.85 557.084 1600.28 558.397 1599.12C559.725 1597.96 560.389 1596.42 560.389 1594.48C560.389 1592.37 559.756 1590.75 558.491 1589.63C557.241 1588.5 555.428 1587.93 553.053 1587.92H546.162V1600.85ZM581.295 1603.13C577.436 1602.02 574.623 1600.66 572.858 1599.05C571.108 1597.42 570.233 1595.42 570.233 1593.05C570.233 1590.36 571.303 1588.14 573.444 1586.39C575.6 1584.63 578.397 1583.74 581.834 1583.74C584.178 1583.74 586.264 1584.2 588.092 1585.1C589.936 1586.01 591.358 1587.26 592.358 1588.85C593.373 1590.45 593.881 1592.19 593.881 1594.08H589.358C589.358 1592.02 588.702 1590.4 587.389 1589.23C586.077 1588.04 584.225 1587.45 581.834 1587.45C579.616 1587.45 577.881 1587.94 576.631 1588.92C575.397 1589.89 574.78 1591.24 574.78 1592.98C574.78 1594.37 575.366 1595.55 576.537 1596.52C577.725 1597.47 579.733 1598.35 582.561 1599.14C585.405 1599.94 587.623 1600.82 589.217 1601.79C590.827 1602.74 592.014 1603.86 592.78 1605.14C593.561 1606.42 593.952 1607.93 593.952 1609.67C593.952 1612.43 592.873 1614.65 590.717 1616.32C588.561 1617.98 585.678 1618.81 582.069 1618.81C579.725 1618.81 577.537 1618.36 575.506 1617.47C573.475 1616.56 571.905 1615.33 570.795 1613.77C569.702 1612.2 569.155 1610.43 569.155 1608.45H573.678C573.678 1610.51 574.436 1612.14 575.952 1613.35C577.483 1614.53 579.522 1615.13 582.069 1615.13C584.444 1615.13 586.264 1614.64 587.53 1613.67C588.795 1612.7 589.428 1611.38 589.428 1609.71C589.428 1608.04 588.842 1606.75 587.67 1605.85C586.498 1604.92 584.373 1604.02 581.295 1603.13Z" fill="black"/>
</svg>
