<svg width="952" height="2000" viewBox="0 0 952 2000" fill="none" xmlns="http://www.w3.org/2000/svg">
<rect width="952" height="2000" rx="100" fill="#C4C4C4"/>
<rect x="287.794" y="1057.14" width="379.976" height="380.128" rx="19" fill="#D3D3D3"/>
<path d="M367.813 1114.53L378.97 1142.38L390.126 1114.53H395.962V1148.66H391.462V1135.37L391.884 1121.02L380.68 1148.66H377.235L366.055 1121.09L366.501 1135.37V1148.66H362.001V1114.53H367.813ZM408.735 1148.66H404.235V1114.53H408.735V1148.66ZM416.985 1148.66V1114.53H426.618C429.587 1114.53 432.212 1115.19 434.493 1116.5C436.774 1117.81 438.532 1119.68 439.766 1122.1C441.016 1124.52 441.649 1127.31 441.665 1130.45V1132.63C441.665 1135.84 441.04 1138.66 439.79 1141.09C438.555 1143.51 436.782 1145.37 434.47 1146.66C432.173 1147.96 429.493 1148.63 426.43 1148.66H416.985ZM421.485 1118.24V1144.98H426.22C429.688 1144.98 432.384 1143.9 434.305 1141.74C436.243 1139.59 437.212 1136.52 437.212 1132.53V1130.54C437.212 1126.66 436.298 1123.66 434.47 1121.52C432.657 1119.36 430.079 1118.27 426.735 1118.24H421.485ZM453.313 1148.66H448.813V1114.53H453.313V1148.66ZM483.524 1133.45C479.665 1132.34 476.852 1130.98 475.087 1129.37C473.337 1127.74 472.462 1125.74 472.462 1123.37C472.462 1120.68 473.532 1118.46 475.673 1116.71C477.829 1114.95 480.626 1114.06 484.063 1114.06C486.407 1114.06 488.493 1114.52 490.321 1115.42C492.165 1116.33 493.587 1117.58 494.587 1119.17C495.602 1120.77 496.11 1122.51 496.11 1124.4H491.587C491.587 1122.34 490.93 1120.72 489.618 1119.55C488.305 1118.36 486.454 1117.77 484.063 1117.77C481.845 1117.77 480.11 1118.26 478.86 1119.24C477.626 1120.21 477.009 1121.56 477.009 1123.3C477.009 1124.69 477.595 1125.87 478.766 1126.84C479.954 1127.79 481.962 1128.66 484.79 1129.46C487.634 1130.26 489.852 1131.14 491.446 1132.11C493.055 1133.06 494.243 1134.18 495.009 1135.46C495.79 1136.74 496.18 1138.25 496.18 1139.99C496.18 1142.75 495.102 1144.97 492.946 1146.64C490.79 1148.3 487.907 1149.13 484.298 1149.13C481.954 1149.13 479.766 1148.68 477.735 1147.79C475.704 1146.88 474.134 1145.65 473.024 1144.09C471.93 1142.52 471.384 1140.75 471.384 1138.77H475.907C475.907 1140.83 476.665 1142.46 478.18 1143.66C479.712 1144.85 481.751 1145.45 484.298 1145.45C486.673 1145.45 488.493 1144.96 489.759 1143.99C491.024 1143.02 491.657 1141.7 491.657 1140.03C491.657 1138.36 491.071 1137.07 489.899 1136.16C488.727 1135.24 486.602 1134.34 483.524 1133.45ZM510.641 1132.79L506.47 1137.13V1148.66H501.97V1114.53H506.47V1131.41L521.634 1114.53H527.071L513.641 1129.6L528.126 1148.66H522.735L510.641 1132.79ZM536.891 1148.66H532.391V1114.53H536.891V1148.66ZM557.657 1134.85H549.641V1148.66H545.118V1114.53H556.415C560.259 1114.53 563.212 1115.41 565.274 1117.16C567.352 1118.91 568.391 1121.45 568.391 1124.8C568.391 1126.92 567.813 1128.77 566.657 1130.35C565.516 1131.93 563.923 1133.11 561.876 1133.89L569.891 1148.38V1148.66H565.063L557.657 1134.85ZM549.641 1131.17H556.555C558.79 1131.17 560.563 1130.59 561.876 1129.44C563.204 1128.28 563.868 1126.74 563.868 1124.8C563.868 1122.69 563.235 1121.07 561.97 1119.95C560.72 1118.82 558.907 1118.25 556.532 1118.24H549.641V1131.17ZM596.423 1118.24H585.454V1148.66H580.977V1118.24H570.032V1114.53H596.423V1118.24Z" fill="black"/>
<path d="M445.77 1247.21H512.42L516.864 1266.34C515.679 1280.26 533.156 1351.02 542.043 1384.65C521.307 1386.39 533.156 1382.91 525.75 1379.43C519.826 1376.65 515.383 1378.27 513.901 1379.43V1384.65C493.166 1386.39 506.496 1382.91 499.09 1379.43C493.166 1376.65 488.722 1378.27 487.241 1379.43V1384.65C478.947 1388.83 472.924 1386.39 470.949 1384.65V1379.43C468.48 1378.85 462.654 1378.74 459.1 1382.91C455.545 1387.09 448.732 1385.81 445.77 1384.65V1379.43C442.215 1375.26 436.389 1377.69 433.921 1379.43C432.736 1386.39 423.553 1385.81 419.109 1384.65C426.219 1359.6 436.883 1295.34 441.326 1266.34L445.77 1247.21Z" fill="#20405C"/>
<path d="M516.864 1266.34L512.42 1247.21H445.77L441.326 1266.34M516.864 1266.34C515.679 1280.26 533.156 1351.02 542.043 1384.65C521.307 1386.39 533.156 1382.91 525.75 1379.43M516.864 1266.34H506.496M441.326 1266.34C436.883 1295.34 426.219 1359.6 419.109 1384.65C423.553 1385.81 432.736 1386.39 433.921 1379.43M441.326 1266.34H453.175M433.921 1379.43C436.389 1377.69 442.215 1375.26 445.77 1379.43M433.921 1379.43L444.289 1306.36M445.77 1379.43V1384.65C448.732 1385.81 455.545 1387.09 459.1 1382.91M445.77 1379.43L453.175 1266.34M459.1 1382.91C462.654 1378.74 468.48 1378.85 470.949 1379.43M459.1 1382.91V1294.18M470.949 1379.43V1384.65C472.924 1386.39 478.947 1388.83 487.241 1384.65V1379.43M470.949 1379.43C471.442 1379.43 472.43 1356.82 472.43 1266.34M487.241 1379.43C488.722 1378.27 493.166 1376.65 499.09 1379.43M487.241 1379.43V1268.08M499.09 1379.43C506.496 1382.91 493.166 1386.39 513.901 1384.65V1379.43M499.09 1379.43C498.596 1363.77 497.609 1324.8 497.609 1294.18M513.901 1379.43C515.383 1378.27 519.826 1376.65 525.75 1379.43M513.901 1379.43L506.496 1266.34M525.75 1379.43C518.641 1339.07 515.876 1313.9 515.383 1306.36M453.175 1266.34H472.43M472.43 1266.34H506.496" stroke="black"/>
<rect x="287.794" y="587.571" width="379.976" height="380.128" rx="19" fill="#D3D3D3"/>
<path d="M461.018 752.733C472.153 753.406 483.878 753.463 494.546 752.733L523.676 758.351C527.516 760.587 536.873 781.268 543.579 846.114L522.666 853.101C522.75 866.155 522.83 879.263 522.83 888.04H433.424C433.424 879.238 433.344 866.136 433.261 853.101L413.521 846.114C420.227 781.268 429.584 760.587 433.424 758.351L461.018 752.733Z" fill="#E7372C"/>
<path d="M494.546 752.733C483.878 753.463 472.153 753.406 461.018 752.733M494.546 752.733C493.614 757.391 488.958 768.054 477.782 767.852C466.606 767.65 461.95 757.223 461.018 752.733M494.546 752.733L523.676 758.351C527.516 760.587 536.873 781.268 543.579 846.114L522.666 853.101M461.018 752.733L433.424 758.351C429.584 760.587 420.227 781.268 413.521 846.114L433.261 853.101M462.328 756.672C473.462 758.453 482.621 758.634 493.288 756.672M433.261 853.101C433.171 839.114 433.079 825.204 433.079 816.766L433.424 794.405M433.261 853.101C433.344 866.136 433.424 879.238 433.424 888.04H522.83C522.83 869.872 522.485 833.145 522.485 816.766V794.405" stroke="black"/>
<path d="M399.51 657.039C399.51 660.383 398.947 663.305 397.822 665.805C396.697 668.289 395.103 670.188 393.041 671.5C390.978 672.812 388.572 673.469 385.822 673.469C383.135 673.469 380.752 672.812 378.674 671.5C376.595 670.172 374.978 668.289 373.822 665.852C372.681 663.398 372.095 660.562 372.064 657.344V654.883C372.064 651.602 372.635 648.703 373.775 646.188C374.916 643.672 376.525 641.75 378.603 640.422C380.697 639.078 383.088 638.406 385.775 638.406C388.51 638.406 390.916 639.07 392.994 640.398C395.088 641.711 396.697 643.625 397.822 646.141C398.947 648.641 399.51 651.555 399.51 654.883V657.039ZM395.033 654.836C395.033 650.789 394.22 647.688 392.595 645.531C390.97 643.359 388.697 642.273 385.775 642.273C382.931 642.273 380.689 643.359 379.049 645.531C377.424 647.688 376.588 650.688 376.541 654.531V657.039C376.541 660.961 377.361 664.047 379.002 666.297C380.658 668.531 382.931 669.648 385.822 669.648C388.728 669.648 390.978 668.594 392.572 666.484C394.166 664.359 394.986 661.32 395.033 657.367V654.836ZM417.041 667.023L426.791 638.875H431.713L419.056 673H415.072L402.439 638.875H407.338L417.041 667.023ZM455.595 657.227H440.806V669.32H457.986V673H436.306V638.875H457.752V642.578H440.806V653.547H455.595V657.227ZM476.103 659.195H468.088V673H463.564V638.875H474.861C478.705 638.875 481.658 639.75 483.72 641.5C485.799 643.25 486.838 645.797 486.838 649.141C486.838 651.266 486.26 653.117 485.103 654.695C483.963 656.273 482.369 657.453 480.322 658.234L488.338 672.719V673H483.51L476.103 659.195ZM468.088 655.516H475.002C477.236 655.516 479.01 654.938 480.322 653.781C481.65 652.625 482.314 651.078 482.314 649.141C482.314 647.031 481.681 645.414 480.416 644.289C479.166 643.164 477.353 642.594 474.978 642.578H468.088V655.516ZM503.22 657.789C499.361 656.68 496.549 655.32 494.783 653.711C493.033 652.086 492.158 650.086 492.158 647.711C492.158 645.023 493.228 642.805 495.369 641.055C497.525 639.289 500.322 638.406 503.76 638.406C506.103 638.406 508.189 638.859 510.017 639.766C511.861 640.672 513.283 641.922 514.283 643.516C515.299 645.109 515.806 646.852 515.806 648.742H511.283C511.283 646.68 510.627 645.062 509.314 643.891C508.002 642.703 506.15 642.109 503.76 642.109C501.541 642.109 499.806 642.602 498.556 643.586C497.322 644.555 496.705 645.906 496.705 647.641C496.705 649.031 497.291 650.211 498.463 651.18C499.65 652.133 501.658 653.008 504.486 653.805C507.33 654.602 509.549 655.484 511.142 656.453C512.752 657.406 513.939 658.523 514.705 659.805C515.486 661.086 515.877 662.594 515.877 664.328C515.877 667.094 514.799 669.312 512.642 670.984C510.486 672.641 507.603 673.469 503.994 673.469C501.65 673.469 499.463 673.023 497.431 672.133C495.4 671.227 493.83 669.992 492.72 668.43C491.627 666.867 491.08 665.094 491.08 663.109H495.603C495.603 665.172 496.361 666.805 497.877 668.008C499.408 669.195 501.447 669.789 503.994 669.789C506.369 669.789 508.189 669.305 509.455 668.336C510.72 667.367 511.353 666.047 511.353 664.375C511.353 662.703 510.767 661.414 509.595 660.508C508.424 659.586 506.299 658.68 503.22 657.789ZM526.494 673H521.994V638.875H526.494V673ZM538.119 669.32H557.642V673H532.799V669.625L551.502 642.578H533.103V638.875H556.892V642.18L538.119 669.32ZM582.767 657.227H567.978V669.32H585.158V673H563.478V638.875H584.924V642.578H567.978V653.547H582.767V657.227ZM421.283 698.578H410.314V729H405.838V698.578H394.892V694.875H421.283V698.578ZM429.252 716.273H417.814V712.734H429.252V716.273ZM444.228 713.789C440.369 712.68 437.556 711.32 435.791 709.711C434.041 708.086 433.166 706.086 433.166 703.711C433.166 701.023 434.236 698.805 436.377 697.055C438.533 695.289 441.33 694.406 444.767 694.406C447.111 694.406 449.197 694.859 451.025 695.766C452.869 696.672 454.291 697.922 455.291 699.516C456.306 701.109 456.814 702.852 456.814 704.742H452.291C452.291 702.68 451.635 701.062 450.322 699.891C449.01 698.703 447.158 698.109 444.767 698.109C442.549 698.109 440.814 698.602 439.564 699.586C438.33 700.555 437.713 701.906 437.713 703.641C437.713 705.031 438.299 706.211 439.47 707.18C440.658 708.133 442.666 709.008 445.494 709.805C448.338 710.602 450.556 711.484 452.15 712.453C453.76 713.406 454.947 714.523 455.713 715.805C456.494 717.086 456.885 718.594 456.885 720.328C456.885 723.094 455.806 725.312 453.65 726.984C451.494 728.641 448.611 729.469 445.002 729.469C442.658 729.469 440.47 729.023 438.439 728.133C436.408 727.227 434.838 725.992 433.728 724.43C432.635 722.867 432.088 721.094 432.088 719.109H436.611C436.611 721.172 437.369 722.805 438.885 724.008C440.416 725.195 442.455 725.789 445.002 725.789C447.377 725.789 449.197 725.305 450.463 724.336C451.728 723.367 452.361 722.047 452.361 720.375C452.361 718.703 451.775 717.414 450.603 716.508C449.431 715.586 447.306 714.68 444.228 713.789ZM488.9 729H484.377V713.227H467.174V729H462.674V694.875H467.174V709.547H484.377V694.875H488.9V729ZM501.72 729H497.22V694.875H501.72V729ZM522.486 715.195H514.47V729H509.947V694.875H521.244C525.088 694.875 528.041 695.75 530.103 697.5C532.181 699.25 533.22 701.797 533.22 705.141C533.22 707.266 532.642 709.117 531.486 710.695C530.345 712.273 528.752 713.453 526.705 714.234L534.72 728.719V729H529.892L522.486 715.195ZM514.47 711.516H521.385C523.619 711.516 525.392 710.938 526.705 709.781C528.033 708.625 528.697 707.078 528.697 705.141C528.697 703.031 528.064 701.414 526.799 700.289C525.549 699.164 523.736 698.594 521.361 698.578H514.47V711.516ZM561.252 698.578H550.283V729H545.806V698.578H534.861V694.875H561.252V698.578Z" fill="black"/>
<rect x="287.794" y="118" width="379.976" height="380.128" rx="19" fill="#D3D3D3"/>
<path d="M400.204 384.059C402.722 377.18 406.83 371.499 413.229 371.499L432.867 363.16C439.7 340.165 464.166 299.121 508.887 309.806C511.158 310.348 513.48 311.024 515.856 311.842C565.015 328.777 562.101 379.197 554.499 402.29L534.227 392.667C528.948 399.724 513.955 414.862 496.217 418.968C478.479 423.073 462.642 412.125 456.94 406.138L437.935 387.536C423.745 400.365 415.552 405.283 413.229 406.138C404.106 412.81 398.447 406.352 396.758 402.29C396.758 392.505 397.817 387.238 400.204 384.059Z" fill="#264460"/>
<path d="M396.758 402.29C397.18 392.026 401.066 371.499 413.229 371.499L432.867 363.16M396.758 402.29C398.447 406.352 404.106 412.81 413.229 406.138C415.552 405.283 423.745 400.365 437.935 387.536M396.758 402.29C396.758 381.762 401.418 381.121 413.229 377.914C422.677 375.348 433.637 383.259 437.935 387.536M437.935 387.536L456.94 406.138C462.642 412.125 478.479 423.073 496.217 418.968C513.955 414.862 528.948 399.724 534.227 392.667M534.227 392.667L554.499 402.29C562.101 379.197 565.015 328.777 515.856 311.842C513.48 311.024 511.158 310.348 508.887 309.806M534.227 392.667C531.443 391.258 527.899 389.5 523.85 387.536M432.867 363.16C435.824 360.38 446.804 356.488 467.076 363.16C483.298 368.498 507.633 379.669 523.85 387.536M432.867 363.16C439.7 340.165 464.166 299.121 508.887 309.806M523.85 387.536C528.365 371.852 531.693 334.348 508.887 309.806" stroke="black"/>
<path d="M461.812 215.458C461.39 219.068 460.054 221.857 457.804 223.826C455.57 225.779 452.593 226.755 448.874 226.755C444.843 226.755 441.609 225.31 439.171 222.419C436.749 219.529 435.538 215.661 435.538 210.818V207.536C435.538 204.365 436.101 201.576 437.226 199.169C438.366 196.763 439.976 194.919 442.054 193.638C444.132 192.341 446.538 191.693 449.273 191.693C452.898 191.693 455.804 192.708 457.991 194.74C460.179 196.755 461.452 199.552 461.812 203.13H457.288C456.898 200.411 456.046 198.443 454.734 197.224C453.437 196.005 451.616 195.396 449.273 195.396C446.398 195.396 444.14 196.458 442.499 198.583C440.874 200.708 440.062 203.732 440.062 207.654V210.958C440.062 214.661 440.835 217.607 442.382 219.794C443.929 221.982 446.093 223.076 448.874 223.076C451.374 223.076 453.288 222.513 454.616 221.388C455.96 220.247 456.851 218.271 457.288 215.458H461.812ZM486.82 217.38H472.523L469.312 226.286H464.671L477.702 192.161H481.64L494.695 226.286H490.077L486.82 217.38ZM473.882 213.677H485.484L479.671 197.716L473.882 213.677ZM503.788 212.927V226.286H499.288V192.161H511.874C515.609 192.161 518.53 193.115 520.64 195.021C522.765 196.927 523.827 199.451 523.827 202.591C523.827 205.904 522.788 208.458 520.71 210.255C518.648 212.036 515.687 212.927 511.827 212.927H503.788ZM503.788 209.247H511.874C514.28 209.247 516.124 208.685 517.405 207.56C518.687 206.419 519.327 204.779 519.327 202.638C519.327 200.607 518.687 198.982 517.405 197.763C516.124 196.544 514.366 195.911 512.132 195.865H503.788V209.247Z" fill="black"/>
<rect x="285" y="1526.71" width="379.976" height="380.128" rx="19" fill="#D3D3D3"/>
<path d="M412.887 1783.86C422.906 1791.06 447.598 1801.14 466.214 1783.86L474.94 1787.57L485.605 1792.1L497.24 1797.04L539.901 1815.17C543.779 1824.68 541.517 1829.93 539.901 1831.37H408.039C407.905 1825.27 407.904 1819.9 408.003 1815.17C408.208 1805.43 408.84 1798.44 409.623 1793.58C410.664 1787.1 411.97 1784.37 412.887 1783.86Z" fill="white"/>
<path d="M539.901 1815.17C543.779 1824.68 541.517 1829.93 539.901 1831.37H408.039C407.905 1825.27 407.904 1819.9 408.003 1815.17M539.901 1815.17H408.003M539.901 1815.17L497.24 1797.04M409.623 1793.58C410.664 1787.1 411.97 1784.37 412.887 1783.86C422.906 1791.06 447.598 1801.14 466.214 1783.86L474.94 1787.57M409.623 1793.58C414.912 1793.22 426.655 1797.03 431.309 1815.17M409.623 1793.58C408.84 1798.44 408.208 1805.43 408.003 1815.17M468.153 1796.82L474.94 1787.57M474.94 1787.57L485.605 1792.1M477.848 1802.22L485.605 1792.1M485.605 1792.1L497.24 1797.04M489.483 1807.62L497.24 1797.04" stroke="black"/>
<path d="M430.285 1814.6C425.821 1795.84 414.559 1791.89 409.486 1792.27C408.736 1797.3 408.13 1804.52 407.933 1814.6H430.285Z" fill="black" stroke="black"/>
<path d="M412.887 1691.62C422.906 1698.82 447.598 1708.9 466.214 1691.62L474.94 1695.33L485.605 1699.86L497.24 1704.81L539.901 1722.94C543.779 1732.44 541.517 1737.7 539.901 1739.14H408.039C407.905 1733.04 407.904 1727.66 408.003 1722.94C408.208 1713.19 408.84 1706.21 409.623 1701.34C410.664 1694.86 411.97 1692.13 412.887 1691.62Z" fill="white"/>
<path d="M539.901 1722.94C543.779 1732.44 541.517 1737.7 539.901 1739.14H408.039C407.905 1733.04 407.904 1727.66 408.003 1722.94M539.901 1722.94H408.003M539.901 1722.94L497.24 1704.81M409.623 1701.34C410.664 1694.86 411.97 1692.13 412.887 1691.62C422.906 1698.82 447.598 1708.9 466.214 1691.62L474.94 1695.33M409.623 1701.34C414.912 1700.98 426.655 1704.8 431.309 1722.94M409.623 1701.34C408.84 1706.21 408.208 1713.19 408.003 1722.94M468.153 1704.58L474.94 1695.33M474.94 1695.33L485.605 1699.86M477.848 1709.98L485.605 1699.86M485.605 1699.86L497.24 1704.81M489.483 1715.38L497.24 1704.81" stroke="black"/>
<path d="M430.285 1722.37C425.821 1703.6 414.559 1699.66 409.486 1700.03C408.736 1705.06 408.13 1712.28 407.933 1722.37H430.285Z" fill="black" stroke="black"/>
<path d="M372.018 1603.02C368.159 1601.91 365.346 1600.55 363.58 1598.94C361.83 1597.31 360.955 1595.31 360.955 1592.94C360.955 1590.25 362.026 1588.03 364.166 1586.28C366.323 1584.52 369.119 1583.63 372.557 1583.63C374.901 1583.63 376.987 1584.09 378.815 1584.99C380.659 1585.9 382.08 1587.15 383.08 1588.74C384.096 1590.34 384.604 1592.08 384.604 1593.97H380.08C380.08 1591.91 379.424 1590.29 378.112 1589.12C376.799 1587.93 374.948 1587.34 372.557 1587.34C370.338 1587.34 368.604 1587.83 367.354 1588.81C366.119 1589.78 365.502 1591.13 365.502 1592.87C365.502 1594.26 366.088 1595.44 367.26 1596.41C368.448 1597.36 370.455 1598.24 373.284 1599.03C376.127 1599.83 378.346 1600.71 379.94 1601.68C381.549 1602.63 382.737 1603.75 383.502 1605.03C384.284 1606.31 384.674 1607.82 384.674 1609.56C384.674 1612.32 383.596 1614.54 381.44 1616.21C379.284 1617.87 376.401 1618.7 372.791 1618.7C370.448 1618.7 368.26 1618.25 366.229 1617.36C364.198 1616.45 362.627 1615.22 361.518 1613.66C360.424 1612.09 359.877 1610.32 359.877 1608.34H364.401C364.401 1610.4 365.159 1612.03 366.674 1613.24C368.205 1614.42 370.244 1615.02 372.791 1615.02C375.166 1615.02 376.987 1614.53 378.252 1613.56C379.518 1612.59 380.151 1611.27 380.151 1609.6C380.151 1607.93 379.565 1606.64 378.393 1605.74C377.221 1604.81 375.096 1603.91 372.018 1603.02ZM416.69 1618.23H412.166L394.987 1591.93V1618.23H390.463V1584.1H394.987L412.213 1610.52V1584.1H416.69V1618.23ZM443.971 1602.45H429.182V1614.55H446.362V1618.23H424.682V1584.1H446.127V1587.81H429.182V1598.77H443.971V1602.45ZM470.807 1609.32H456.51L453.299 1618.23H448.659L461.69 1584.1H465.627L478.682 1618.23H474.065L470.807 1609.32ZM457.869 1605.62H469.471L463.659 1589.66L457.869 1605.62ZM491.948 1602.36L487.776 1606.7V1618.23H483.276V1584.1H487.776V1600.98L502.94 1584.1H508.377L494.948 1599.17L509.432 1618.23H504.041L491.948 1602.36ZM532.659 1602.45H517.869V1614.55H535.049V1618.23H513.369V1584.1H534.815V1587.81H517.869V1598.77H532.659V1602.45ZM553.166 1604.42H545.151V1618.23H540.627V1584.1H551.924C555.768 1584.1 558.721 1584.98 560.784 1586.73C562.862 1588.48 563.901 1591.02 563.901 1594.37C563.901 1596.49 563.323 1598.34 562.166 1599.92C561.026 1601.5 559.432 1602.68 557.385 1603.46L565.401 1617.95V1618.23H560.573L553.166 1604.42ZM545.151 1600.74H552.065C554.299 1600.74 556.073 1600.17 557.385 1599.01C558.713 1597.85 559.377 1596.31 559.377 1594.37C559.377 1592.26 558.744 1590.64 557.479 1589.52C556.229 1588.39 554.416 1587.82 552.041 1587.81H545.151V1600.74ZM580.284 1603.02C576.424 1601.91 573.612 1600.55 571.846 1598.94C570.096 1597.31 569.221 1595.31 569.221 1592.94C569.221 1590.25 570.291 1588.03 572.432 1586.28C574.588 1584.52 577.385 1583.63 580.823 1583.63C583.166 1583.63 585.252 1584.09 587.08 1584.99C588.924 1585.9 590.346 1587.15 591.346 1588.74C592.362 1590.34 592.869 1592.08 592.869 1593.97H588.346C588.346 1591.91 587.69 1590.29 586.377 1589.12C585.065 1587.93 583.213 1587.34 580.823 1587.34C578.604 1587.34 576.869 1587.83 575.619 1588.81C574.385 1589.78 573.768 1591.13 573.768 1592.87C573.768 1594.26 574.354 1595.44 575.526 1596.41C576.713 1597.36 578.721 1598.24 581.549 1599.03C584.393 1599.83 586.612 1600.71 588.205 1601.68C589.815 1602.63 591.002 1603.75 591.768 1605.03C592.549 1606.31 592.94 1607.82 592.94 1609.56C592.94 1612.32 591.862 1614.54 589.705 1616.21C587.549 1617.87 584.666 1618.7 581.057 1618.7C578.713 1618.7 576.526 1618.25 574.494 1617.36C572.463 1616.45 570.893 1615.22 569.784 1613.66C568.69 1612.09 568.143 1610.32 568.143 1608.34H572.666C572.666 1610.4 573.424 1612.03 574.94 1613.24C576.471 1614.42 578.51 1615.02 581.057 1615.02C583.432 1615.02 585.252 1614.53 586.518 1613.56C587.784 1612.59 588.416 1611.27 588.416 1609.6C588.416 1607.93 587.83 1606.64 586.659 1605.74C585.487 1604.81 583.362 1603.91 580.284 1603.02Z" fill="black"/>
</svg>
