<svg width="952" height="2000" viewBox="0 0 952 2000" fill="none" xmlns="http://www.w3.org/2000/svg">
<rect width="952" height="2000" rx="100" fill="#C4C4C4"/>
<rect x="285.539" y="125" width="395.461" height="351.87" rx="19" fill="#D3D3D3"/>
<path d="M483.269 289.139C488.456 289.112 494.396 288.802 500.716 287.999C503.476 287.999 509.231 288.916 515.255 292.057C517.695 293.329 520.178 294.966 522.525 297.054C525.433 299.641 548.695 395.888 548.695 413.482L532.702 416.069C528.05 412.964 523.979 389.334 522.525 377.906V417.95C522.525 419.054 521.629 419.95 520.525 419.95H483.269H446.014C444.91 419.95 444.014 419.054 444.014 417.95V377.906C442.56 389.334 438.489 412.964 433.837 416.069L417.844 413.482C417.844 395.888 441.106 299.641 444.014 297.054C445.022 295.709 447.418 293.595 451.284 291.73C454.854 290.006 459.679 288.495 465.823 287.999C472.143 288.802 478.083 289.112 483.269 289.139Z" fill="#FCE8A3"/>
<path d="M465.823 287.999C470.669 288.861 484.433 290.068 500.716 287.999M465.823 287.999C465.823 301.366 469.312 331.206 483.269 343.625M465.823 287.999C482.106 290.068 495.87 288.861 500.716 287.999M465.823 287.999C453.028 289.033 445.953 294.467 444.014 297.054C441.106 299.641 417.844 395.888 417.844 413.482L433.837 416.069C438.489 412.964 442.56 389.334 444.014 377.906M483.269 343.625V419.95M483.269 343.625C497.227 331.206 500.716 301.366 500.716 287.999M483.269 419.95H446.014C444.91 419.95 444.014 419.054 444.014 417.95V377.906M483.269 419.95H520.525C521.629 419.95 522.525 419.054 522.525 417.95V377.906M500.716 287.999C504.593 287.999 514.383 289.81 522.525 297.054C525.433 299.641 548.695 395.888 548.695 413.482L532.702 416.069C528.05 412.964 523.979 389.334 522.525 377.906M451.284 291.73C448.86 312.679 444.014 361.089 444.014 377.906M515.255 292.057C517.678 313.007 522.525 361.089 522.525 377.906" stroke="black"/>
<ellipse cx="477.454" cy="352.68" rx="2.9078" ry="2.58728" fill="black"/>
<ellipse cx="477.454" cy="365.617" rx="2.9078" ry="2.58728" fill="black"/>
<ellipse cx="477.454" cy="381.141" rx="2.9078" ry="2.58728" fill="black"/>
<ellipse cx="477.454" cy="396.664" rx="2.9078" ry="2.58728" fill="black"/>
<ellipse cx="477.454" cy="412.188" rx="2.9078" ry="2.58728" fill="black"/>
<path d="M394.967 213.172C394.546 216.781 393.21 219.57 390.96 221.539C388.725 223.492 385.749 224.469 382.03 224.469C377.999 224.469 374.764 223.023 372.327 220.133C369.905 217.242 368.694 213.375 368.694 208.531V205.25C368.694 202.078 369.257 199.289 370.382 196.883C371.522 194.477 373.132 192.633 375.21 191.352C377.288 190.055 379.694 189.406 382.428 189.406C386.053 189.406 388.96 190.422 391.147 192.453C393.335 194.469 394.608 197.266 394.967 200.844H390.444C390.053 198.125 389.202 196.156 387.889 194.938C386.592 193.719 384.772 193.109 382.428 193.109C379.553 193.109 377.296 194.172 375.655 196.297C374.03 198.422 373.217 201.445 373.217 205.367V208.672C373.217 212.375 373.991 215.32 375.538 217.508C377.085 219.695 379.249 220.789 382.03 220.789C384.53 220.789 386.444 220.227 387.772 219.102C389.116 217.961 390.007 215.984 390.444 213.172H394.967ZM419.975 215.094H405.678L402.467 224H397.827L410.858 189.875H414.796L427.85 224H423.233L419.975 215.094ZM407.038 211.391H418.639L412.827 195.43L407.038 211.391ZM444.96 210.195H436.944V224H432.421V189.875H443.717C447.561 189.875 450.514 190.75 452.577 192.5C454.655 194.25 455.694 196.797 455.694 200.141C455.694 202.266 455.116 204.117 453.96 205.695C452.819 207.273 451.225 208.453 449.178 209.234L457.194 223.719V224H452.366L444.96 210.195ZM436.944 206.516H443.858C446.092 206.516 447.866 205.938 449.178 204.781C450.507 203.625 451.171 202.078 451.171 200.141C451.171 198.031 450.538 196.414 449.272 195.289C448.022 194.164 446.21 193.594 443.835 193.578H436.944V206.516ZM462.022 224V189.875H471.655C474.624 189.875 477.249 190.531 479.53 191.844C481.811 193.156 483.569 195.023 484.803 197.445C486.053 199.867 486.686 202.648 486.702 205.789V207.969C486.702 211.188 486.077 214.008 484.827 216.43C483.592 218.852 481.819 220.711 479.507 222.008C477.21 223.305 474.53 223.969 471.467 224H462.022ZM466.522 193.578V220.32H471.257C474.725 220.32 477.421 219.242 479.342 217.086C481.28 214.93 482.249 211.859 482.249 207.875V205.883C482.249 202.008 481.335 199 479.507 196.859C477.694 194.703 475.116 193.609 471.772 193.578H466.522ZM498.35 224H493.85V189.875H498.35V224ZM531.796 219.523C530.639 221.18 529.022 222.422 526.944 223.25C524.882 224.062 522.475 224.469 519.725 224.469C516.944 224.469 514.475 223.82 512.319 222.523C510.163 221.211 508.491 219.352 507.303 216.945C506.132 214.539 505.53 211.75 505.499 208.578V205.602C505.499 200.461 506.694 196.477 509.085 193.648C511.491 190.82 514.866 189.406 519.21 189.406C522.772 189.406 525.639 190.32 527.811 192.148C529.983 193.961 531.311 196.539 531.796 199.883H527.296C526.452 195.367 523.764 193.109 519.233 193.109C516.217 193.109 513.928 194.172 512.366 196.297C510.819 198.406 510.038 201.469 510.022 205.484V208.273C510.022 212.102 510.897 215.148 512.647 217.414C514.397 219.664 516.764 220.789 519.749 220.789C521.436 220.789 522.913 220.602 524.178 220.227C525.444 219.852 526.491 219.219 527.319 218.328V210.664H519.421V207.008H531.796V219.523ZM558.163 215.094H543.866L540.655 224H536.014L549.046 189.875H552.983L566.038 224H561.421L558.163 215.094ZM545.225 211.391H556.827L551.014 195.43L545.225 211.391ZM596.858 224H592.335L575.155 197.703V224H570.632V189.875H575.155L592.382 216.289V189.875H596.858V224Z" fill="black"/>
<rect x="285.539" y="1035.72" width="395.461" height="351.87" rx="19" fill="#D3D3D3"/>
<path d="M525.433 1187.08H436.745L429.475 1341.02H534.156L525.433 1187.08Z" fill="#F5B3AA"/>
<path d="M442.56 1351.37V1341.02H519.532L521.071 1351.37H442.56Z" fill="#F5B3AA"/>
<path d="M460.007 1359.13V1350.08L499.151 1348.78L500.716 1359.13H460.007Z" fill="#F5B3AA"/>
<path d="M526.312 1175.43H435.991V1186.4H526.312V1175.43Z" fill="#F5B3AA"/>
<path d="M526.312 1186.4V1175.43H435.991V1186.4M526.312 1186.4H435.991M526.312 1186.4L535.61 1342.68H519.671M435.991 1186.4L428.021 1342.68H442.632M447.945 1259.06L442.632 1350.91H461.228M470.526 1201.48L461.228 1359.13H501.075L500.554 1350.91M489.121 1201.48L500.554 1350.91M511.701 1259.06L519.671 1350.91H500.554" stroke="black"/>
<path d="M359.684 1130.38H375.855V1134.05H355.16V1099.93H359.684V1130.38ZM405.691 1118.09C405.691 1121.44 405.129 1124.36 404.004 1126.86C402.879 1129.34 401.285 1131.24 399.223 1132.55C397.16 1133.87 394.754 1134.52 392.004 1134.52C389.316 1134.52 386.934 1133.87 384.855 1132.55C382.777 1131.23 381.16 1129.34 380.004 1126.91C378.863 1124.45 378.277 1121.62 378.246 1118.4V1115.94C378.246 1112.66 378.816 1109.76 379.957 1107.24C381.098 1104.73 382.707 1102.8 384.785 1101.48C386.879 1100.13 389.269 1099.46 391.957 1099.46C394.691 1099.46 397.098 1100.13 399.176 1101.45C401.269 1102.77 402.879 1104.68 404.004 1107.2C405.129 1109.7 405.691 1112.61 405.691 1115.94V1118.09ZM401.215 1115.89C401.215 1111.84 400.402 1108.74 398.777 1106.59C397.152 1104.41 394.879 1103.33 391.957 1103.33C389.113 1103.33 386.871 1104.41 385.23 1106.59C383.605 1108.74 382.769 1111.74 382.723 1115.59V1118.09C382.723 1122.02 383.543 1125.1 385.184 1127.35C386.84 1129.59 389.113 1130.7 392.004 1130.7C394.91 1130.7 397.16 1129.65 398.754 1127.54C400.348 1125.41 401.168 1122.38 401.215 1118.42V1115.89ZM438.668 1134.05H434.144L416.965 1107.76V1134.05H412.441V1099.93H416.965L434.191 1126.34V1099.93H438.668V1134.05ZM471.855 1129.58C470.699 1131.23 469.082 1132.48 467.004 1133.3C464.941 1134.12 462.535 1134.52 459.785 1134.52C457.004 1134.52 454.535 1133.88 452.379 1132.58C450.223 1131.27 448.551 1129.41 447.363 1127C446.191 1124.59 445.59 1121.8 445.559 1118.63V1115.66C445.559 1110.52 446.754 1106.53 449.144 1103.7C451.551 1100.88 454.926 1099.46 459.269 1099.46C462.832 1099.46 465.699 1100.38 467.871 1102.2C470.043 1104.02 471.371 1106.59 471.855 1109.94H467.355C466.512 1105.42 463.824 1103.16 459.293 1103.16C456.277 1103.16 453.988 1104.23 452.426 1106.35C450.879 1108.46 450.098 1111.52 450.082 1115.54V1118.33C450.082 1122.16 450.957 1125.2 452.707 1127.47C454.457 1129.72 456.824 1130.84 459.809 1130.84C461.496 1130.84 462.973 1130.66 464.238 1130.28C465.504 1129.91 466.551 1129.27 467.379 1128.38V1120.72H459.48V1117.06H471.855V1129.58ZM501.34 1118.84C497.48 1117.73 494.668 1116.38 492.902 1114.77C491.152 1113.14 490.277 1111.14 490.277 1108.77C490.277 1106.08 491.348 1103.86 493.488 1102.11C495.644 1100.34 498.441 1099.46 501.879 1099.46C504.223 1099.46 506.309 1099.91 508.137 1100.82C509.98 1101.73 511.402 1102.98 512.402 1104.57C513.418 1106.16 513.926 1107.91 513.926 1109.8H509.402C509.402 1107.73 508.746 1106.12 507.434 1104.95C506.121 1103.76 504.269 1103.16 501.879 1103.16C499.66 1103.16 497.926 1103.66 496.676 1104.64C495.441 1105.61 494.824 1106.96 494.824 1108.7C494.824 1110.09 495.41 1111.27 496.582 1112.23C497.769 1113.19 499.777 1114.06 502.605 1114.86C505.449 1115.66 507.668 1116.54 509.262 1117.51C510.871 1118.46 512.059 1119.58 512.824 1120.86C513.605 1122.14 513.996 1123.65 513.996 1125.38C513.996 1128.15 512.918 1130.37 510.762 1132.04C508.605 1133.7 505.723 1134.52 502.113 1134.52C499.769 1134.52 497.582 1134.08 495.551 1133.19C493.519 1132.28 491.949 1131.05 490.84 1129.48C489.746 1127.92 489.199 1126.15 489.199 1124.16H493.723C493.723 1126.23 494.48 1127.86 495.996 1129.06C497.527 1130.25 499.566 1130.84 502.113 1130.84C504.488 1130.84 506.309 1130.36 507.574 1129.39C508.84 1128.42 509.473 1127.1 509.473 1125.43C509.473 1123.76 508.887 1122.47 507.715 1121.56C506.543 1120.64 504.418 1119.73 501.34 1118.84ZM528.457 1118.19L524.285 1122.52V1134.05H519.785V1099.93H524.285V1116.8L539.449 1099.93H544.887L531.457 1115L545.941 1134.05H540.551L528.457 1118.19ZM554.707 1134.05H550.207V1099.93H554.707V1134.05ZM575.473 1120.25H567.457V1134.05H562.934V1099.93H574.23C578.074 1099.93 581.027 1100.8 583.09 1102.55C585.168 1104.3 586.207 1106.85 586.207 1110.2C586.207 1112.32 585.629 1114.17 584.473 1115.75C583.332 1117.33 581.738 1118.51 579.691 1119.29L587.707 1133.77V1134.05H582.879L575.473 1120.25ZM567.457 1116.57H574.371C576.605 1116.57 578.379 1115.99 579.691 1114.84C581.019 1113.68 581.684 1112.13 581.684 1110.2C581.684 1108.09 581.051 1106.47 579.785 1105.34C578.535 1104.22 576.723 1103.65 574.348 1103.63H567.457V1116.57ZM614.238 1103.63H603.269V1134.05H598.793V1103.63H587.848V1099.93H614.238V1103.63Z" fill="black"/>
<rect x="285.539" y="601.059" width="395.461" height="351.87" rx="19" fill="#D3D3D3"/>
<path d="M460.603 754C472.192 754.623 478.579 754.675 489.681 754L492.589 754.235L495.496 754.47L521.667 759.436L562.376 790.222L565.284 792.809L543.475 817.388L536.206 825.15L521.667 813.507C521.667 828.669 522.026 862.666 522.026 879.483H428.976C428.976 863.059 428.637 830.459 428.618 814.798C428.617 814.354 428.617 813.923 428.617 813.507L414.078 825.15L406.809 817.388L385 792.809L428.976 759.436L454.787 754.47L457.695 754.235L460.603 754Z" fill="white"/>
<path d="M459.058 757.881C470.646 759.53 480.179 759.698 491.28 757.881M521.667 759.436L495.496 754.47L492.589 754.235M521.667 759.436L562.376 790.222L565.284 792.809L543.475 817.388L536.206 825.15L521.667 813.507M521.667 759.436C519.243 769.353 515.851 791.774 521.667 813.507M428.976 759.436L454.787 754.47L457.695 754.235M428.976 759.436L385 792.809L406.809 817.388L414.078 825.15L428.617 813.507C428.617 828.598 428.976 862.593 428.976 879.483H522.026C522.026 862.666 521.667 828.669 521.667 813.507M428.976 759.436C431.4 769.353 434.433 793.068 428.617 814.801M492.589 754.235L489.681 754C478.579 754.675 472.192 754.623 460.603 754L457.695 754.235M492.589 754.235C491.619 758.547 486.773 768.417 475.142 768.23C463.511 768.043 458.664 758.391 457.695 754.235" stroke="black"/>
<path d="M420.539 667.578H409.57V698H405.094V667.578H394.148V663.875H420.539V667.578ZM428.508 685.273H417.07V681.734H428.508V685.273ZM443.484 682.789C439.625 681.68 436.812 680.32 435.047 678.711C433.297 677.086 432.422 675.086 432.422 672.711C432.422 670.023 433.492 667.805 435.633 666.055C437.789 664.289 440.586 663.406 444.023 663.406C446.367 663.406 448.453 663.859 450.281 664.766C452.125 665.672 453.547 666.922 454.547 668.516C455.562 670.109 456.07 671.852 456.07 673.742H451.547C451.547 671.68 450.891 670.062 449.578 668.891C448.266 667.703 446.414 667.109 444.023 667.109C441.805 667.109 440.07 667.602 438.82 668.586C437.586 669.555 436.969 670.906 436.969 672.641C436.969 674.031 437.555 675.211 438.727 676.18C439.914 677.133 441.922 678.008 444.75 678.805C447.594 679.602 449.812 680.484 451.406 681.453C453.016 682.406 454.203 683.523 454.969 684.805C455.75 686.086 456.141 687.594 456.141 689.328C456.141 692.094 455.062 694.312 452.906 695.984C450.75 697.641 447.867 698.469 444.258 698.469C441.914 698.469 439.727 698.023 437.695 697.133C435.664 696.227 434.094 694.992 432.984 693.43C431.891 691.867 431.344 690.094 431.344 688.109H435.867C435.867 690.172 436.625 691.805 438.141 693.008C439.672 694.195 441.711 694.789 444.258 694.789C446.633 694.789 448.453 694.305 449.719 693.336C450.984 692.367 451.617 691.047 451.617 689.375C451.617 687.703 451.031 686.414 449.859 685.508C448.688 684.586 446.562 683.68 443.484 682.789ZM488.156 698H483.633V682.227H466.43V698H461.93V663.875H466.43V678.547H483.633V663.875H488.156V698ZM500.977 698H496.477V663.875H500.977V698ZM521.742 684.195H513.727V698H509.203V663.875H520.5C524.344 663.875 527.297 664.75 529.359 666.5C531.438 668.25 532.477 670.797 532.477 674.141C532.477 676.266 531.898 678.117 530.742 679.695C529.602 681.273 528.008 682.453 525.961 683.234L533.977 697.719V698H529.148L521.742 684.195ZM513.727 680.516H520.641C522.875 680.516 524.648 679.938 525.961 678.781C527.289 677.625 527.953 676.078 527.953 674.141C527.953 672.031 527.32 670.414 526.055 669.289C524.805 668.164 522.992 667.594 520.617 667.578H513.727V680.516ZM560.508 667.578H549.539V698H545.062V667.578H534.117V663.875H560.508V667.578Z" fill="black"/>
<rect x="271" y="1522.13" width="395.461" height="351.87" rx="19" fill="#D3D3D3"/>
<path d="M410.574 1783.45C410.574 1771.03 414.452 1762.75 416.39 1760.16C430.444 1767.92 478.908 1802.07 490.539 1814.49C502.17 1826.91 532.217 1817.94 554.511 1819.67C556.514 1822.52 557.424 1825.66 557.659 1828.72C558.104 1834.56 556.099 1840.13 554.511 1842.95C505.66 1855.37 476.969 1848.13 470.184 1842.95H410.574V1783.45Z" fill="#C69153"/>
<path d="M410.574 1783.45C410.574 1771.03 414.452 1762.75 416.39 1760.16C430.444 1767.92 478.908 1802.07 490.539 1814.49C502.17 1826.91 532.217 1817.94 554.511 1819.67C556.514 1822.52 557.425 1825.66 557.659 1828.72M410.574 1783.45V1842.95H470.184C476.969 1848.13 505.66 1855.37 554.511 1842.95C556.099 1840.13 558.104 1834.56 557.659 1828.72M410.574 1783.45C422.69 1784.31 454.191 1794.57 483.269 1828.72C486.822 1833.03 506.673 1839.07 557.659 1828.72" stroke="black"/>
<path d="M410.574 1677.37C410.574 1664.95 414.452 1656.67 416.39 1654.08C430.444 1661.84 478.908 1696 490.539 1708.41C502.17 1720.83 532.217 1711.86 554.511 1713.59C556.514 1716.44 557.424 1719.58 557.659 1722.64C558.104 1728.48 556.099 1734.05 554.511 1736.87C505.66 1749.29 476.969 1742.05 470.184 1736.87H410.574V1677.37Z" fill="#C69153"/>
<path d="M410.574 1677.37C410.574 1664.95 414.452 1656.67 416.39 1654.08C430.444 1661.84 478.908 1696 490.539 1708.41C502.17 1720.83 532.217 1711.86 554.511 1713.59C556.514 1716.44 557.425 1719.58 557.659 1722.64M410.574 1677.37V1736.87H470.184C476.969 1742.05 505.66 1749.29 554.511 1736.87C556.099 1734.05 558.104 1728.48 557.659 1722.64M410.574 1677.37C422.69 1678.23 454.191 1688.49 483.269 1722.64C486.822 1726.96 506.673 1732.99 557.659 1722.64" stroke="black"/>
<path d="M410.574 1842.95V1783.45C422.69 1784.31 454.191 1794.57 483.269 1828.72C486.822 1833.03 506.673 1839.07 557.659 1828.72C558.104 1834.56 556.099 1840.13 554.511 1842.95C505.66 1855.37 476.969 1848.13 470.184 1842.95H410.574Z" fill="#573F22" stroke="black"/>
<path d="M410.574 1736.87V1677.37C422.69 1678.23 454.191 1688.49 483.269 1722.64C486.822 1726.96 506.673 1732.99 557.659 1722.64C558.104 1728.48 556.099 1734.05 554.511 1736.87C505.66 1749.29 476.969 1742.05 470.184 1736.87H410.574Z" fill="#573F22" stroke="black"/>
<path d="M392.056 1599.24L392.712 1603.74L393.673 1599.69L400.423 1575.88H404.22L410.806 1599.69L411.743 1603.81L412.47 1599.22L417.767 1575.88H422.29L414.017 1610H409.915L402.884 1585.13L402.345 1582.53L401.806 1585.13L394.517 1610H390.415L382.165 1575.88H386.665L392.056 1599.24ZM446.595 1594.23H431.806V1606.32H448.986V1610H427.306V1575.88H448.751V1579.58H431.806V1590.55H446.595V1594.23ZM454.587 1610V1575.88H464.22C467.189 1575.88 469.814 1576.53 472.095 1577.84C474.376 1579.16 476.134 1581.02 477.368 1583.45C478.618 1585.87 479.251 1588.65 479.267 1591.79V1593.97C479.267 1597.19 478.642 1600.01 477.392 1602.43C476.157 1604.85 474.384 1606.71 472.071 1608.01C469.775 1609.3 467.095 1609.97 464.032 1610H454.587ZM459.087 1579.58V1606.32H463.821C467.29 1606.32 469.986 1605.24 471.907 1603.09C473.845 1600.93 474.814 1597.86 474.814 1593.88V1591.88C474.814 1588.01 473.9 1585 472.071 1582.86C470.259 1580.7 467.681 1579.61 464.337 1579.58H459.087ZM511.282 1605.52C510.126 1607.18 508.509 1608.42 506.431 1609.25C504.368 1610.06 501.962 1610.47 499.212 1610.47C496.431 1610.47 493.962 1609.82 491.806 1608.52C489.65 1607.21 487.978 1605.35 486.79 1602.95C485.618 1600.54 485.017 1597.75 484.986 1594.58V1591.6C484.986 1586.46 486.181 1582.48 488.571 1579.65C490.978 1576.82 494.353 1575.41 498.696 1575.41C502.259 1575.41 505.126 1576.32 507.298 1578.15C509.47 1579.96 510.798 1582.54 511.282 1585.88H506.782C505.939 1581.37 503.251 1579.11 498.72 1579.11C495.704 1579.11 493.415 1580.17 491.853 1582.3C490.306 1584.41 489.525 1587.47 489.509 1591.48V1594.27C489.509 1598.1 490.384 1601.15 492.134 1603.41C493.884 1605.66 496.251 1606.79 499.236 1606.79C500.923 1606.79 502.4 1606.6 503.665 1606.23C504.931 1605.85 505.978 1605.22 506.806 1604.33V1596.66H498.907V1593.01H511.282V1605.52ZM538.095 1594.23H523.306V1606.32H540.486V1610H518.806V1575.88H540.251V1579.58H523.306V1590.55H538.095V1594.23ZM556.142 1594.79C552.282 1593.68 549.47 1592.32 547.704 1590.71C545.954 1589.09 545.079 1587.09 545.079 1584.71C545.079 1582.02 546.15 1579.8 548.29 1578.05C550.446 1576.29 553.243 1575.41 556.681 1575.41C559.025 1575.41 561.111 1575.86 562.939 1576.77C564.782 1577.67 566.204 1578.92 567.204 1580.52C568.22 1582.11 568.728 1583.85 568.728 1585.74H564.204C564.204 1583.68 563.548 1582.06 562.236 1580.89C560.923 1579.7 559.071 1579.11 556.681 1579.11C554.462 1579.11 552.728 1579.6 551.478 1580.59C550.243 1581.55 549.626 1582.91 549.626 1584.64C549.626 1586.03 550.212 1587.21 551.384 1588.18C552.571 1589.13 554.579 1590.01 557.407 1590.8C560.251 1591.6 562.47 1592.48 564.064 1593.45C565.673 1594.41 566.861 1595.52 567.626 1596.8C568.407 1598.09 568.798 1599.59 568.798 1601.33C568.798 1604.09 567.72 1606.31 565.564 1607.98C563.407 1609.64 560.525 1610.47 556.915 1610.47C554.571 1610.47 552.384 1610.02 550.353 1609.13C548.321 1608.23 546.751 1606.99 545.642 1605.43C544.548 1603.87 544.001 1602.09 544.001 1600.11H548.525C548.525 1602.17 549.282 1603.8 550.798 1605.01C552.329 1606.2 554.368 1606.79 556.915 1606.79C559.29 1606.79 561.111 1606.3 562.376 1605.34C563.642 1604.37 564.275 1603.05 564.275 1601.38C564.275 1599.7 563.689 1598.41 562.517 1597.51C561.345 1596.59 559.22 1595.68 556.142 1594.79Z" fill="black"/>
</svg>
